<mxfile host="app.diagrams.net" modified="2021-04-12T04:35:24.150Z" agent="5.0 (Macintosh; Intel Mac OS X 10_14_6) AppleWebKit/537.36 (KHTML, like Gecko) Chrome/90.0.4430.51 Safari/537.36 Edg/90.0.818.27" etag="E-I1TtSC70y-TTAeZNxj" version="14.5.1" type="github">
  <diagram id="HbU7Fu5Y3P3jlQ55RAGB" name="Page-1">
    <mxGraphModel dx="3573" dy="1641" grid="1" gridSize="10" guides="1" tooltips="1" connect="1" arrows="1" fold="1" page="1" pageScale="1" pageWidth="827" pageHeight="1169" math="0" shadow="0">
      <root>
        <mxCell id="0" />
        <mxCell id="1" parent="0" />
        <mxCell id="J7t00RlYxUDwokbcdc5y-10" style="edgeStyle=orthogonalEdgeStyle;rounded=0;orthogonalLoop=1;jettySize=auto;html=1;exitX=0.5;exitY=1;exitDx=0;exitDy=0;" parent="1" source="J7t00RlYxUDwokbcdc5y-9" edge="1">
          <mxGeometry relative="1" as="geometry">
            <mxPoint x="325" y="380" as="targetPoint" />
          </mxGeometry>
        </mxCell>
        <mxCell id="J7t00RlYxUDwokbcdc5y-9" value="main.go" style="rounded=0;whiteSpace=wrap;html=1;" parent="1" vertex="1">
          <mxGeometry x="290" y="320" width="70" height="30" as="geometry" />
        </mxCell>
        <mxCell id="J7t00RlYxUDwokbcdc5y-13" value="" style="edgeStyle=orthogonalEdgeStyle;rounded=0;orthogonalLoop=1;jettySize=auto;html=1;" parent="1" source="J7t00RlYxUDwokbcdc5y-11" target="J7t00RlYxUDwokbcdc5y-12" edge="1">
          <mxGeometry relative="1" as="geometry" />
        </mxCell>
        <mxCell id="J7t00RlYxUDwokbcdc5y-11" value="config.load()&lt;br&gt;加载config.yaml和configprofile.json两个配置文件中的内容" style="rounded=0;whiteSpace=wrap;html=1;" parent="1" vertex="1">
          <mxGeometry x="242.5" y="380" width="165" height="60" as="geometry" />
        </mxCell>
        <mxCell id="J7t00RlYxUDwokbcdc5y-15" style="edgeStyle=orthogonalEdgeStyle;rounded=0;orthogonalLoop=1;jettySize=auto;html=1;exitX=0.5;exitY=1;exitDx=0;exitDy=0;" parent="1" source="J7t00RlYxUDwokbcdc5y-12" target="J7t00RlYxUDwokbcdc5y-14" edge="1">
          <mxGeometry relative="1" as="geometry" />
        </mxCell>
        <mxCell id="J7t00RlYxUDwokbcdc5y-12" value="controller.Start()" style="rounded=0;whiteSpace=wrap;html=1;" parent="1" vertex="1">
          <mxGeometry x="267.5" y="470" width="115" height="20" as="geometry" />
        </mxCell>
        <mxCell id="J7t00RlYxUDwokbcdc5y-17" style="edgeStyle=orthogonalEdgeStyle;rounded=0;orthogonalLoop=1;jettySize=auto;html=1;exitX=0.5;exitY=1;exitDx=0;exitDy=0;entryX=0.5;entryY=0;entryDx=0;entryDy=0;" parent="1" source="J7t00RlYxUDwokbcdc5y-14" target="J7t00RlYxUDwokbcdc5y-16" edge="1">
          <mxGeometry relative="1" as="geometry" />
        </mxCell>
        <mxCell id="J7t00RlYxUDwokbcdc5y-14" value="helper.InitClient()获取client并使用client订阅主题" style="rounded=0;whiteSpace=wrap;html=1;" parent="1" vertex="1">
          <mxGeometry x="268.75" y="520" width="111.25" height="40" as="geometry" />
        </mxCell>
        <mxCell id="J7t00RlYxUDwokbcdc5y-25" style="edgeStyle=orthogonalEdgeStyle;rounded=0;orthogonalLoop=1;jettySize=auto;html=1;entryX=0.5;entryY=0;entryDx=0;entryDy=0;" parent="1" source="J7t00RlYxUDwokbcdc5y-16" target="J7t00RlYxUDwokbcdc5y-19" edge="1">
          <mxGeometry relative="1" as="geometry" />
        </mxCell>
        <mxCell id="J7t00RlYxUDwokbcdc5y-26" style="edgeStyle=orthogonalEdgeStyle;rounded=0;orthogonalLoop=1;jettySize=auto;html=1;" parent="1" target="J7t00RlYxUDwokbcdc5y-20" edge="1">
          <mxGeometry relative="1" as="geometry">
            <mxPoint x="327" y="640" as="sourcePoint" />
          </mxGeometry>
        </mxCell>
        <mxCell id="J7t00RlYxUDwokbcdc5y-27" style="edgeStyle=orthogonalEdgeStyle;rounded=0;orthogonalLoop=1;jettySize=auto;html=1;exitX=0.5;exitY=1;exitDx=0;exitDy=0;entryX=0.5;entryY=0;entryDx=0;entryDy=0;" parent="1" source="J7t00RlYxUDwokbcdc5y-16" target="J7t00RlYxUDwokbcdc5y-18" edge="1">
          <mxGeometry relative="1" as="geometry">
            <Array as="points">
              <mxPoint x="327" y="640" />
              <mxPoint x="120" y="640" />
            </Array>
          </mxGeometry>
        </mxCell>
        <mxCell id="J7t00RlYxUDwokbcdc5y-16" value="信息下发触发回调函数" style="rounded=0;whiteSpace=wrap;html=1;" parent="1" vertex="1">
          <mxGeometry x="271.25" y="580" width="111.25" height="30" as="geometry" />
        </mxCell>
        <mxCell id="J7t00RlYxUDwokbcdc5y-29" style="edgeStyle=orthogonalEdgeStyle;rounded=0;orthogonalLoop=1;jettySize=auto;html=1;entryX=0.5;entryY=0;entryDx=0;entryDy=0;exitX=0.5;exitY=1;exitDx=0;exitDy=0;" parent="1" source="J7t00RlYxUDwokbcdc5y-97" target="J7t00RlYxUDwokbcdc5y-28" edge="1">
          <mxGeometry relative="1" as="geometry">
            <mxPoint x="130" y="760" as="sourcePoint" />
          </mxGeometry>
        </mxCell>
        <mxCell id="J7t00RlYxUDwokbcdc5y-99" style="edgeStyle=orthogonalEdgeStyle;rounded=0;orthogonalLoop=1;jettySize=auto;html=1;exitX=0.5;exitY=1;exitDx=0;exitDy=0;entryX=0.5;entryY=0;entryDx=0;entryDy=0;" parent="1" source="J7t00RlYxUDwokbcdc5y-18" target="J7t00RlYxUDwokbcdc5y-97" edge="1">
          <mxGeometry relative="1" as="geometry" />
        </mxCell>
        <mxCell id="J7t00RlYxUDwokbcdc5y-18" value="filedownload" style="rounded=0;whiteSpace=wrap;html=1;" parent="1" vertex="1">
          <mxGeometry x="80" y="660" width="80" height="30" as="geometry" />
        </mxCell>
        <mxCell id="J7t00RlYxUDwokbcdc5y-56" style="edgeStyle=orthogonalEdgeStyle;rounded=0;orthogonalLoop=1;jettySize=auto;html=1;exitX=0.5;exitY=1;exitDx=0;exitDy=0;entryX=0.5;entryY=0;entryDx=0;entryDy=0;" parent="1" source="J7t00RlYxUDwokbcdc5y-19" target="J7t00RlYxUDwokbcdc5y-54" edge="1">
          <mxGeometry relative="1" as="geometry" />
        </mxCell>
        <mxCell id="J7t00RlYxUDwokbcdc5y-19" value="cpuinfo" style="rounded=0;whiteSpace=wrap;html=1;" parent="1" vertex="1">
          <mxGeometry x="286.87" y="660" width="80" height="30" as="geometry" />
        </mxCell>
        <mxCell id="J7t00RlYxUDwokbcdc5y-71" style="edgeStyle=orthogonalEdgeStyle;rounded=0;orthogonalLoop=1;jettySize=auto;html=1;exitX=0.5;exitY=1;exitDx=0;exitDy=0;entryX=0.5;entryY=0;entryDx=0;entryDy=0;" parent="1" source="J7t00RlYxUDwokbcdc5y-20" target="J7t00RlYxUDwokbcdc5y-70" edge="1">
          <mxGeometry relative="1" as="geometry" />
        </mxCell>
        <mxCell id="J7t00RlYxUDwokbcdc5y-20" value="meminfo" style="rounded=0;whiteSpace=wrap;html=1;" parent="1" vertex="1">
          <mxGeometry x="480" y="660" width="80" height="30" as="geometry" />
        </mxCell>
        <mxCell id="J7t00RlYxUDwokbcdc5y-31" style="edgeStyle=orthogonalEdgeStyle;rounded=0;orthogonalLoop=1;jettySize=auto;html=1;exitX=0.5;exitY=1;exitDx=0;exitDy=0;entryX=0.5;entryY=0;entryDx=0;entryDy=0;" parent="1" source="J7t00RlYxUDwokbcdc5y-28" target="J7t00RlYxUDwokbcdc5y-30" edge="1">
          <mxGeometry relative="1" as="geometry" />
        </mxCell>
        <mxCell id="J7t00RlYxUDwokbcdc5y-28" value="拼接命令字符串" style="rounded=0;whiteSpace=wrap;html=1;" parent="1" vertex="1">
          <mxGeometry x="80" y="780" width="80" height="30" as="geometry" />
        </mxCell>
        <mxCell id="J7t00RlYxUDwokbcdc5y-34" style="edgeStyle=orthogonalEdgeStyle;rounded=0;orthogonalLoop=1;jettySize=auto;html=1;exitX=0.5;exitY=1;exitDx=0;exitDy=0;entryX=0.5;entryY=0;entryDx=0;entryDy=0;" parent="1" source="J7t00RlYxUDwokbcdc5y-30" target="J7t00RlYxUDwokbcdc5y-33" edge="1">
          <mxGeometry relative="1" as="geometry" />
        </mxCell>
        <mxCell id="J7t00RlYxUDwokbcdc5y-30" value="command.FileDownload()执行字符串命令并返回结果" style="rounded=0;whiteSpace=wrap;html=1;" parent="1" vertex="1">
          <mxGeometry x="45" y="820" width="150" height="40" as="geometry" />
        </mxCell>
        <mxCell id="J7t00RlYxUDwokbcdc5y-35" style="edgeStyle=orthogonalEdgeStyle;rounded=0;orthogonalLoop=1;jettySize=auto;html=1;exitX=0.5;exitY=1;exitDx=0;exitDy=0;entryX=0.5;entryY=0;entryDx=0;entryDy=0;" parent="1" source="J7t00RlYxUDwokbcdc5y-33" target="J7t00RlYxUDwokbcdc5y-36" edge="1">
          <mxGeometry relative="1" as="geometry">
            <mxPoint x="120" y="970" as="targetPoint" />
            <Array as="points">
              <mxPoint x="120" y="950" />
              <mxPoint x="35" y="950" />
            </Array>
          </mxGeometry>
        </mxCell>
        <mxCell id="J7t00RlYxUDwokbcdc5y-47" value="Y" style="edgeLabel;html=1;align=center;verticalAlign=middle;resizable=0;points=[];" parent="J7t00RlYxUDwokbcdc5y-35" vertex="1" connectable="0">
          <mxGeometry x="-0.1478" y="-3" relative="1" as="geometry">
            <mxPoint as="offset" />
          </mxGeometry>
        </mxCell>
        <mxCell id="J7t00RlYxUDwokbcdc5y-37" style="edgeStyle=orthogonalEdgeStyle;rounded=0;orthogonalLoop=1;jettySize=auto;html=1;exitX=1;exitY=0.5;exitDx=0;exitDy=0;" parent="1" source="J7t00RlYxUDwokbcdc5y-33" edge="1">
          <mxGeometry relative="1" as="geometry">
            <mxPoint x="230" y="970" as="targetPoint" />
          </mxGeometry>
        </mxCell>
        <mxCell id="J7t00RlYxUDwokbcdc5y-46" value="N" style="edgeLabel;html=1;align=center;verticalAlign=middle;resizable=0;points=[];" parent="J7t00RlYxUDwokbcdc5y-37" vertex="1" connectable="0">
          <mxGeometry x="-0.5857" y="2" relative="1" as="geometry">
            <mxPoint as="offset" />
          </mxGeometry>
        </mxCell>
        <mxCell id="J7t00RlYxUDwokbcdc5y-33" value="是否下载成功" style="rhombus;whiteSpace=wrap;html=1;" parent="1" vertex="1">
          <mxGeometry x="80" y="870" width="80" height="80" as="geometry" />
        </mxCell>
        <mxCell id="J7t00RlYxUDwokbcdc5y-40" style="edgeStyle=orthogonalEdgeStyle;rounded=0;orthogonalLoop=1;jettySize=auto;html=1;exitX=0.5;exitY=1;exitDx=0;exitDy=0;entryX=0.5;entryY=0;entryDx=0;entryDy=0;" parent="1" source="J7t00RlYxUDwokbcdc5y-36" target="J7t00RlYxUDwokbcdc5y-39" edge="1">
          <mxGeometry relative="1" as="geometry" />
        </mxCell>
        <mxCell id="J7t00RlYxUDwokbcdc5y-36" value="构建t=types.FileDownloadReported结构体,t.result=&quot;success&quot;" style="rounded=0;whiteSpace=wrap;html=1;" parent="1" vertex="1">
          <mxGeometry x="-40" y="970" width="150" height="40" as="geometry" />
        </mxCell>
        <mxCell id="J7t00RlYxUDwokbcdc5y-41" style="edgeStyle=orthogonalEdgeStyle;rounded=0;orthogonalLoop=1;jettySize=auto;html=1;exitX=0.5;exitY=1;exitDx=0;exitDy=0;" parent="1" source="J7t00RlYxUDwokbcdc5y-38" edge="1">
          <mxGeometry relative="1" as="geometry">
            <mxPoint x="120" y="1050" as="targetPoint" />
          </mxGeometry>
        </mxCell>
        <mxCell id="J7t00RlYxUDwokbcdc5y-38" value="构建t=types.FileDownloadReported结构体,t.result=&quot;fail&quot;" style="rounded=0;whiteSpace=wrap;html=1;" parent="1" vertex="1">
          <mxGeometry x="160" y="970" width="150" height="40" as="geometry" />
        </mxCell>
        <mxCell id="J7t00RlYxUDwokbcdc5y-43" style="edgeStyle=orthogonalEdgeStyle;rounded=0;orthogonalLoop=1;jettySize=auto;html=1;exitX=0.5;exitY=1;exitDx=0;exitDy=0;entryX=0.5;entryY=0;entryDx=0;entryDy=0;" parent="1" source="J7t00RlYxUDwokbcdc5y-39" target="J7t00RlYxUDwokbcdc5y-42" edge="1">
          <mxGeometry relative="1" as="geometry" />
        </mxCell>
        <mxCell id="J7t00RlYxUDwokbcdc5y-39" value="使用json将结构体序列化" style="rounded=0;whiteSpace=wrap;html=1;" parent="1" vertex="1">
          <mxGeometry x="80" y="1050" width="80" height="40" as="geometry" />
        </mxCell>
        <mxCell id="J7t00RlYxUDwokbcdc5y-44" style="edgeStyle=orthogonalEdgeStyle;rounded=0;orthogonalLoop=1;jettySize=auto;html=1;exitX=0.5;exitY=1;exitDx=0;exitDy=0;entryX=0;entryY=0.5;entryDx=0;entryDy=0;" parent="1" source="J7t00RlYxUDwokbcdc5y-42" target="J7t00RlYxUDwokbcdc5y-16" edge="1">
          <mxGeometry relative="1" as="geometry">
            <Array as="points">
              <mxPoint x="120" y="1180" />
              <mxPoint x="-70" y="1180" />
              <mxPoint x="-70" y="595" />
            </Array>
          </mxGeometry>
        </mxCell>
        <mxCell id="J7t00RlYxUDwokbcdc5y-42" value="使用helper.publish将结果发布" style="rounded=0;whiteSpace=wrap;html=1;" parent="1" vertex="1">
          <mxGeometry x="80" y="1120" width="80" height="40" as="geometry" />
        </mxCell>
        <mxCell id="J7t00RlYxUDwokbcdc5y-64" style="edgeStyle=orthogonalEdgeStyle;rounded=0;orthogonalLoop=1;jettySize=auto;html=1;exitX=0.5;exitY=1;exitDx=0;exitDy=0;entryX=0.5;entryY=0;entryDx=0;entryDy=0;" parent="1" source="J7t00RlYxUDwokbcdc5y-48" target="J7t00RlYxUDwokbcdc5y-63" edge="1">
          <mxGeometry relative="1" as="geometry" />
        </mxCell>
        <mxCell id="J7t00RlYxUDwokbcdc5y-48" value="modelname&lt;br&gt;获取cpu型号" style="rounded=0;whiteSpace=wrap;html=1;" parent="1" vertex="1">
          <mxGeometry x="229.06" y="830" width="80.94" height="30" as="geometry" />
        </mxCell>
        <mxCell id="J7t00RlYxUDwokbcdc5y-65" style="edgeStyle=orthogonalEdgeStyle;rounded=0;orthogonalLoop=1;jettySize=auto;html=1;exitX=0.5;exitY=1;exitDx=0;exitDy=0;entryX=0.5;entryY=0;entryDx=0;entryDy=0;" parent="1" source="J7t00RlYxUDwokbcdc5y-49" target="J7t00RlYxUDwokbcdc5y-63" edge="1">
          <mxGeometry relative="1" as="geometry" />
        </mxCell>
        <mxCell id="J7t00RlYxUDwokbcdc5y-49" value="cores&lt;br&gt;获取cpu核数" style="rounded=0;whiteSpace=wrap;html=1;" parent="1" vertex="1">
          <mxGeometry x="312.89" y="830" width="80" height="30" as="geometry" />
        </mxCell>
        <mxCell id="J7t00RlYxUDwokbcdc5y-57" style="edgeStyle=orthogonalEdgeStyle;rounded=0;orthogonalLoop=1;jettySize=auto;html=1;exitX=0.5;exitY=1;exitDx=0;exitDy=0;entryX=0.5;entryY=0;entryDx=0;entryDy=0;" parent="1" source="J7t00RlYxUDwokbcdc5y-54" target="J7t00RlYxUDwokbcdc5y-49" edge="1">
          <mxGeometry relative="1" as="geometry" />
        </mxCell>
        <mxCell id="J7t00RlYxUDwokbcdc5y-58" style="edgeStyle=orthogonalEdgeStyle;rounded=0;orthogonalLoop=1;jettySize=auto;html=1;exitX=0.5;exitY=1;exitDx=0;exitDy=0;entryX=0.5;entryY=0;entryDx=0;entryDy=0;" parent="1" source="J7t00RlYxUDwokbcdc5y-54" target="J7t00RlYxUDwokbcdc5y-48" edge="1">
          <mxGeometry relative="1" as="geometry" />
        </mxCell>
        <mxCell id="J7t00RlYxUDwokbcdc5y-61" style="edgeStyle=orthogonalEdgeStyle;rounded=0;orthogonalLoop=1;jettySize=auto;html=1;exitX=0.5;exitY=1;exitDx=0;exitDy=0;entryX=0.5;entryY=0;entryDx=0;entryDy=0;" parent="1" source="J7t00RlYxUDwokbcdc5y-54" target="J7t00RlYxUDwokbcdc5y-60" edge="1">
          <mxGeometry relative="1" as="geometry" />
        </mxCell>
        <mxCell id="J7t00RlYxUDwokbcdc5y-54" value="command.CpuInfo()" style="rounded=0;whiteSpace=wrap;html=1;" parent="1" vertex="1">
          <mxGeometry x="270.78" y="730" width="112.18" height="40" as="geometry" />
        </mxCell>
        <mxCell id="J7t00RlYxUDwokbcdc5y-66" style="edgeStyle=orthogonalEdgeStyle;rounded=0;orthogonalLoop=1;jettySize=auto;html=1;exitX=0.5;exitY=1;exitDx=0;exitDy=0;entryX=0.5;entryY=0;entryDx=0;entryDy=0;" parent="1" source="J7t00RlYxUDwokbcdc5y-60" target="J7t00RlYxUDwokbcdc5y-63" edge="1">
          <mxGeometry relative="1" as="geometry">
            <mxPoint x="350" y="900" as="targetPoint" />
          </mxGeometry>
        </mxCell>
        <mxCell id="J7t00RlYxUDwokbcdc5y-60" value="xxx无效命令" style="rounded=0;whiteSpace=wrap;html=1;" parent="1" vertex="1">
          <mxGeometry x="400" y="830" width="48.75" height="30" as="geometry" />
        </mxCell>
        <mxCell id="J7t00RlYxUDwokbcdc5y-68" style="edgeStyle=orthogonalEdgeStyle;rounded=0;orthogonalLoop=1;jettySize=auto;html=1;exitX=0.5;exitY=1;exitDx=0;exitDy=0;entryX=0.5;entryY=0;entryDx=0;entryDy=0;" parent="1" source="J7t00RlYxUDwokbcdc5y-63" target="J7t00RlYxUDwokbcdc5y-67" edge="1">
          <mxGeometry relative="1" as="geometry" />
        </mxCell>
        <mxCell id="J7t00RlYxUDwokbcdc5y-63" value="return" style="rounded=0;whiteSpace=wrap;html=1;" parent="1" vertex="1">
          <mxGeometry x="325" y="900" width="55.79" height="30" as="geometry" />
        </mxCell>
        <mxCell id="J7t00RlYxUDwokbcdc5y-88" style="edgeStyle=orthogonalEdgeStyle;rounded=0;orthogonalLoop=1;jettySize=auto;html=1;exitX=0.5;exitY=1;exitDx=0;exitDy=0;entryX=1;entryY=0.25;entryDx=0;entryDy=0;" parent="1" source="J7t00RlYxUDwokbcdc5y-67" target="J7t00RlYxUDwokbcdc5y-16" edge="1">
          <mxGeometry relative="1" as="geometry">
            <Array as="points">
              <mxPoint x="362" y="1035" />
              <mxPoint x="770" y="1035" />
              <mxPoint x="770" y="588" />
            </Array>
          </mxGeometry>
        </mxCell>
        <mxCell id="J7t00RlYxUDwokbcdc5y-67" value="使用helper.publish将结果发布" style="rounded=0;whiteSpace=wrap;html=1;" parent="1" vertex="1">
          <mxGeometry x="317.93" y="965" width="88.36" height="50" as="geometry" />
        </mxCell>
        <mxCell id="J7t00RlYxUDwokbcdc5y-75" style="edgeStyle=orthogonalEdgeStyle;rounded=0;orthogonalLoop=1;jettySize=auto;html=1;exitX=0.5;exitY=1;exitDx=0;exitDy=0;entryX=0.5;entryY=0;entryDx=0;entryDy=0;" parent="1" source="J7t00RlYxUDwokbcdc5y-70" target="J7t00RlYxUDwokbcdc5y-72" edge="1">
          <mxGeometry relative="1" as="geometry" />
        </mxCell>
        <mxCell id="J7t00RlYxUDwokbcdc5y-76" style="edgeStyle=orthogonalEdgeStyle;rounded=0;orthogonalLoop=1;jettySize=auto;html=1;exitX=0.5;exitY=1;exitDx=0;exitDy=0;entryX=0.5;entryY=0;entryDx=0;entryDy=0;" parent="1" source="J7t00RlYxUDwokbcdc5y-70" target="J7t00RlYxUDwokbcdc5y-73" edge="1">
          <mxGeometry relative="1" as="geometry" />
        </mxCell>
        <mxCell id="J7t00RlYxUDwokbcdc5y-77" style="edgeStyle=orthogonalEdgeStyle;rounded=0;orthogonalLoop=1;jettySize=auto;html=1;exitX=0.5;exitY=1;exitDx=0;exitDy=0;entryX=0.25;entryY=0;entryDx=0;entryDy=0;" parent="1" source="J7t00RlYxUDwokbcdc5y-70" target="J7t00RlYxUDwokbcdc5y-74" edge="1">
          <mxGeometry relative="1" as="geometry" />
        </mxCell>
        <mxCell id="J7t00RlYxUDwokbcdc5y-79" style="edgeStyle=orthogonalEdgeStyle;rounded=0;orthogonalLoop=1;jettySize=auto;html=1;exitX=0.5;exitY=1;exitDx=0;exitDy=0;entryX=0.5;entryY=0;entryDx=0;entryDy=0;" parent="1" source="J7t00RlYxUDwokbcdc5y-70" target="J7t00RlYxUDwokbcdc5y-78" edge="1">
          <mxGeometry relative="1" as="geometry" />
        </mxCell>
        <mxCell id="J7t00RlYxUDwokbcdc5y-70" value="command.MemInfo()" style="rounded=0;whiteSpace=wrap;html=1;" parent="1" vertex="1">
          <mxGeometry x="463.90999999999997" y="730" width="112.18" height="40" as="geometry" />
        </mxCell>
        <mxCell id="J7t00RlYxUDwokbcdc5y-81" style="edgeStyle=orthogonalEdgeStyle;rounded=0;orthogonalLoop=1;jettySize=auto;html=1;exitX=0.5;exitY=1;exitDx=0;exitDy=0;entryX=0.5;entryY=0;entryDx=0;entryDy=0;" parent="1" source="J7t00RlYxUDwokbcdc5y-72" target="J7t00RlYxUDwokbcdc5y-80" edge="1">
          <mxGeometry relative="1" as="geometry" />
        </mxCell>
        <mxCell id="J7t00RlYxUDwokbcdc5y-72" value="total&lt;br&gt;内存总量" style="rounded=0;whiteSpace=wrap;html=1;" parent="1" vertex="1">
          <mxGeometry x="463.91" y="830" width="56.09" height="30" as="geometry" />
        </mxCell>
        <mxCell id="J7t00RlYxUDwokbcdc5y-82" style="edgeStyle=orthogonalEdgeStyle;rounded=0;orthogonalLoop=1;jettySize=auto;html=1;exitX=0.5;exitY=1;exitDx=0;exitDy=0;entryX=0.358;entryY=0;entryDx=0;entryDy=0;entryPerimeter=0;" parent="1" source="J7t00RlYxUDwokbcdc5y-73" target="J7t00RlYxUDwokbcdc5y-80" edge="1">
          <mxGeometry relative="1" as="geometry">
            <mxPoint x="600" y="900" as="targetPoint" />
            <Array as="points">
              <mxPoint x="565" y="880" />
              <mxPoint x="598" y="880" />
              <mxPoint x="598" y="900" />
            </Array>
          </mxGeometry>
        </mxCell>
        <mxCell id="J7t00RlYxUDwokbcdc5y-73" value="free&lt;br&gt;内存空闲量" style="rounded=0;whiteSpace=wrap;html=1;" parent="1" vertex="1">
          <mxGeometry x="530" y="830" width="70" height="30" as="geometry" />
        </mxCell>
        <mxCell id="J7t00RlYxUDwokbcdc5y-83" style="edgeStyle=orthogonalEdgeStyle;rounded=0;orthogonalLoop=1;jettySize=auto;html=1;exitX=0.5;exitY=1;exitDx=0;exitDy=0;entryX=0.5;entryY=0;entryDx=0;entryDy=0;" parent="1" source="J7t00RlYxUDwokbcdc5y-74" target="J7t00RlYxUDwokbcdc5y-80" edge="1">
          <mxGeometry relative="1" as="geometry" />
        </mxCell>
        <mxCell id="J7t00RlYxUDwokbcdc5y-74" value="used&lt;br&gt;内存使用量" style="rounded=0;whiteSpace=wrap;html=1;" parent="1" vertex="1">
          <mxGeometry x="610" y="830" width="70" height="30" as="geometry" />
        </mxCell>
        <mxCell id="J7t00RlYxUDwokbcdc5y-84" style="edgeStyle=orthogonalEdgeStyle;rounded=0;orthogonalLoop=1;jettySize=auto;html=1;exitX=0.5;exitY=1;exitDx=0;exitDy=0;entryX=0.5;entryY=0;entryDx=0;entryDy=0;" parent="1" source="J7t00RlYxUDwokbcdc5y-78" target="J7t00RlYxUDwokbcdc5y-80" edge="1">
          <mxGeometry relative="1" as="geometry" />
        </mxCell>
        <mxCell id="J7t00RlYxUDwokbcdc5y-78" value="xxx无效命令" style="rounded=0;whiteSpace=wrap;html=1;" parent="1" vertex="1">
          <mxGeometry x="690" y="830" width="48.75" height="30" as="geometry" />
        </mxCell>
        <mxCell id="J7t00RlYxUDwokbcdc5y-86" style="edgeStyle=orthogonalEdgeStyle;rounded=0;orthogonalLoop=1;jettySize=auto;html=1;exitX=0.5;exitY=1;exitDx=0;exitDy=0;entryX=0.5;entryY=0;entryDx=0;entryDy=0;" parent="1" source="J7t00RlYxUDwokbcdc5y-80" target="J7t00RlYxUDwokbcdc5y-85" edge="1">
          <mxGeometry relative="1" as="geometry" />
        </mxCell>
        <mxCell id="J7t00RlYxUDwokbcdc5y-80" value="return" style="rounded=0;whiteSpace=wrap;html=1;" parent="1" vertex="1">
          <mxGeometry x="570" y="900" width="55.79" height="30" as="geometry" />
        </mxCell>
        <mxCell id="J7t00RlYxUDwokbcdc5y-87" style="edgeStyle=orthogonalEdgeStyle;rounded=0;orthogonalLoop=1;jettySize=auto;html=1;exitX=0.5;exitY=1;exitDx=0;exitDy=0;entryX=1;entryY=0.25;entryDx=0;entryDy=0;" parent="1" source="J7t00RlYxUDwokbcdc5y-85" target="J7t00RlYxUDwokbcdc5y-16" edge="1">
          <mxGeometry relative="1" as="geometry">
            <Array as="points">
              <mxPoint x="598" y="1035" />
              <mxPoint x="770" y="1035" />
              <mxPoint x="770" y="588" />
            </Array>
          </mxGeometry>
        </mxCell>
        <mxCell id="J7t00RlYxUDwokbcdc5y-85" value="使用helper.publish将结果发布" style="rounded=0;whiteSpace=wrap;html=1;" parent="1" vertex="1">
          <mxGeometry x="553.72" y="965" width="88.36" height="50" as="geometry" />
        </mxCell>
        <mxCell id="J7t00RlYxUDwokbcdc5y-97" value="将消息解析为types.FileDownloadDesired结构体" style="rounded=0;whiteSpace=wrap;html=1;" parent="1" vertex="1">
          <mxGeometry x="45" y="720" width="155" height="40" as="geometry" />
        </mxCell>
        <mxCell id="J7t00RlYxUDwokbcdc5y-100" style="edgeStyle=orthogonalEdgeStyle;rounded=0;orthogonalLoop=1;jettySize=auto;html=1;exitX=0.5;exitY=1;exitDx=0;exitDy=0;entryX=0.5;entryY=0;entryDx=0;entryDy=0;entryPerimeter=0;" parent="1" source="J7t00RlYxUDwokbcdc5y-101" target="J7t00RlYxUDwokbcdc5y-113" edge="1">
          <mxGeometry relative="1" as="geometry" />
        </mxCell>
        <mxCell id="J7t00RlYxUDwokbcdc5y-101" value="controller" style="rounded=0;whiteSpace=wrap;html=1;" parent="1" vertex="1">
          <mxGeometry x="90" y="50" width="80" height="35" as="geometry" />
        </mxCell>
        <mxCell id="J7t00RlYxUDwokbcdc5y-102" style="edgeStyle=orthogonalEdgeStyle;rounded=0;orthogonalLoop=1;jettySize=auto;html=1;exitX=0;exitY=0.5;exitDx=0;exitDy=0;entryX=1;entryY=0.5;entryDx=0;entryDy=0;" parent="1" source="J7t00RlYxUDwokbcdc5y-104" target="J7t00RlYxUDwokbcdc5y-101" edge="1">
          <mxGeometry relative="1" as="geometry" />
        </mxCell>
        <mxCell id="J7t00RlYxUDwokbcdc5y-103" style="edgeStyle=orthogonalEdgeStyle;rounded=0;orthogonalLoop=1;jettySize=auto;html=1;exitX=0.75;exitY=1;exitDx=0;exitDy=0;entryX=1;entryY=1;entryDx=0;entryDy=-15;entryPerimeter=0;" parent="1" source="J7t00RlYxUDwokbcdc5y-104" target="J7t00RlYxUDwokbcdc5y-113" edge="1">
          <mxGeometry relative="1" as="geometry" />
        </mxCell>
        <mxCell id="J7t00RlYxUDwokbcdc5y-104" value="watcher" style="rounded=0;whiteSpace=wrap;html=1;" parent="1" vertex="1">
          <mxGeometry x="210" y="50" width="80" height="35" as="geometry" />
        </mxCell>
        <mxCell id="J7t00RlYxUDwokbcdc5y-105" style="edgeStyle=orthogonalEdgeStyle;rounded=0;orthogonalLoop=1;jettySize=auto;html=1;exitX=0.5;exitY=1;exitDx=0;exitDy=0;" parent="1" source="J7t00RlYxUDwokbcdc5y-107" edge="1">
          <mxGeometry relative="1" as="geometry">
            <mxPoint x="250" y="50" as="targetPoint" />
          </mxGeometry>
        </mxCell>
        <mxCell id="J7t00RlYxUDwokbcdc5y-106" style="edgeStyle=orthogonalEdgeStyle;rounded=0;orthogonalLoop=1;jettySize=auto;html=1;exitX=0.5;exitY=1;exitDx=0;exitDy=0;" parent="1" source="J7t00RlYxUDwokbcdc5y-107" edge="1">
          <mxGeometry relative="1" as="geometry">
            <mxPoint x="130" y="50" as="targetPoint" />
          </mxGeometry>
        </mxCell>
        <mxCell id="J7t00RlYxUDwokbcdc5y-107" value="action" style="rounded=0;whiteSpace=wrap;html=1;" parent="1" vertex="1">
          <mxGeometry x="160" y="-25" width="80" height="35" as="geometry" />
        </mxCell>
        <mxCell id="J7t00RlYxUDwokbcdc5y-108" style="edgeStyle=orthogonalEdgeStyle;rounded=0;orthogonalLoop=1;jettySize=auto;html=1;exitX=0.5;exitY=1;exitDx=0;exitDy=0;" parent="1" source="J7t00RlYxUDwokbcdc5y-109" target="J7t00RlYxUDwokbcdc5y-101" edge="1">
          <mxGeometry relative="1" as="geometry" />
        </mxCell>
        <mxCell id="J7t00RlYxUDwokbcdc5y-109" value="types" style="rounded=0;whiteSpace=wrap;html=1;" parent="1" vertex="1">
          <mxGeometry x="40" y="-10" width="80" height="20" as="geometry" />
        </mxCell>
        <mxCell id="J7t00RlYxUDwokbcdc5y-110" style="edgeStyle=orthogonalEdgeStyle;rounded=0;orthogonalLoop=1;jettySize=auto;html=1;exitX=0.5;exitY=1;exitDx=0;exitDy=0;entryX=0.5;entryY=0;entryDx=0;entryDy=0;" parent="1" source="J7t00RlYxUDwokbcdc5y-112" target="J7t00RlYxUDwokbcdc5y-104" edge="1">
          <mxGeometry relative="1" as="geometry" />
        </mxCell>
        <mxCell id="J7t00RlYxUDwokbcdc5y-111" style="edgeStyle=orthogonalEdgeStyle;rounded=0;orthogonalLoop=1;jettySize=auto;html=1;exitX=0.5;exitY=1;exitDx=0;exitDy=0;entryX=0.5;entryY=0;entryDx=0;entryDy=0;" parent="1" source="J7t00RlYxUDwokbcdc5y-112" target="J7t00RlYxUDwokbcdc5y-101" edge="1">
          <mxGeometry relative="1" as="geometry" />
        </mxCell>
        <mxCell id="J7t00RlYxUDwokbcdc5y-112" value="helper" style="rounded=0;whiteSpace=wrap;html=1;" parent="1" vertex="1">
          <mxGeometry x="278.13" y="-10" width="80" height="20" as="geometry" />
        </mxCell>
        <mxCell id="J7t00RlYxUDwokbcdc5y-113" value="" style="shape=cylinder3;whiteSpace=wrap;html=1;boundedLbl=1;backgroundOutline=1;size=15;" parent="1" vertex="1">
          <mxGeometry x="110" y="125" width="40" height="50" as="geometry" />
        </mxCell>
        <mxCell id="J7t00RlYxUDwokbcdc5y-114" value="mqtt" style="text;html=1;align=center;verticalAlign=middle;resizable=0;points=[];autosize=1;" parent="1" vertex="1">
          <mxGeometry x="110" y="170" width="40" height="20" as="geometry" />
        </mxCell>
        <mxCell id="J7t00RlYxUDwokbcdc5y-208" style="edgeStyle=orthogonalEdgeStyle;rounded=0;orthogonalLoop=1;jettySize=auto;html=1;exitX=0.5;exitY=1;exitDx=0;exitDy=0;" parent="1" source="J7t00RlYxUDwokbcdc5y-209" edge="1">
          <mxGeometry relative="1" as="geometry">
            <mxPoint x="-485" y="230" as="targetPoint" />
          </mxGeometry>
        </mxCell>
        <mxCell id="J7t00RlYxUDwokbcdc5y-209" value="controller" style="rounded=0;whiteSpace=wrap;html=1;" parent="1" vertex="1">
          <mxGeometry x="-537.5" y="160" width="105" height="40" as="geometry" />
        </mxCell>
        <mxCell id="J7t00RlYxUDwokbcdc5y-210" style="edgeStyle=orthogonalEdgeStyle;rounded=0;orthogonalLoop=1;jettySize=auto;html=1;exitX=0.5;exitY=1;exitDx=0;exitDy=0;entryX=0.5;entryY=0;entryDx=0;entryDy=0;" parent="1" source="J7t00RlYxUDwokbcdc5y-213" target="J7t00RlYxUDwokbcdc5y-220" edge="1">
          <mxGeometry relative="1" as="geometry" />
        </mxCell>
        <mxCell id="J7t00RlYxUDwokbcdc5y-211" style="edgeStyle=orthogonalEdgeStyle;rounded=0;orthogonalLoop=1;jettySize=auto;html=1;exitX=0.5;exitY=1;exitDx=0;exitDy=0;" parent="1" source="J7t00RlYxUDwokbcdc5y-213" target="J7t00RlYxUDwokbcdc5y-236" edge="1">
          <mxGeometry relative="1" as="geometry" />
        </mxCell>
        <mxCell id="J7t00RlYxUDwokbcdc5y-212" style="edgeStyle=orthogonalEdgeStyle;rounded=0;orthogonalLoop=1;jettySize=auto;html=1;exitX=0.5;exitY=1;exitDx=0;exitDy=0;" parent="1" source="J7t00RlYxUDwokbcdc5y-213" target="J7t00RlYxUDwokbcdc5y-252" edge="1">
          <mxGeometry relative="1" as="geometry" />
        </mxCell>
        <mxCell id="J7t00RlYxUDwokbcdc5y-213" value="调用helper模块初始化client，订阅主题" style="rounded=0;whiteSpace=wrap;html=1;" parent="1" vertex="1">
          <mxGeometry x="-541.87" y="230" width="113.75" height="50" as="geometry" />
        </mxCell>
        <mxCell id="J7t00RlYxUDwokbcdc5y-214" style="edgeStyle=orthogonalEdgeStyle;rounded=0;orthogonalLoop=1;jettySize=auto;html=1;exitX=0;exitY=0.5;exitDx=0;exitDy=0;" parent="1" source="J7t00RlYxUDwokbcdc5y-215" target="J7t00RlYxUDwokbcdc5y-217" edge="1">
          <mxGeometry relative="1" as="geometry" />
        </mxCell>
        <mxCell id="J7t00RlYxUDwokbcdc5y-215" value="config读取config.yaml和configprofile.json文件内容" style="rounded=0;whiteSpace=wrap;html=1;" parent="1" vertex="1">
          <mxGeometry x="-360" y="85" width="120" height="60" as="geometry" />
        </mxCell>
        <mxCell id="J7t00RlYxUDwokbcdc5y-216" style="edgeStyle=orthogonalEdgeStyle;rounded=0;orthogonalLoop=1;jettySize=auto;html=1;exitX=0.5;exitY=1;exitDx=0;exitDy=0;" parent="1" source="J7t00RlYxUDwokbcdc5y-217" target="J7t00RlYxUDwokbcdc5y-209" edge="1">
          <mxGeometry relative="1" as="geometry" />
        </mxCell>
        <mxCell id="J7t00RlYxUDwokbcdc5y-217" value="main.go" style="rounded=0;whiteSpace=wrap;html=1;" parent="1" vertex="1">
          <mxGeometry x="-520" y="100" width="70" height="30" as="geometry" />
        </mxCell>
        <mxCell id="J7t00RlYxUDwokbcdc5y-218" style="edgeStyle=orthogonalEdgeStyle;rounded=0;orthogonalLoop=1;jettySize=auto;html=1;exitX=0.5;exitY=1;exitDx=0;exitDy=0;entryX=0.5;entryY=0;entryDx=0;entryDy=0;" parent="1" source="J7t00RlYxUDwokbcdc5y-220" target="J7t00RlYxUDwokbcdc5y-222" edge="1">
          <mxGeometry relative="1" as="geometry" />
        </mxCell>
        <mxCell id="J7t00RlYxUDwokbcdc5y-219" style="edgeStyle=orthogonalEdgeStyle;rounded=0;orthogonalLoop=1;jettySize=auto;html=1;exitX=0.5;exitY=1;exitDx=0;exitDy=0;" parent="1" source="J7t00RlYxUDwokbcdc5y-220" target="J7t00RlYxUDwokbcdc5y-224" edge="1">
          <mxGeometry relative="1" as="geometry">
            <Array as="points">
              <mxPoint x="-256" y="370" />
              <mxPoint x="-186" y="370" />
            </Array>
          </mxGeometry>
        </mxCell>
        <mxCell id="J7t00RlYxUDwokbcdc5y-220" value="watcher" style="rounded=0;whiteSpace=wrap;html=1;" parent="1" vertex="1">
          <mxGeometry x="-291.12" y="320" width="70" height="30" as="geometry" />
        </mxCell>
        <mxCell id="J7t00RlYxUDwokbcdc5y-221" style="edgeStyle=orthogonalEdgeStyle;rounded=0;orthogonalLoop=1;jettySize=auto;html=1;exitX=0.5;exitY=1;exitDx=0;exitDy=0;" parent="1" source="J7t00RlYxUDwokbcdc5y-222" target="J7t00RlYxUDwokbcdc5y-226" edge="1">
          <mxGeometry relative="1" as="geometry" />
        </mxCell>
        <mxCell id="J7t00RlYxUDwokbcdc5y-222" value="cpuinfo" style="rounded=0;whiteSpace=wrap;html=1;" parent="1" vertex="1">
          <mxGeometry x="-343" y="380" width="70" height="30" as="geometry" />
        </mxCell>
        <mxCell id="J7t00RlYxUDwokbcdc5y-223" style="edgeStyle=orthogonalEdgeStyle;rounded=0;orthogonalLoop=1;jettySize=auto;html=1;exitX=0.5;exitY=1;exitDx=0;exitDy=0;" parent="1" source="J7t00RlYxUDwokbcdc5y-224" target="J7t00RlYxUDwokbcdc5y-228" edge="1">
          <mxGeometry relative="1" as="geometry" />
        </mxCell>
        <mxCell id="J7t00RlYxUDwokbcdc5y-224" value="meminfo" style="rounded=0;whiteSpace=wrap;html=1;" parent="1" vertex="1">
          <mxGeometry x="-221.12" y="380" width="70" height="30" as="geometry" />
        </mxCell>
        <mxCell id="J7t00RlYxUDwokbcdc5y-225" style="edgeStyle=orthogonalEdgeStyle;rounded=0;orthogonalLoop=1;jettySize=auto;html=1;exitX=0.5;exitY=1;exitDx=0;exitDy=0;entryX=0.5;entryY=0;entryDx=0;entryDy=0;" parent="1" source="J7t00RlYxUDwokbcdc5y-226" target="J7t00RlYxUDwokbcdc5y-230" edge="1">
          <mxGeometry relative="1" as="geometry" />
        </mxCell>
        <mxCell id="J7t00RlYxUDwokbcdc5y-226" value="action.CpuInfo()" style="rounded=0;whiteSpace=wrap;html=1;" parent="1" vertex="1">
          <mxGeometry x="-358" y="440" width="100" height="40" as="geometry" />
        </mxCell>
        <mxCell id="J7t00RlYxUDwokbcdc5y-227" style="edgeStyle=orthogonalEdgeStyle;rounded=0;orthogonalLoop=1;jettySize=auto;html=1;exitX=0.5;exitY=1;exitDx=0;exitDy=0;entryX=0.5;entryY=0;entryDx=0;entryDy=0;" parent="1" source="J7t00RlYxUDwokbcdc5y-228" target="J7t00RlYxUDwokbcdc5y-233" edge="1">
          <mxGeometry relative="1" as="geometry" />
        </mxCell>
        <mxCell id="J7t00RlYxUDwokbcdc5y-228" value="action.MemInfo()" style="rounded=0;whiteSpace=wrap;html=1;" parent="1" vertex="1">
          <mxGeometry x="-236.12" y="440" width="100" height="40" as="geometry" />
        </mxCell>
        <mxCell id="J7t00RlYxUDwokbcdc5y-229" style="edgeStyle=orthogonalEdgeStyle;rounded=0;orthogonalLoop=1;jettySize=auto;html=1;exitX=0.5;exitY=1;exitDx=0;exitDy=0;" parent="1" source="J7t00RlYxUDwokbcdc5y-230" edge="1">
          <mxGeometry relative="1" as="geometry">
            <mxPoint x="-308" y="420" as="targetPoint" />
            <Array as="points">
              <mxPoint x="-308" y="595" />
              <mxPoint x="-380" y="595" />
              <mxPoint x="-380" y="420" />
            </Array>
          </mxGeometry>
        </mxCell>
        <mxCell id="J7t00RlYxUDwokbcdc5y-230" value="构建对应结构体并序列化，调用helper.publish将结果发布" style="rounded=0;whiteSpace=wrap;html=1;" parent="1" vertex="1">
          <mxGeometry x="-363.25" y="500" width="110.5" height="65" as="geometry" />
        </mxCell>
        <mxCell id="J7t00RlYxUDwokbcdc5y-231" value="定时" style="text;html=1;align=center;verticalAlign=middle;resizable=0;points=[];autosize=1;" parent="1" vertex="1">
          <mxGeometry x="-363.25" y="570" width="40" height="20" as="geometry" />
        </mxCell>
        <mxCell id="J7t00RlYxUDwokbcdc5y-232" style="edgeStyle=orthogonalEdgeStyle;rounded=0;orthogonalLoop=1;jettySize=auto;html=1;exitX=0.5;exitY=1;exitDx=0;exitDy=0;" parent="1" source="J7t00RlYxUDwokbcdc5y-233" edge="1">
          <mxGeometry relative="1" as="geometry">
            <mxPoint x="-184" y="420" as="targetPoint" />
            <Array as="points">
              <mxPoint x="-184" y="555" />
              <mxPoint x="-184" y="595" />
              <mxPoint x="-93" y="595" />
              <mxPoint x="-93" y="420" />
            </Array>
          </mxGeometry>
        </mxCell>
        <mxCell id="J7t00RlYxUDwokbcdc5y-233" value="构建对应结构体并序列化，调用helper.publish将结果发布" style="rounded=0;whiteSpace=wrap;html=1;" parent="1" vertex="1">
          <mxGeometry x="-240" y="500" width="110" height="65" as="geometry" />
        </mxCell>
        <mxCell id="J7t00RlYxUDwokbcdc5y-234" value="定时" style="text;html=1;align=center;verticalAlign=middle;resizable=0;points=[];autosize=1;" parent="1" vertex="1">
          <mxGeometry x="-160" y="575" width="40" height="20" as="geometry" />
        </mxCell>
        <mxCell id="J7t00RlYxUDwokbcdc5y-235" style="edgeStyle=orthogonalEdgeStyle;rounded=0;orthogonalLoop=1;jettySize=auto;html=1;exitX=0.5;exitY=1;exitDx=0;exitDy=0;" parent="1" source="J7t00RlYxUDwokbcdc5y-236" target="J7t00RlYxUDwokbcdc5y-238" edge="1">
          <mxGeometry relative="1" as="geometry" />
        </mxCell>
        <mxCell id="J7t00RlYxUDwokbcdc5y-236" value="信息下发触发回调函数" style="rounded=0;whiteSpace=wrap;html=1;" parent="1" vertex="1">
          <mxGeometry x="-780" y="320" width="70" height="30" as="geometry" />
        </mxCell>
        <mxCell id="J7t00RlYxUDwokbcdc5y-237" value="" style="edgeStyle=orthogonalEdgeStyle;rounded=0;orthogonalLoop=1;jettySize=auto;html=1;" parent="1" source="J7t00RlYxUDwokbcdc5y-238" target="J7t00RlYxUDwokbcdc5y-240" edge="1">
          <mxGeometry relative="1" as="geometry" />
        </mxCell>
        <mxCell id="J7t00RlYxUDwokbcdc5y-238" value="filedownload" style="rounded=0;whiteSpace=wrap;html=1;" parent="1" vertex="1">
          <mxGeometry x="-780" y="390" width="70" height="30" as="geometry" />
        </mxCell>
        <mxCell id="J7t00RlYxUDwokbcdc5y-239" style="edgeStyle=orthogonalEdgeStyle;rounded=0;orthogonalLoop=1;jettySize=auto;html=1;exitX=0.5;exitY=1;exitDx=0;exitDy=0;" parent="1" source="J7t00RlYxUDwokbcdc5y-240" target="J7t00RlYxUDwokbcdc5y-241" edge="1">
          <mxGeometry relative="1" as="geometry" />
        </mxCell>
        <mxCell id="J7t00RlYxUDwokbcdc5y-240" value="将消息解析为t=types.FileDownloadDesired结构体" style="rounded=0;whiteSpace=wrap;html=1;" parent="1" vertex="1">
          <mxGeometry x="-840" y="440" width="190" height="50" as="geometry" />
        </mxCell>
        <mxCell id="J7t00RlYxUDwokbcdc5y-241" value="go func(){types.FileDownloadChannel&amp;lt;-t}" style="rounded=0;whiteSpace=wrap;html=1;" parent="1" vertex="1">
          <mxGeometry x="-840" y="525" width="190" height="75" as="geometry" />
        </mxCell>
        <mxCell id="J7t00RlYxUDwokbcdc5y-242" style="edgeStyle=orthogonalEdgeStyle;rounded=0;orthogonalLoop=1;jettySize=auto;html=1;exitX=0.5;exitY=1;exitDx=0;exitDy=0;entryX=0.5;entryY=0;entryDx=0;entryDy=0;" parent="1" source="J7t00RlYxUDwokbcdc5y-246" target="J7t00RlYxUDwokbcdc5y-248" edge="1">
          <mxGeometry relative="1" as="geometry" />
        </mxCell>
        <mxCell id="J7t00RlYxUDwokbcdc5y-243" value="Y" style="edgeLabel;html=1;align=center;verticalAlign=middle;resizable=0;points=[];" parent="J7t00RlYxUDwokbcdc5y-242" vertex="1" connectable="0">
          <mxGeometry x="-0.36" y="3" relative="1" as="geometry">
            <mxPoint as="offset" />
          </mxGeometry>
        </mxCell>
        <mxCell id="J7t00RlYxUDwokbcdc5y-244" style="edgeStyle=orthogonalEdgeStyle;rounded=0;orthogonalLoop=1;jettySize=auto;html=1;exitX=1;exitY=0.5;exitDx=0;exitDy=0;" parent="1" source="J7t00RlYxUDwokbcdc5y-246" target="J7t00RlYxUDwokbcdc5y-250" edge="1">
          <mxGeometry relative="1" as="geometry" />
        </mxCell>
        <mxCell id="J7t00RlYxUDwokbcdc5y-245" value="N" style="edgeLabel;html=1;align=center;verticalAlign=middle;resizable=0;points=[];" parent="J7t00RlYxUDwokbcdc5y-244" vertex="1" connectable="0">
          <mxGeometry x="-0.35" y="-1" relative="1" as="geometry">
            <mxPoint as="offset" />
          </mxGeometry>
        </mxCell>
        <mxCell id="J7t00RlYxUDwokbcdc5y-246" value="检测下载对象中目标路径是否存在" style="rhombus;whiteSpace=wrap;html=1;" parent="1" vertex="1">
          <mxGeometry x="-528" y="575" width="60" height="70" as="geometry" />
        </mxCell>
        <mxCell id="J7t00RlYxUDwokbcdc5y-247" style="edgeStyle=orthogonalEdgeStyle;rounded=0;orthogonalLoop=1;jettySize=auto;html=1;exitX=0.5;exitY=1;exitDx=0;exitDy=0;" parent="1" source="J7t00RlYxUDwokbcdc5y-248" target="J7t00RlYxUDwokbcdc5y-256" edge="1">
          <mxGeometry relative="1" as="geometry" />
        </mxCell>
        <mxCell id="J7t00RlYxUDwokbcdc5y-248" value="调用action的下载函数开始下载" style="rounded=0;whiteSpace=wrap;html=1;" parent="1" vertex="1">
          <mxGeometry x="-670" y="685" width="80" height="40" as="geometry" />
        </mxCell>
        <mxCell id="J7t00RlYxUDwokbcdc5y-249" style="edgeStyle=orthogonalEdgeStyle;rounded=0;orthogonalLoop=1;jettySize=auto;html=1;exitX=0.5;exitY=1;exitDx=0;exitDy=0;entryX=0.5;entryY=0;entryDx=0;entryDy=0;" parent="1" source="J7t00RlYxUDwokbcdc5y-250" edge="1">
          <mxGeometry relative="1" as="geometry">
            <mxPoint x="-363" y="740" as="targetPoint" />
          </mxGeometry>
        </mxCell>
        <mxCell id="J7t00RlYxUDwokbcdc5y-250" value="返回路径不能存在信息" style="rounded=0;whiteSpace=wrap;html=1;" parent="1" vertex="1">
          <mxGeometry x="-453" y="675" width="100" height="30" as="geometry" />
        </mxCell>
        <mxCell id="J7t00RlYxUDwokbcdc5y-251" style="edgeStyle=orthogonalEdgeStyle;rounded=0;orthogonalLoop=1;jettySize=auto;html=1;exitX=0.5;exitY=1;exitDx=0;exitDy=0;entryX=0.5;entryY=0;entryDx=0;entryDy=0;" parent="1" source="J7t00RlYxUDwokbcdc5y-252" target="J7t00RlYxUDwokbcdc5y-254" edge="1">
          <mxGeometry relative="1" as="geometry" />
        </mxCell>
        <mxCell id="J7t00RlYxUDwokbcdc5y-252" value="开启FileDownload子线程" style="rounded=0;whiteSpace=wrap;html=1;" parent="1" vertex="1">
          <mxGeometry x="-552.5" y="340" width="120" height="50" as="geometry" />
        </mxCell>
        <mxCell id="J7t00RlYxUDwokbcdc5y-253" style="edgeStyle=orthogonalEdgeStyle;rounded=0;orthogonalLoop=1;jettySize=auto;html=1;exitX=0.5;exitY=1;exitDx=0;exitDy=0;entryX=0.5;entryY=0;entryDx=0;entryDy=0;" parent="1" source="J7t00RlYxUDwokbcdc5y-254" target="J7t00RlYxUDwokbcdc5y-246" edge="1">
          <mxGeometry relative="1" as="geometry" />
        </mxCell>
        <mxCell id="J7t00RlYxUDwokbcdc5y-254" value="从types.FileDownloadChannel中获取下载对象" style="rounded=0;whiteSpace=wrap;html=1;" parent="1" vertex="1">
          <mxGeometry x="-573" y="425" width="150" height="100" as="geometry" />
        </mxCell>
        <mxCell id="J7t00RlYxUDwokbcdc5y-255" style="edgeStyle=orthogonalEdgeStyle;rounded=0;orthogonalLoop=1;jettySize=auto;html=1;exitX=0.5;exitY=1;exitDx=0;exitDy=0;entryX=0.5;entryY=0;entryDx=0;entryDy=0;" parent="1" source="J7t00RlYxUDwokbcdc5y-256" target="J7t00RlYxUDwokbcdc5y-261" edge="1">
          <mxGeometry relative="1" as="geometry" />
        </mxCell>
        <mxCell id="J7t00RlYxUDwokbcdc5y-256" value="构建t=types.FileDownloadReported结构体，t.result=&quot;downloading&quot;,将结果序列化，并发布" style="rounded=0;whiteSpace=wrap;html=1;" parent="1" vertex="1">
          <mxGeometry x="-725" y="740" width="180" height="60" as="geometry" />
        </mxCell>
        <mxCell id="J7t00RlYxUDwokbcdc5y-257" style="edgeStyle=orthogonalEdgeStyle;rounded=0;orthogonalLoop=1;jettySize=auto;html=1;exitX=0;exitY=0.5;exitDx=0;exitDy=0;entryX=0.5;entryY=0;entryDx=0;entryDy=0;" parent="1" source="J7t00RlYxUDwokbcdc5y-261" target="J7t00RlYxUDwokbcdc5y-262" edge="1">
          <mxGeometry relative="1" as="geometry" />
        </mxCell>
        <mxCell id="J7t00RlYxUDwokbcdc5y-258" value="Y" style="edgeLabel;html=1;align=center;verticalAlign=middle;resizable=0;points=[];" parent="J7t00RlYxUDwokbcdc5y-257" vertex="1" connectable="0">
          <mxGeometry x="-0.2774" y="-1" relative="1" as="geometry">
            <mxPoint as="offset" />
          </mxGeometry>
        </mxCell>
        <mxCell id="J7t00RlYxUDwokbcdc5y-259" style="edgeStyle=orthogonalEdgeStyle;rounded=0;orthogonalLoop=1;jettySize=auto;html=1;exitX=1;exitY=0.5;exitDx=0;exitDy=0;entryX=0.5;entryY=0;entryDx=0;entryDy=0;" parent="1" source="J7t00RlYxUDwokbcdc5y-261" target="J7t00RlYxUDwokbcdc5y-263" edge="1">
          <mxGeometry relative="1" as="geometry" />
        </mxCell>
        <mxCell id="J7t00RlYxUDwokbcdc5y-260" value="N" style="edgeLabel;html=1;align=center;verticalAlign=middle;resizable=0;points=[];" parent="J7t00RlYxUDwokbcdc5y-259" vertex="1" connectable="0">
          <mxGeometry x="-0.6449" y="-2" relative="1" as="geometry">
            <mxPoint as="offset" />
          </mxGeometry>
        </mxCell>
        <mxCell id="J7t00RlYxUDwokbcdc5y-261" value="下载是否成功" style="rhombus;whiteSpace=wrap;html=1;" parent="1" vertex="1">
          <mxGeometry x="-670" y="840" width="70" height="50" as="geometry" />
        </mxCell>
        <mxCell id="J7t00RlYxUDwokbcdc5y-262" value="构建t=types.FileDownloadReported结构体，t.result=&quot;success&quot;,将结果序列化，并发布" style="rounded=0;whiteSpace=wrap;html=1;" parent="1" vertex="1">
          <mxGeometry x="-850" y="930" width="180" height="60" as="geometry" />
        </mxCell>
        <mxCell id="J7t00RlYxUDwokbcdc5y-263" value="构建t=types.FileDownloadReported结构体，t.result=&quot;fail&quot;,将结果序列化，并发布" style="rounded=0;whiteSpace=wrap;html=1;" parent="1" vertex="1">
          <mxGeometry x="-633" y="930" width="180" height="60" as="geometry" />
        </mxCell>
        <mxCell id="J7t00RlYxUDwokbcdc5y-264" value="构建t=types.FileDownloadReported结构体，t.result=&quot;targeterror&quot;,将结果序列化，并发布" style="rounded=0;whiteSpace=wrap;html=1;" parent="1" vertex="1">
          <mxGeometry x="-450" y="740" width="180" height="60" as="geometry" />
        </mxCell>
        <mxCell id="J7t00RlYxUDwokbcdc5y-265" style="edgeStyle=orthogonalEdgeStyle;rounded=0;orthogonalLoop=1;jettySize=auto;html=1;exitX=0.5;exitY=1;exitDx=0;exitDy=0;entryX=0.5;entryY=0;entryDx=0;entryDy=0;" parent="1" source="J7t00RlYxUDwokbcdc5y-266" target="J7t00RlYxUDwokbcdc5y-274" edge="1">
          <mxGeometry relative="1" as="geometry" />
        </mxCell>
        <mxCell id="J7t00RlYxUDwokbcdc5y-266" value="controller" style="rounded=0;whiteSpace=wrap;html=1;" parent="1" vertex="1">
          <mxGeometry x="355.06" y="1170" width="102" height="30" as="geometry" />
        </mxCell>
        <mxCell id="J7t00RlYxUDwokbcdc5y-267" style="edgeStyle=orthogonalEdgeStyle;rounded=0;orthogonalLoop=1;jettySize=auto;html=1;exitX=0.5;exitY=1;exitDx=0;exitDy=0;entryX=0.5;entryY=0;entryDx=0;entryDy=0;" parent="1" source="J7t00RlYxUDwokbcdc5y-268" target="J7t00RlYxUDwokbcdc5y-266" edge="1">
          <mxGeometry relative="1" as="geometry" />
        </mxCell>
        <mxCell id="J7t00RlYxUDwokbcdc5y-268" value="main.go" style="rounded=0;whiteSpace=wrap;html=1;" parent="1" vertex="1">
          <mxGeometry x="369.56" y="1120" width="71" height="20" as="geometry" />
        </mxCell>
        <mxCell id="J7t00RlYxUDwokbcdc5y-269" style="edgeStyle=orthogonalEdgeStyle;rounded=0;orthogonalLoop=1;jettySize=auto;html=1;exitX=0;exitY=0.5;exitDx=0;exitDy=0;entryX=1;entryY=0.5;entryDx=0;entryDy=0;" parent="1" source="J7t00RlYxUDwokbcdc5y-270" target="J7t00RlYxUDwokbcdc5y-268" edge="1">
          <mxGeometry relative="1" as="geometry" />
        </mxCell>
        <mxCell id="J7t00RlYxUDwokbcdc5y-270" value="config" style="rounded=0;whiteSpace=wrap;html=1;" parent="1" vertex="1">
          <mxGeometry x="478.94" y="1120" width="71" height="20" as="geometry" />
        </mxCell>
        <mxCell id="J7t00RlYxUDwokbcdc5y-271" style="edgeStyle=orthogonalEdgeStyle;rounded=0;orthogonalLoop=1;jettySize=auto;html=1;exitX=0.5;exitY=1;exitDx=0;exitDy=0;entryX=0.5;entryY=0;entryDx=0;entryDy=0;" parent="1" source="J7t00RlYxUDwokbcdc5y-274" target="J7t00RlYxUDwokbcdc5y-279" edge="1">
          <mxGeometry relative="1" as="geometry" />
        </mxCell>
        <mxCell id="J7t00RlYxUDwokbcdc5y-272" style="edgeStyle=orthogonalEdgeStyle;rounded=0;orthogonalLoop=1;jettySize=auto;html=1;exitX=0.5;exitY=1;exitDx=0;exitDy=0;entryX=0.5;entryY=0;entryDx=0;entryDy=0;" parent="1" source="J7t00RlYxUDwokbcdc5y-274" target="J7t00RlYxUDwokbcdc5y-277" edge="1">
          <mxGeometry relative="1" as="geometry">
            <Array as="points">
              <mxPoint x="411.06" y="1290" />
              <mxPoint x="589.06" y="1290" />
            </Array>
          </mxGeometry>
        </mxCell>
        <mxCell id="J7t00RlYxUDwokbcdc5y-273" style="edgeStyle=orthogonalEdgeStyle;rounded=0;orthogonalLoop=1;jettySize=auto;html=1;exitX=0.5;exitY=1;exitDx=0;exitDy=0;entryX=0.5;entryY=0;entryDx=0;entryDy=0;" parent="1" source="J7t00RlYxUDwokbcdc5y-274" target="J7t00RlYxUDwokbcdc5y-281" edge="1">
          <mxGeometry relative="1" as="geometry">
            <Array as="points">
              <mxPoint x="411.06" y="1290" />
              <mxPoint x="232.06" y="1290" />
            </Array>
          </mxGeometry>
        </mxCell>
        <mxCell id="J7t00RlYxUDwokbcdc5y-274" value="helper&lt;br&gt;获取client&lt;br&gt;订阅主题" style="rounded=0;whiteSpace=wrap;html=1;" parent="1" vertex="1">
          <mxGeometry x="374.06" y="1230" width="73" height="50" as="geometry" />
        </mxCell>
        <mxCell id="J7t00RlYxUDwokbcdc5y-275" style="edgeStyle=orthogonalEdgeStyle;rounded=0;orthogonalLoop=1;jettySize=auto;html=1;exitX=0.5;exitY=1;exitDx=0;exitDy=0;entryX=0.5;entryY=0;entryDx=0;entryDy=0;" parent="1" source="J7t00RlYxUDwokbcdc5y-277" target="J7t00RlYxUDwokbcdc5y-283" edge="1">
          <mxGeometry relative="1" as="geometry" />
        </mxCell>
        <mxCell id="J7t00RlYxUDwokbcdc5y-276" style="edgeStyle=orthogonalEdgeStyle;rounded=0;orthogonalLoop=1;jettySize=auto;html=1;exitX=0.5;exitY=1;exitDx=0;exitDy=0;entryX=0.5;entryY=0;entryDx=0;entryDy=0;" parent="1" source="J7t00RlYxUDwokbcdc5y-277" target="J7t00RlYxUDwokbcdc5y-285" edge="1">
          <mxGeometry relative="1" as="geometry" />
        </mxCell>
        <mxCell id="J7t00RlYxUDwokbcdc5y-277" value="watcher" style="rounded=0;whiteSpace=wrap;html=1;" parent="1" vertex="1">
          <mxGeometry x="554.06" y="1310" width="70" height="30" as="geometry" />
        </mxCell>
        <mxCell id="J7t00RlYxUDwokbcdc5y-278" style="edgeStyle=orthogonalEdgeStyle;rounded=0;orthogonalLoop=1;jettySize=auto;html=1;exitX=0.5;exitY=1;exitDx=0;exitDy=0;entryX=0.5;entryY=0;entryDx=0;entryDy=0;" parent="1" source="J7t00RlYxUDwokbcdc5y-279" target="J7t00RlYxUDwokbcdc5y-290" edge="1">
          <mxGeometry relative="1" as="geometry" />
        </mxCell>
        <mxCell id="J7t00RlYxUDwokbcdc5y-279" value="开启FileDownload子线程" style="rounded=0;whiteSpace=wrap;html=1;" parent="1" vertex="1">
          <mxGeometry x="350.56" y="1300" width="120" height="50" as="geometry" />
        </mxCell>
        <mxCell id="J7t00RlYxUDwokbcdc5y-280" style="edgeStyle=orthogonalEdgeStyle;rounded=0;orthogonalLoop=1;jettySize=auto;html=1;exitX=0.5;exitY=1;exitDx=0;exitDy=0;entryX=0.5;entryY=0;entryDx=0;entryDy=0;" parent="1" source="J7t00RlYxUDwokbcdc5y-281" target="J7t00RlYxUDwokbcdc5y-287" edge="1">
          <mxGeometry relative="1" as="geometry" />
        </mxCell>
        <mxCell id="J7t00RlYxUDwokbcdc5y-281" value="信息下发触发回调函数" style="rounded=0;whiteSpace=wrap;html=1;" parent="1" vertex="1">
          <mxGeometry x="197.06" y="1310" width="70" height="30" as="geometry" />
        </mxCell>
        <mxCell id="J7t00RlYxUDwokbcdc5y-282" style="edgeStyle=orthogonalEdgeStyle;rounded=0;orthogonalLoop=1;jettySize=auto;html=1;exitX=0.5;exitY=1;exitDx=0;exitDy=0;entryX=0.5;entryY=0;entryDx=0;entryDy=0;" parent="1" source="J7t00RlYxUDwokbcdc5y-283" target="J7t00RlYxUDwokbcdc5y-294" edge="1">
          <mxGeometry relative="1" as="geometry" />
        </mxCell>
        <mxCell id="J7t00RlYxUDwokbcdc5y-283" value="cpuinfo" style="rounded=0;whiteSpace=wrap;html=1;" parent="1" vertex="1">
          <mxGeometry x="512.06" y="1380" width="70" height="30" as="geometry" />
        </mxCell>
        <mxCell id="J7t00RlYxUDwokbcdc5y-284" style="edgeStyle=orthogonalEdgeStyle;rounded=0;orthogonalLoop=1;jettySize=auto;html=1;exitX=0.5;exitY=1;exitDx=0;exitDy=0;" parent="1" source="J7t00RlYxUDwokbcdc5y-285" target="J7t00RlYxUDwokbcdc5y-296" edge="1">
          <mxGeometry relative="1" as="geometry" />
        </mxCell>
        <mxCell id="J7t00RlYxUDwokbcdc5y-285" value="meminfo" style="rounded=0;whiteSpace=wrap;html=1;" parent="1" vertex="1">
          <mxGeometry x="615.9399999999999" y="1380" width="70" height="30" as="geometry" />
        </mxCell>
        <mxCell id="J7t00RlYxUDwokbcdc5y-286" style="edgeStyle=orthogonalEdgeStyle;rounded=0;orthogonalLoop=1;jettySize=auto;html=1;entryX=0.5;entryY=0;entryDx=0;entryDy=0;" parent="1" source="J7t00RlYxUDwokbcdc5y-287" target="J7t00RlYxUDwokbcdc5y-288" edge="1">
          <mxGeometry relative="1" as="geometry" />
        </mxCell>
        <mxCell id="J7t00RlYxUDwokbcdc5y-287" value="filedownload" style="rounded=0;whiteSpace=wrap;html=1;" parent="1" vertex="1">
          <mxGeometry x="197.06" y="1380" width="70" height="30" as="geometry" />
        </mxCell>
        <mxCell id="J7t00RlYxUDwokbcdc5y-288" value="将下载对象存入通道" style="rounded=0;whiteSpace=wrap;html=1;" parent="1" vertex="1">
          <mxGeometry x="197.06" y="1450" width="70" height="30" as="geometry" />
        </mxCell>
        <mxCell id="J7t00RlYxUDwokbcdc5y-289" style="edgeStyle=orthogonalEdgeStyle;rounded=0;orthogonalLoop=1;jettySize=auto;html=1;exitX=0.5;exitY=1;exitDx=0;exitDy=0;entryX=0.5;entryY=0;entryDx=0;entryDy=0;" parent="1" source="J7t00RlYxUDwokbcdc5y-290" target="J7t00RlYxUDwokbcdc5y-292" edge="1">
          <mxGeometry relative="1" as="geometry" />
        </mxCell>
        <mxCell id="J7t00RlYxUDwokbcdc5y-290" value="从通道获取下载对象" style="rounded=0;whiteSpace=wrap;html=1;" parent="1" vertex="1">
          <mxGeometry x="376.06" y="1390" width="69" height="30" as="geometry" />
        </mxCell>
        <mxCell id="J7t00RlYxUDwokbcdc5y-291" style="edgeStyle=orthogonalEdgeStyle;rounded=0;orthogonalLoop=1;jettySize=auto;html=1;exitX=0.5;exitY=1;exitDx=0;exitDy=0;" parent="1" source="J7t00RlYxUDwokbcdc5y-292" target="J7t00RlYxUDwokbcdc5y-297" edge="1">
          <mxGeometry relative="1" as="geometry" />
        </mxCell>
        <mxCell id="J7t00RlYxUDwokbcdc5y-292" value="action&lt;br&gt;执行下载函数" style="rounded=0;whiteSpace=wrap;html=1;" parent="1" vertex="1">
          <mxGeometry x="370" y="1450" width="78.12" height="30" as="geometry" />
        </mxCell>
        <mxCell id="J7t00RlYxUDwokbcdc5y-293" style="edgeStyle=orthogonalEdgeStyle;rounded=0;orthogonalLoop=1;jettySize=auto;html=1;exitX=0.5;exitY=1;exitDx=0;exitDy=0;entryX=0.5;entryY=0;entryDx=0;entryDy=0;" parent="1" source="J7t00RlYxUDwokbcdc5y-294" target="J7t00RlYxUDwokbcdc5y-298" edge="1">
          <mxGeometry relative="1" as="geometry" />
        </mxCell>
        <mxCell id="J7t00RlYxUDwokbcdc5y-294" value="action&lt;br&gt;获取cpu信息" style="rounded=0;whiteSpace=wrap;html=1;" parent="1" vertex="1">
          <mxGeometry x="508" y="1450" width="78.12" height="30" as="geometry" />
        </mxCell>
        <mxCell id="J7t00RlYxUDwokbcdc5y-295" style="edgeStyle=orthogonalEdgeStyle;rounded=0;orthogonalLoop=1;jettySize=auto;html=1;exitX=0.5;exitY=1;exitDx=0;exitDy=0;entryX=0.5;entryY=0;entryDx=0;entryDy=0;" parent="1" source="J7t00RlYxUDwokbcdc5y-296" target="J7t00RlYxUDwokbcdc5y-299" edge="1">
          <mxGeometry relative="1" as="geometry" />
        </mxCell>
        <mxCell id="J7t00RlYxUDwokbcdc5y-296" value="action&lt;br&gt;获取mem信息" style="rounded=0;whiteSpace=wrap;html=1;" parent="1" vertex="1">
          <mxGeometry x="611.88" y="1450" width="78.12" height="30" as="geometry" />
        </mxCell>
        <mxCell id="J7t00RlYxUDwokbcdc5y-297" value="helper&lt;br&gt;发送消息" style="rounded=0;whiteSpace=wrap;html=1;" parent="1" vertex="1">
          <mxGeometry x="370" y="1500" width="78.12" height="30" as="geometry" />
        </mxCell>
        <mxCell id="J7t00RlYxUDwokbcdc5y-298" value="helper&lt;br&gt;发送消息" style="rounded=0;whiteSpace=wrap;html=1;" parent="1" vertex="1">
          <mxGeometry x="508" y="1500" width="78.12" height="30" as="geometry" />
        </mxCell>
        <mxCell id="J7t00RlYxUDwokbcdc5y-299" value="helper&lt;br&gt;发送消息" style="rounded=0;whiteSpace=wrap;html=1;" parent="1" vertex="1">
          <mxGeometry x="611.8799999999999" y="1500" width="78.12" height="30" as="geometry" />
        </mxCell>
        <mxCell id="J7t00RlYxUDwokbcdc5y-300" value="Text" style="text;html=1;align=center;verticalAlign=middle;resizable=0;points=[];autosize=1;" parent="1" vertex="1">
          <mxGeometry x="182.06" y="1240" width="40" height="20" as="geometry" />
        </mxCell>
        <mxCell id="FnWfrTRd6geeHGJAiOIr-1" value="" style="rounded=0;whiteSpace=wrap;html=1;" vertex="1" parent="1">
          <mxGeometry x="-1490" y="-1080" width="450" height="380" as="geometry" />
        </mxCell>
        <mxCell id="FnWfrTRd6geeHGJAiOIr-2" value="mappers/client" style="text;html=1;strokeColor=none;fillColor=none;align=center;verticalAlign=middle;whiteSpace=wrap;rounded=0;" vertex="1" parent="1">
          <mxGeometry x="-1480" y="-1070" width="90" height="30" as="geometry" />
        </mxCell>
        <mxCell id="FnWfrTRd6geeHGJAiOIr-12" style="edgeStyle=orthogonalEdgeStyle;rounded=0;orthogonalLoop=1;jettySize=auto;html=1;exitX=0.5;exitY=1;exitDx=0;exitDy=0;entryX=0.5;entryY=0;entryDx=0;entryDy=0;" edge="1" parent="1" source="FnWfrTRd6geeHGJAiOIr-3" target="FnWfrTRd6geeHGJAiOIr-4">
          <mxGeometry relative="1" as="geometry" />
        </mxCell>
        <mxCell id="FnWfrTRd6geeHGJAiOIr-3" value="controller" style="rounded=0;whiteSpace=wrap;html=1;" vertex="1" parent="1">
          <mxGeometry x="-1430" y="-1040" width="80" height="30" as="geometry" />
        </mxCell>
        <mxCell id="FnWfrTRd6geeHGJAiOIr-39" style="edgeStyle=orthogonalEdgeStyle;rounded=0;orthogonalLoop=1;jettySize=auto;html=1;exitX=0.5;exitY=1;exitDx=0;exitDy=0;entryX=0;entryY=0.45;entryDx=0;entryDy=0;entryPerimeter=0;" edge="1" parent="1" source="FnWfrTRd6geeHGJAiOIr-4" target="FnWfrTRd6geeHGJAiOIr-15">
          <mxGeometry relative="1" as="geometry" />
        </mxCell>
        <mxCell id="FnWfrTRd6geeHGJAiOIr-4" value="" style="rounded=0;whiteSpace=wrap;html=1;" vertex="1" parent="1">
          <mxGeometry x="-1480" y="-980" width="120" height="120" as="geometry" />
        </mxCell>
        <mxCell id="FnWfrTRd6geeHGJAiOIr-5" value="action" style="text;html=1;strokeColor=none;fillColor=none;align=center;verticalAlign=middle;whiteSpace=wrap;rounded=0;" vertex="1" parent="1">
          <mxGeometry x="-1470" y="-970" width="40" height="20" as="geometry" />
        </mxCell>
        <mxCell id="FnWfrTRd6geeHGJAiOIr-14" style="edgeStyle=orthogonalEdgeStyle;rounded=0;orthogonalLoop=1;jettySize=auto;html=1;exitX=0.5;exitY=0;exitDx=0;exitDy=0;entryX=0;entryY=0.5;entryDx=0;entryDy=0;entryPerimeter=0;" edge="1" parent="1" source="FnWfrTRd6geeHGJAiOIr-9" target="FnWfrTRd6geeHGJAiOIr-13">
          <mxGeometry relative="1" as="geometry" />
        </mxCell>
        <mxCell id="FnWfrTRd6geeHGJAiOIr-82" style="edgeStyle=orthogonalEdgeStyle;rounded=0;orthogonalLoop=1;jettySize=auto;html=1;exitX=0.5;exitY=1;exitDx=0;exitDy=0;entryX=0.5;entryY=0;entryDx=0;entryDy=0;" edge="1" parent="1" source="FnWfrTRd6geeHGJAiOIr-9" target="FnWfrTRd6geeHGJAiOIr-15">
          <mxGeometry relative="1" as="geometry" />
        </mxCell>
        <mxCell id="FnWfrTRd6geeHGJAiOIr-9" value="" style="rounded=0;whiteSpace=wrap;html=1;" vertex="1" parent="1">
          <mxGeometry x="-1260" y="-980" width="120" height="100" as="geometry" />
        </mxCell>
        <mxCell id="FnWfrTRd6geeHGJAiOIr-10" value="watcher" style="text;html=1;strokeColor=none;fillColor=none;align=center;verticalAlign=middle;whiteSpace=wrap;rounded=0;" vertex="1" parent="1">
          <mxGeometry x="-1250" y="-970" width="40" height="20" as="geometry" />
        </mxCell>
        <mxCell id="FnWfrTRd6geeHGJAiOIr-13" value="mqtt" style="shape=cylinder3;whiteSpace=wrap;html=1;boundedLbl=1;backgroundOutline=1;size=15;" vertex="1" parent="1">
          <mxGeometry x="-1010" y="-1070" width="50" height="70" as="geometry" />
        </mxCell>
        <mxCell id="FnWfrTRd6geeHGJAiOIr-21" style="edgeStyle=orthogonalEdgeStyle;rounded=0;orthogonalLoop=1;jettySize=auto;html=1;exitX=1;exitY=0.5;exitDx=0;exitDy=0;entryX=0;entryY=0.5;entryDx=0;entryDy=0;" edge="1" parent="1" source="FnWfrTRd6geeHGJAiOIr-15" target="FnWfrTRd6geeHGJAiOIr-19">
          <mxGeometry relative="1" as="geometry" />
        </mxCell>
        <mxCell id="FnWfrTRd6geeHGJAiOIr-32" style="edgeStyle=orthogonalEdgeStyle;rounded=0;orthogonalLoop=1;jettySize=auto;html=1;exitX=1;exitY=0.5;exitDx=0;exitDy=0;entryX=0;entryY=0.5;entryDx=0;entryDy=0;" edge="1" parent="1" source="FnWfrTRd6geeHGJAiOIr-15" target="FnWfrTRd6geeHGJAiOIr-30">
          <mxGeometry relative="1" as="geometry" />
        </mxCell>
        <mxCell id="FnWfrTRd6geeHGJAiOIr-15" value="" style="rounded=0;whiteSpace=wrap;html=1;" vertex="1" parent="1">
          <mxGeometry x="-1380" y="-850" width="210" height="140" as="geometry" />
        </mxCell>
        <mxCell id="FnWfrTRd6geeHGJAiOIr-18" value="client" style="text;html=1;strokeColor=none;fillColor=none;align=center;verticalAlign=middle;whiteSpace=wrap;rounded=0;" vertex="1" parent="1">
          <mxGeometry x="-1380" y="-850" width="40" height="20" as="geometry" />
        </mxCell>
        <mxCell id="FnWfrTRd6geeHGJAiOIr-42" style="edgeStyle=orthogonalEdgeStyle;rounded=0;orthogonalLoop=1;jettySize=auto;html=1;exitX=0;exitY=0.5;exitDx=0;exitDy=0;" edge="1" parent="1" source="FnWfrTRd6geeHGJAiOIr-19">
          <mxGeometry relative="1" as="geometry">
            <mxPoint x="-1170" y="-780" as="targetPoint" />
          </mxGeometry>
        </mxCell>
        <mxCell id="FnWfrTRd6geeHGJAiOIr-19" value="" style="rounded=0;whiteSpace=wrap;html=1;" vertex="1" parent="1">
          <mxGeometry x="-950" y="-900" width="160" height="160" as="geometry" />
        </mxCell>
        <mxCell id="FnWfrTRd6geeHGJAiOIr-20" value="service 1" style="text;html=1;strokeColor=none;fillColor=none;align=center;verticalAlign=middle;whiteSpace=wrap;rounded=0;" vertex="1" parent="1">
          <mxGeometry x="-940" y="-900" width="60" height="20" as="geometry" />
        </mxCell>
        <mxCell id="FnWfrTRd6geeHGJAiOIr-22" value="方法1" style="rounded=0;whiteSpace=wrap;html=1;" vertex="1" parent="1">
          <mxGeometry x="-930" y="-870" width="70" height="20" as="geometry" />
        </mxCell>
        <mxCell id="FnWfrTRd6geeHGJAiOIr-23" value="方法n" style="rounded=0;whiteSpace=wrap;html=1;" vertex="1" parent="1">
          <mxGeometry x="-930" y="-800" width="70" height="20" as="geometry" />
        </mxCell>
        <mxCell id="FnWfrTRd6geeHGJAiOIr-26" value="请求1" style="rounded=0;whiteSpace=wrap;html=1;" vertex="1" parent="1">
          <mxGeometry x="-1370" y="-830" width="70" height="20" as="geometry" />
        </mxCell>
        <mxCell id="FnWfrTRd6geeHGJAiOIr-30" value="" style="rounded=0;whiteSpace=wrap;html=1;" vertex="1" parent="1">
          <mxGeometry x="-950" y="-700" width="160" height="150" as="geometry" />
        </mxCell>
        <mxCell id="FnWfrTRd6geeHGJAiOIr-31" value="service n" style="text;html=1;strokeColor=none;fillColor=none;align=center;verticalAlign=middle;whiteSpace=wrap;rounded=0;" vertex="1" parent="1">
          <mxGeometry x="-940" y="-690" width="60" height="10" as="geometry" />
        </mxCell>
        <mxCell id="FnWfrTRd6geeHGJAiOIr-33" value="方法1" style="rounded=0;whiteSpace=wrap;html=1;" vertex="1" parent="1">
          <mxGeometry x="-940" y="-670" width="70" height="20" as="geometry" />
        </mxCell>
        <mxCell id="FnWfrTRd6geeHGJAiOIr-34" value="方法n" style="rounded=0;whiteSpace=wrap;html=1;" vertex="1" parent="1">
          <mxGeometry x="-940" y="-594" width="70" height="20" as="geometry" />
        </mxCell>
        <mxCell id="FnWfrTRd6geeHGJAiOIr-38" value=".&lt;br&gt;.&lt;br&gt;." style="text;html=1;strokeColor=none;fillColor=none;align=center;verticalAlign=middle;whiteSpace=wrap;rounded=0;" vertex="1" parent="1">
          <mxGeometry x="-940" y="-730" width="40" height="20" as="geometry" />
        </mxCell>
        <mxCell id="FnWfrTRd6geeHGJAiOIr-44" value="" style="rounded=0;whiteSpace=wrap;html=1;" vertex="1" parent="1">
          <mxGeometry x="-1500" y="-540" width="450" height="380" as="geometry" />
        </mxCell>
        <mxCell id="FnWfrTRd6geeHGJAiOIr-45" value="mappers/client" style="text;html=1;strokeColor=none;fillColor=none;align=center;verticalAlign=middle;whiteSpace=wrap;rounded=0;" vertex="1" parent="1">
          <mxGeometry x="-1490" y="-530" width="90" height="30" as="geometry" />
        </mxCell>
        <mxCell id="FnWfrTRd6geeHGJAiOIr-46" style="edgeStyle=orthogonalEdgeStyle;rounded=0;orthogonalLoop=1;jettySize=auto;html=1;exitX=0.5;exitY=1;exitDx=0;exitDy=0;entryX=0.5;entryY=0;entryDx=0;entryDy=0;" edge="1" parent="1" source="FnWfrTRd6geeHGJAiOIr-47" target="FnWfrTRd6geeHGJAiOIr-49">
          <mxGeometry relative="1" as="geometry" />
        </mxCell>
        <mxCell id="FnWfrTRd6geeHGJAiOIr-47" value="controller" style="rounded=0;whiteSpace=wrap;html=1;" vertex="1" parent="1">
          <mxGeometry x="-1440" y="-500" width="80" height="30" as="geometry" />
        </mxCell>
        <mxCell id="FnWfrTRd6geeHGJAiOIr-48" style="edgeStyle=orthogonalEdgeStyle;rounded=0;orthogonalLoop=1;jettySize=auto;html=1;exitX=0.5;exitY=1;exitDx=0;exitDy=0;entryX=0;entryY=0.45;entryDx=0;entryDy=0;entryPerimeter=0;" edge="1" parent="1" source="FnWfrTRd6geeHGJAiOIr-49" target="FnWfrTRd6geeHGJAiOIr-60">
          <mxGeometry relative="1" as="geometry" />
        </mxCell>
        <mxCell id="FnWfrTRd6geeHGJAiOIr-49" value="" style="rounded=0;whiteSpace=wrap;html=1;" vertex="1" parent="1">
          <mxGeometry x="-1490" y="-440" width="120" height="100" as="geometry" />
        </mxCell>
        <mxCell id="FnWfrTRd6geeHGJAiOIr-50" value="action" style="text;html=1;strokeColor=none;fillColor=none;align=center;verticalAlign=middle;whiteSpace=wrap;rounded=0;" vertex="1" parent="1">
          <mxGeometry x="-1480" y="-430" width="40" height="20" as="geometry" />
        </mxCell>
        <mxCell id="FnWfrTRd6geeHGJAiOIr-51" value="设备重启" style="text;html=1;strokeColor=none;fillColor=none;align=center;verticalAlign=middle;whiteSpace=wrap;rounded=0;" vertex="1" parent="1">
          <mxGeometry x="-1480" y="-400" width="60" height="20" as="geometry" />
        </mxCell>
        <mxCell id="FnWfrTRd6geeHGJAiOIr-53" style="edgeStyle=orthogonalEdgeStyle;rounded=0;orthogonalLoop=1;jettySize=auto;html=1;exitX=0.5;exitY=0;exitDx=0;exitDy=0;entryX=0;entryY=0.5;entryDx=0;entryDy=0;entryPerimeter=0;" edge="1" parent="1" source="FnWfrTRd6geeHGJAiOIr-54" target="FnWfrTRd6geeHGJAiOIr-57">
          <mxGeometry relative="1" as="geometry" />
        </mxCell>
        <mxCell id="FnWfrTRd6geeHGJAiOIr-81" style="edgeStyle=orthogonalEdgeStyle;rounded=0;orthogonalLoop=1;jettySize=auto;html=1;exitX=0.5;exitY=1;exitDx=0;exitDy=0;entryX=0.5;entryY=0;entryDx=0;entryDy=0;" edge="1" parent="1" source="FnWfrTRd6geeHGJAiOIr-54" target="FnWfrTRd6geeHGJAiOIr-60">
          <mxGeometry relative="1" as="geometry" />
        </mxCell>
        <mxCell id="FnWfrTRd6geeHGJAiOIr-54" value="" style="rounded=0;whiteSpace=wrap;html=1;" vertex="1" parent="1">
          <mxGeometry x="-1270" y="-440" width="120" height="100" as="geometry" />
        </mxCell>
        <mxCell id="FnWfrTRd6geeHGJAiOIr-55" value="watcher" style="text;html=1;strokeColor=none;fillColor=none;align=center;verticalAlign=middle;whiteSpace=wrap;rounded=0;" vertex="1" parent="1">
          <mxGeometry x="-1260" y="-430" width="40" height="20" as="geometry" />
        </mxCell>
        <mxCell id="FnWfrTRd6geeHGJAiOIr-56" value="cpu汇报" style="text;html=1;strokeColor=none;fillColor=none;align=center;verticalAlign=middle;whiteSpace=wrap;rounded=0;" vertex="1" parent="1">
          <mxGeometry x="-1260" y="-400" width="80" height="10" as="geometry" />
        </mxCell>
        <mxCell id="FnWfrTRd6geeHGJAiOIr-57" value="mqtt" style="shape=cylinder3;whiteSpace=wrap;html=1;boundedLbl=1;backgroundOutline=1;size=15;" vertex="1" parent="1">
          <mxGeometry x="-1020" y="-530" width="50" height="70" as="geometry" />
        </mxCell>
        <mxCell id="FnWfrTRd6geeHGJAiOIr-58" style="edgeStyle=orthogonalEdgeStyle;rounded=0;orthogonalLoop=1;jettySize=auto;html=1;exitX=1;exitY=0.5;exitDx=0;exitDy=0;entryX=0;entryY=0.5;entryDx=0;entryDy=0;" edge="1" parent="1" source="FnWfrTRd6geeHGJAiOIr-60" target="FnWfrTRd6geeHGJAiOIr-63">
          <mxGeometry relative="1" as="geometry" />
        </mxCell>
        <mxCell id="FnWfrTRd6geeHGJAiOIr-59" style="edgeStyle=orthogonalEdgeStyle;rounded=0;orthogonalLoop=1;jettySize=auto;html=1;exitX=1;exitY=0.5;exitDx=0;exitDy=0;entryX=0;entryY=0.5;entryDx=0;entryDy=0;" edge="1" parent="1" source="FnWfrTRd6geeHGJAiOIr-60" target="FnWfrTRd6geeHGJAiOIr-73">
          <mxGeometry relative="1" as="geometry" />
        </mxCell>
        <mxCell id="FnWfrTRd6geeHGJAiOIr-60" value="" style="rounded=0;whiteSpace=wrap;html=1;" vertex="1" parent="1">
          <mxGeometry x="-1390" y="-310" width="210" height="140" as="geometry" />
        </mxCell>
        <mxCell id="FnWfrTRd6geeHGJAiOIr-61" value="client" style="text;html=1;strokeColor=none;fillColor=none;align=center;verticalAlign=middle;whiteSpace=wrap;rounded=0;" vertex="1" parent="1">
          <mxGeometry x="-1390" y="-310" width="40" height="20" as="geometry" />
        </mxCell>
        <mxCell id="FnWfrTRd6geeHGJAiOIr-62" style="edgeStyle=orthogonalEdgeStyle;rounded=0;orthogonalLoop=1;jettySize=auto;html=1;exitX=0;exitY=0.5;exitDx=0;exitDy=0;" edge="1" parent="1" source="FnWfrTRd6geeHGJAiOIr-63">
          <mxGeometry relative="1" as="geometry">
            <mxPoint x="-1180" y="-240" as="targetPoint" />
          </mxGeometry>
        </mxCell>
        <mxCell id="FnWfrTRd6geeHGJAiOIr-63" value="" style="rounded=0;whiteSpace=wrap;html=1;" vertex="1" parent="1">
          <mxGeometry x="-960" y="-360" width="160" height="160" as="geometry" />
        </mxCell>
        <mxCell id="FnWfrTRd6geeHGJAiOIr-64" value="service 1" style="text;html=1;strokeColor=none;fillColor=none;align=center;verticalAlign=middle;whiteSpace=wrap;rounded=0;" vertex="1" parent="1">
          <mxGeometry x="-950" y="-360" width="60" height="20" as="geometry" />
        </mxCell>
        <mxCell id="FnWfrTRd6geeHGJAiOIr-65" value="设备重启响应" style="rounded=0;whiteSpace=wrap;html=1;" vertex="1" parent="1">
          <mxGeometry x="-940" y="-330" width="80" height="20" as="geometry" />
        </mxCell>
        <mxCell id="FnWfrTRd6geeHGJAiOIr-66" value="cpu请求响应" style="rounded=0;whiteSpace=wrap;html=1;" vertex="1" parent="1">
          <mxGeometry x="-940" y="-300" width="80" height="20" as="geometry" />
        </mxCell>
        <mxCell id="FnWfrTRd6geeHGJAiOIr-68" value="内存请求响应" style="rounded=0;whiteSpace=wrap;html=1;" vertex="1" parent="1">
          <mxGeometry x="-940" y="-270" width="80" height="20" as="geometry" />
        </mxCell>
        <mxCell id="FnWfrTRd6geeHGJAiOIr-69" value="设备重启请求" style="rounded=0;whiteSpace=wrap;html=1;" vertex="1" parent="1">
          <mxGeometry x="-1380" y="-290" width="80" height="20" as="geometry" />
        </mxCell>
        <mxCell id="FnWfrTRd6geeHGJAiOIr-70" value="cpu请求" style="rounded=0;whiteSpace=wrap;html=1;" vertex="1" parent="1">
          <mxGeometry x="-1380" y="-260" width="70" height="20" as="geometry" />
        </mxCell>
        <mxCell id="FnWfrTRd6geeHGJAiOIr-72" value="内存请求" style="rounded=0;whiteSpace=wrap;html=1;" vertex="1" parent="1">
          <mxGeometry x="-1380" y="-230" width="70" height="20" as="geometry" />
        </mxCell>
        <mxCell id="FnWfrTRd6geeHGJAiOIr-73" value="" style="rounded=0;whiteSpace=wrap;html=1;" vertex="1" parent="1">
          <mxGeometry x="-960" y="-160" width="160" height="150" as="geometry" />
        </mxCell>
        <mxCell id="FnWfrTRd6geeHGJAiOIr-74" value="service n" style="text;html=1;strokeColor=none;fillColor=none;align=center;verticalAlign=middle;whiteSpace=wrap;rounded=0;" vertex="1" parent="1">
          <mxGeometry x="-950" y="-150" width="60" height="10" as="geometry" />
        </mxCell>
        <mxCell id="FnWfrTRd6geeHGJAiOIr-75" value="设备重启响应" style="rounded=0;whiteSpace=wrap;html=1;" vertex="1" parent="1">
          <mxGeometry x="-950" y="-130" width="80" height="20" as="geometry" />
        </mxCell>
        <mxCell id="FnWfrTRd6geeHGJAiOIr-76" value="cpu请求响应" style="rounded=0;whiteSpace=wrap;html=1;" vertex="1" parent="1">
          <mxGeometry x="-950" y="-100" width="80" height="20" as="geometry" />
        </mxCell>
        <mxCell id="FnWfrTRd6geeHGJAiOIr-78" value="内存请求响应" style="rounded=0;whiteSpace=wrap;html=1;" vertex="1" parent="1">
          <mxGeometry x="-950" y="-70" width="80" height="20" as="geometry" />
        </mxCell>
        <mxCell id="FnWfrTRd6geeHGJAiOIr-79" value=".&lt;br&gt;.&lt;br&gt;." style="text;html=1;strokeColor=none;fillColor=none;align=center;verticalAlign=middle;whiteSpace=wrap;rounded=0;" vertex="1" parent="1">
          <mxGeometry x="-950" y="-190" width="40" height="20" as="geometry" />
        </mxCell>
        <mxCell id="FnWfrTRd6geeHGJAiOIr-80" value="内存汇报" style="text;html=1;strokeColor=none;fillColor=none;align=center;verticalAlign=middle;whiteSpace=wrap;rounded=0;" vertex="1" parent="1">
          <mxGeometry x="-1260" y="-370" width="80" height="10" as="geometry" />
        </mxCell>
        <mxCell id="FnWfrTRd6geeHGJAiOIr-83" value="&lt;font style=&quot;font-size: 6px&quot;&gt;.&lt;br&gt;.&lt;br&gt;.&lt;/font&gt;" style="text;html=1;strokeColor=none;fillColor=none;align=center;verticalAlign=middle;whiteSpace=wrap;rounded=0;" vertex="1" parent="1">
          <mxGeometry x="-1472.5" y="-920" width="40" height="20" as="geometry" />
        </mxCell>
        <mxCell id="FnWfrTRd6geeHGJAiOIr-85" value="属性状态汇报" style="rounded=0;whiteSpace=wrap;html=1;" vertex="1" parent="1">
          <mxGeometry x="-1250" y="-940" width="80" height="20" as="geometry" />
        </mxCell>
        <mxCell id="FnWfrTRd6geeHGJAiOIr-86" value="行为1" style="rounded=0;whiteSpace=wrap;html=1;" vertex="1" parent="1">
          <mxGeometry x="-1472.5" y="-950" width="45" height="20" as="geometry" />
        </mxCell>
        <mxCell id="FnWfrTRd6geeHGJAiOIr-87" value="行为n" style="rounded=0;whiteSpace=wrap;html=1;" vertex="1" parent="1">
          <mxGeometry x="-1472.5" y="-890" width="45" height="20" as="geometry" />
        </mxCell>
        <mxCell id="FnWfrTRd6geeHGJAiOIr-88" value="&lt;font style=&quot;font-size: 6px&quot;&gt;.&lt;br&gt;.&lt;br&gt;.&lt;/font&gt;" style="text;html=1;strokeColor=none;fillColor=none;align=center;verticalAlign=middle;whiteSpace=wrap;rounded=0;" vertex="1" parent="1">
          <mxGeometry x="-1370" y="-800" width="40" height="20" as="geometry" />
        </mxCell>
        <mxCell id="FnWfrTRd6geeHGJAiOIr-89" value="请求n" style="rounded=0;whiteSpace=wrap;html=1;" vertex="1" parent="1">
          <mxGeometry x="-1370" y="-760" width="70" height="20" as="geometry" />
        </mxCell>
        <mxCell id="FnWfrTRd6geeHGJAiOIr-90" value="&lt;font style=&quot;font-size: 6px&quot;&gt;.&lt;br&gt;.&lt;br&gt;.&lt;/font&gt;" style="text;html=1;strokeColor=none;fillColor=none;align=center;verticalAlign=middle;whiteSpace=wrap;rounded=0;" vertex="1" parent="1">
          <mxGeometry x="-930" y="-840" width="40" height="20" as="geometry" />
        </mxCell>
        <mxCell id="FnWfrTRd6geeHGJAiOIr-91" value="&lt;font style=&quot;font-size: 6px&quot;&gt;.&lt;br&gt;.&lt;br&gt;.&lt;/font&gt;" style="text;html=1;strokeColor=none;fillColor=none;align=center;verticalAlign=middle;whiteSpace=wrap;rounded=0;" vertex="1" parent="1">
          <mxGeometry x="-940" y="-635" width="40" height="20" as="geometry" />
        </mxCell>
        <mxCell id="FnWfrTRd6geeHGJAiOIr-94" style="edgeStyle=orthogonalEdgeStyle;rounded=0;orthogonalLoop=1;jettySize=auto;html=1;exitX=0;exitY=0.5;exitDx=0;exitDy=0;" edge="1" parent="1" source="FnWfrTRd6geeHGJAiOIr-92" target="FnWfrTRd6geeHGJAiOIr-93">
          <mxGeometry relative="1" as="geometry" />
        </mxCell>
        <mxCell id="FnWfrTRd6geeHGJAiOIr-92" value="读取config.yaml配置文件内容" style="rounded=0;whiteSpace=wrap;html=1;" vertex="1" parent="1">
          <mxGeometry x="-100" y="-1075" width="100" height="40" as="geometry" />
        </mxCell>
        <mxCell id="FnWfrTRd6geeHGJAiOIr-96" style="edgeStyle=orthogonalEdgeStyle;rounded=0;orthogonalLoop=1;jettySize=auto;html=1;exitX=0.5;exitY=1;exitDx=0;exitDy=0;entryX=0.5;entryY=0;entryDx=0;entryDy=0;" edge="1" parent="1" source="FnWfrTRd6geeHGJAiOIr-93" target="FnWfrTRd6geeHGJAiOIr-95">
          <mxGeometry relative="1" as="geometry" />
        </mxCell>
        <mxCell id="FnWfrTRd6geeHGJAiOIr-93" value="main.go" style="rounded=0;whiteSpace=wrap;html=1;" vertex="1" parent="1">
          <mxGeometry x="-240" y="-1070" width="63" height="30" as="geometry" />
        </mxCell>
        <mxCell id="FnWfrTRd6geeHGJAiOIr-98" style="edgeStyle=orthogonalEdgeStyle;rounded=0;orthogonalLoop=1;jettySize=auto;html=1;exitX=0.5;exitY=1;exitDx=0;exitDy=0;entryX=0.5;entryY=0;entryDx=0;entryDy=0;" edge="1" parent="1" source="FnWfrTRd6geeHGJAiOIr-95" target="FnWfrTRd6geeHGJAiOIr-97">
          <mxGeometry relative="1" as="geometry" />
        </mxCell>
        <mxCell id="FnWfrTRd6geeHGJAiOIr-95" value="controller" style="rounded=0;whiteSpace=wrap;html=1;" vertex="1" parent="1">
          <mxGeometry x="-252.5" y="-1000" width="88" height="20" as="geometry" />
        </mxCell>
        <mxCell id="FnWfrTRd6geeHGJAiOIr-132" style="edgeStyle=orthogonalEdgeStyle;rounded=0;orthogonalLoop=1;jettySize=auto;html=1;exitX=0.5;exitY=1;exitDx=0;exitDy=0;entryX=0.5;entryY=0;entryDx=0;entryDy=0;" edge="1" parent="1" source="FnWfrTRd6geeHGJAiOIr-97" target="FnWfrTRd6geeHGJAiOIr-99">
          <mxGeometry relative="1" as="geometry">
            <Array as="points">
              <mxPoint x="-209" y="-910" />
              <mxPoint x="-373" y="-910" />
            </Array>
          </mxGeometry>
        </mxCell>
        <mxCell id="FnWfrTRd6geeHGJAiOIr-133" style="edgeStyle=orthogonalEdgeStyle;rounded=0;orthogonalLoop=1;jettySize=auto;html=1;exitX=0.5;exitY=1;exitDx=0;exitDy=0;entryX=0.5;entryY=0;entryDx=0;entryDy=0;" edge="1" parent="1" source="FnWfrTRd6geeHGJAiOIr-97" target="FnWfrTRd6geeHGJAiOIr-104">
          <mxGeometry relative="1" as="geometry">
            <Array as="points">
              <mxPoint x="-209" y="-910" />
              <mxPoint x="-231" y="-910" />
            </Array>
          </mxGeometry>
        </mxCell>
        <mxCell id="FnWfrTRd6geeHGJAiOIr-134" style="edgeStyle=orthogonalEdgeStyle;rounded=0;orthogonalLoop=1;jettySize=auto;html=1;exitX=0.5;exitY=1;exitDx=0;exitDy=0;entryX=0.5;entryY=0;entryDx=0;entryDy=0;" edge="1" parent="1" source="FnWfrTRd6geeHGJAiOIr-97" target="FnWfrTRd6geeHGJAiOIr-108">
          <mxGeometry relative="1" as="geometry">
            <Array as="points">
              <mxPoint x="-209" y="-910" />
              <mxPoint x="-90" y="-910" />
            </Array>
          </mxGeometry>
        </mxCell>
        <mxCell id="FnWfrTRd6geeHGJAiOIr-135" style="edgeStyle=orthogonalEdgeStyle;rounded=0;orthogonalLoop=1;jettySize=auto;html=1;exitX=0.5;exitY=1;exitDx=0;exitDy=0;" edge="1" parent="1" source="FnWfrTRd6geeHGJAiOIr-97" target="FnWfrTRd6geeHGJAiOIr-114">
          <mxGeometry relative="1" as="geometry">
            <Array as="points">
              <mxPoint x="-209" y="-910" />
              <mxPoint x="80" y="-910" />
            </Array>
          </mxGeometry>
        </mxCell>
        <mxCell id="FnWfrTRd6geeHGJAiOIr-136" style="edgeStyle=orthogonalEdgeStyle;rounded=0;orthogonalLoop=1;jettySize=auto;html=1;exitX=0.5;exitY=1;exitDx=0;exitDy=0;entryX=0.5;entryY=0;entryDx=0;entryDy=0;" edge="1" parent="1" source="FnWfrTRd6geeHGJAiOIr-97" target="FnWfrTRd6geeHGJAiOIr-123">
          <mxGeometry relative="1" as="geometry">
            <Array as="points">
              <mxPoint x="-209" y="-910" />
              <mxPoint x="220" y="-910" />
            </Array>
          </mxGeometry>
        </mxCell>
        <mxCell id="FnWfrTRd6geeHGJAiOIr-97" value="mqttClient.Init" style="rounded=0;whiteSpace=wrap;html=1;" vertex="1" parent="1">
          <mxGeometry x="-268" y="-950" width="118" height="30" as="geometry" />
        </mxCell>
        <mxCell id="FnWfrTRd6geeHGJAiOIr-101" style="edgeStyle=orthogonalEdgeStyle;rounded=0;orthogonalLoop=1;jettySize=auto;html=1;exitX=0.5;exitY=1;exitDx=0;exitDy=0;entryX=0.5;entryY=0;entryDx=0;entryDy=0;" edge="1" parent="1" source="FnWfrTRd6geeHGJAiOIr-99" target="FnWfrTRd6geeHGJAiOIr-100">
          <mxGeometry relative="1" as="geometry" />
        </mxCell>
        <mxCell id="FnWfrTRd6geeHGJAiOIr-99" value="订阅设备列表更新主题" style="rounded=0;whiteSpace=wrap;html=1;" vertex="1" parent="1">
          <mxGeometry x="-413" y="-900" width="80" height="40" as="geometry" />
        </mxCell>
        <mxCell id="FnWfrTRd6geeHGJAiOIr-103" style="edgeStyle=orthogonalEdgeStyle;rounded=0;orthogonalLoop=1;jettySize=auto;html=1;exitX=0.5;exitY=1;exitDx=0;exitDy=0;entryX=0.5;entryY=0;entryDx=0;entryDy=0;" edge="1" parent="1" source="FnWfrTRd6geeHGJAiOIr-100" target="FnWfrTRd6geeHGJAiOIr-102">
          <mxGeometry relative="1" as="geometry" />
        </mxCell>
        <mxCell id="FnWfrTRd6geeHGJAiOIr-100" value="收到设备建立消息" style="rounded=0;whiteSpace=wrap;html=1;" vertex="1" parent="1">
          <mxGeometry x="-413" y="-840" width="80" height="40" as="geometry" />
        </mxCell>
        <mxCell id="FnWfrTRd6geeHGJAiOIr-106" style="edgeStyle=orthogonalEdgeStyle;rounded=0;orthogonalLoop=1;jettySize=auto;html=1;exitX=0.5;exitY=1;exitDx=0;exitDy=0;entryX=0;entryY=0.5;entryDx=0;entryDy=0;" edge="1" parent="1" source="FnWfrTRd6geeHGJAiOIr-102" target="FnWfrTRd6geeHGJAiOIr-105">
          <mxGeometry relative="1" as="geometry" />
        </mxCell>
        <mxCell id="FnWfrTRd6geeHGJAiOIr-102" value="从configProfile.json中加载设备信息" style="rounded=0;whiteSpace=wrap;html=1;" vertex="1" parent="1">
          <mxGeometry x="-428" y="-780" width="108" height="50" as="geometry" />
        </mxCell>
        <mxCell id="FnWfrTRd6geeHGJAiOIr-107" style="edgeStyle=orthogonalEdgeStyle;rounded=0;orthogonalLoop=1;jettySize=auto;html=1;exitX=0.5;exitY=1;exitDx=0;exitDy=0;" edge="1" parent="1" source="FnWfrTRd6geeHGJAiOIr-104" target="FnWfrTRd6geeHGJAiOIr-105">
          <mxGeometry relative="1" as="geometry" />
        </mxCell>
        <mxCell id="FnWfrTRd6geeHGJAiOIr-104" value="加载configProfile.json文件中的设备信息" style="rounded=0;whiteSpace=wrap;html=1;" vertex="1" parent="1">
          <mxGeometry x="-285" y="-900" width="108" height="50" as="geometry" />
        </mxCell>
        <mxCell id="FnWfrTRd6geeHGJAiOIr-105" value="将设备信息存入watcher.Devices管道" style="rounded=0;whiteSpace=wrap;html=1;" vertex="1" parent="1">
          <mxGeometry x="-285" y="-710" width="108" height="50" as="geometry" />
        </mxCell>
        <mxCell id="FnWfrTRd6geeHGJAiOIr-110" style="edgeStyle=orthogonalEdgeStyle;rounded=0;orthogonalLoop=1;jettySize=auto;html=1;exitX=0.5;exitY=1;exitDx=0;exitDy=0;" edge="1" parent="1" source="FnWfrTRd6geeHGJAiOIr-108" target="FnWfrTRd6geeHGJAiOIr-109">
          <mxGeometry relative="1" as="geometry" />
        </mxCell>
        <mxCell id="FnWfrTRd6geeHGJAiOIr-108" value="订阅设备属性更新主题" style="rounded=0;whiteSpace=wrap;html=1;" vertex="1" parent="1">
          <mxGeometry x="-130" y="-900" width="80" height="40" as="geometry" />
        </mxCell>
        <mxCell id="FnWfrTRd6geeHGJAiOIr-113" style="edgeStyle=orthogonalEdgeStyle;rounded=0;orthogonalLoop=1;jettySize=auto;html=1;exitX=0.5;exitY=1;exitDx=0;exitDy=0;entryX=0.5;entryY=0;entryDx=0;entryDy=0;" edge="1" parent="1" source="FnWfrTRd6geeHGJAiOIr-109" target="FnWfrTRd6geeHGJAiOIr-112">
          <mxGeometry relative="1" as="geometry" />
        </mxCell>
        <mxCell id="FnWfrTRd6geeHGJAiOIr-109" value="消息分发" style="rhombus;whiteSpace=wrap;html=1;" vertex="1" parent="1">
          <mxGeometry x="-120" y="-840" width="60" height="60" as="geometry" />
        </mxCell>
        <mxCell id="FnWfrTRd6geeHGJAiOIr-121" style="edgeStyle=orthogonalEdgeStyle;rounded=0;orthogonalLoop=1;jettySize=auto;html=1;exitX=0.5;exitY=1;exitDx=0;exitDy=0;" edge="1" parent="1" source="FnWfrTRd6geeHGJAiOIr-112" target="FnWfrTRd6geeHGJAiOIr-120">
          <mxGeometry relative="1" as="geometry">
            <Array as="points">
              <mxPoint x="-90" y="-720" />
              <mxPoint x="-20" y="-720" />
            </Array>
          </mxGeometry>
        </mxCell>
        <mxCell id="FnWfrTRd6geeHGJAiOIr-112" value="触发行为" style="whiteSpace=wrap;html=1;" vertex="1" parent="1">
          <mxGeometry x="-125" y="-760" width="70" height="20" as="geometry" />
        </mxCell>
        <mxCell id="FnWfrTRd6geeHGJAiOIr-116" style="edgeStyle=orthogonalEdgeStyle;rounded=0;orthogonalLoop=1;jettySize=auto;html=1;exitX=0.5;exitY=1;exitDx=0;exitDy=0;entryX=0.5;entryY=0;entryDx=0;entryDy=0;" edge="1" parent="1" source="FnWfrTRd6geeHGJAiOIr-114" target="FnWfrTRd6geeHGJAiOIr-115">
          <mxGeometry relative="1" as="geometry">
            <Array as="points">
              <mxPoint x="80" y="-837" />
              <mxPoint x="13" y="-837" />
            </Array>
          </mxGeometry>
        </mxCell>
        <mxCell id="FnWfrTRd6geeHGJAiOIr-130" style="edgeStyle=orthogonalEdgeStyle;rounded=0;orthogonalLoop=1;jettySize=auto;html=1;exitX=0.5;exitY=1;exitDx=0;exitDy=0;entryX=0.5;entryY=0;entryDx=0;entryDy=0;" edge="1" parent="1" source="FnWfrTRd6geeHGJAiOIr-114" target="FnWfrTRd6geeHGJAiOIr-128">
          <mxGeometry relative="1" as="geometry" />
        </mxCell>
        <mxCell id="FnWfrTRd6geeHGJAiOIr-114" value="开启watcher模块" style="rounded=0;whiteSpace=wrap;html=1;" vertex="1" parent="1">
          <mxGeometry x="40" y="-897.5" width="80" height="40" as="geometry" />
        </mxCell>
        <mxCell id="FnWfrTRd6geeHGJAiOIr-119" style="edgeStyle=orthogonalEdgeStyle;rounded=0;orthogonalLoop=1;jettySize=auto;html=1;exitX=0.5;exitY=1;exitDx=0;exitDy=0;entryX=0.5;entryY=0;entryDx=0;entryDy=0;" edge="1" parent="1" source="FnWfrTRd6geeHGJAiOIr-115" target="FnWfrTRd6geeHGJAiOIr-117">
          <mxGeometry relative="1" as="geometry" />
        </mxCell>
        <mxCell id="FnWfrTRd6geeHGJAiOIr-115" value="从设备信息管道中取出设备信息" style="whiteSpace=wrap;html=1;" vertex="1" parent="1">
          <mxGeometry x="-32.5" y="-825" width="90" height="45" as="geometry" />
        </mxCell>
        <mxCell id="FnWfrTRd6geeHGJAiOIr-122" style="edgeStyle=orthogonalEdgeStyle;rounded=0;orthogonalLoop=1;jettySize=auto;html=1;exitX=0.5;exitY=1;exitDx=0;exitDy=0;" edge="1" parent="1" source="FnWfrTRd6geeHGJAiOIr-117">
          <mxGeometry relative="1" as="geometry">
            <mxPoint x="-20" y="-690" as="targetPoint" />
            <Array as="points">
              <mxPoint x="23" y="-717" />
              <mxPoint x="-20" y="-717" />
            </Array>
          </mxGeometry>
        </mxCell>
        <mxCell id="FnWfrTRd6geeHGJAiOIr-117" value="解析设备属性" style="whiteSpace=wrap;html=1;" vertex="1" parent="1">
          <mxGeometry x="-25" y="-770" width="75" height="30" as="geometry" />
        </mxCell>
        <mxCell id="FnWfrTRd6geeHGJAiOIr-120" value="调用client发送请求" style="whiteSpace=wrap;html=1;" vertex="1" parent="1">
          <mxGeometry x="-60" y="-700" width="80" height="30" as="geometry" />
        </mxCell>
        <mxCell id="FnWfrTRd6geeHGJAiOIr-125" style="edgeStyle=orthogonalEdgeStyle;rounded=0;orthogonalLoop=1;jettySize=auto;html=1;exitX=0.5;exitY=1;exitDx=0;exitDy=0;entryX=0.5;entryY=0;entryDx=0;entryDy=0;" edge="1" parent="1" source="FnWfrTRd6geeHGJAiOIr-123" target="FnWfrTRd6geeHGJAiOIr-124">
          <mxGeometry relative="1" as="geometry" />
        </mxCell>
        <mxCell id="FnWfrTRd6geeHGJAiOIr-123" value="开启client模块" style="rounded=0;whiteSpace=wrap;html=1;" vertex="1" parent="1">
          <mxGeometry x="190.81" y="-897.5" width="57.5" height="30" as="geometry" />
        </mxCell>
        <mxCell id="FnWfrTRd6geeHGJAiOIr-127" style="edgeStyle=orthogonalEdgeStyle;rounded=0;orthogonalLoop=1;jettySize=auto;html=1;exitX=0.5;exitY=1;exitDx=0;exitDy=0;entryX=0.5;entryY=0;entryDx=0;entryDy=0;" edge="1" parent="1" source="FnWfrTRd6geeHGJAiOIr-124" target="FnWfrTRd6geeHGJAiOIr-126">
          <mxGeometry relative="1" as="geometry" />
        </mxCell>
        <mxCell id="FnWfrTRd6geeHGJAiOIr-124" value="在回调函数中接收server端响应结果" style="whiteSpace=wrap;html=1;" vertex="1" parent="1">
          <mxGeometry x="182.06" y="-837.5" width="77.5" height="40" as="geometry" />
        </mxCell>
        <mxCell id="FnWfrTRd6geeHGJAiOIr-126" value="将结果存入管道，交由watcher上报" style="whiteSpace=wrap;html=1;" vertex="1" parent="1">
          <mxGeometry x="180.81" y="-775" width="77.5" height="40" as="geometry" />
        </mxCell>
        <mxCell id="FnWfrTRd6geeHGJAiOIr-131" style="edgeStyle=orthogonalEdgeStyle;rounded=0;orthogonalLoop=1;jettySize=auto;html=1;exitX=0.5;exitY=1;exitDx=0;exitDy=0;" edge="1" parent="1" source="FnWfrTRd6geeHGJAiOIr-128" target="FnWfrTRd6geeHGJAiOIr-129">
          <mxGeometry relative="1" as="geometry" />
        </mxCell>
        <mxCell id="FnWfrTRd6geeHGJAiOIr-128" value="从属性状态管道中取出响应结果" style="whiteSpace=wrap;html=1;" vertex="1" parent="1">
          <mxGeometry x="75" y="-825" width="85" height="45" as="geometry" />
        </mxCell>
        <mxCell id="FnWfrTRd6geeHGJAiOIr-129" value="进行属性状态上报" style="whiteSpace=wrap;html=1;" vertex="1" parent="1">
          <mxGeometry x="80" y="-760" width="75" height="30" as="geometry" />
        </mxCell>
        <mxCell id="FnWfrTRd6geeHGJAiOIr-137" value="属性状态汇报" style="rounded=0;whiteSpace=wrap;html=1;" vertex="1" parent="1">
          <mxGeometry x="-1250" y="-910" width="80" height="20" as="geometry" />
        </mxCell>
        <mxCell id="FnWfrTRd6geeHGJAiOIr-138" value="" style="rounded=0;whiteSpace=wrap;html=1;" vertex="1" parent="1">
          <mxGeometry x="-1700" y="160" width="210" height="190" as="geometry" />
        </mxCell>
        <mxCell id="FnWfrTRd6geeHGJAiOIr-176" style="edgeStyle=orthogonalEdgeStyle;rounded=0;orthogonalLoop=1;jettySize=auto;html=1;exitX=0.5;exitY=1;exitDx=0;exitDy=0;entryX=0.5;entryY=0;entryDx=0;entryDy=0;" edge="1" parent="1" source="FnWfrTRd6geeHGJAiOIr-141" target="FnWfrTRd6geeHGJAiOIr-143">
          <mxGeometry relative="1" as="geometry" />
        </mxCell>
        <mxCell id="FnWfrTRd6geeHGJAiOIr-141" value="controller" style="rounded=0;whiteSpace=wrap;html=1;fillColor=#2196F3;strokeColor=#2196F3;" vertex="1" parent="1">
          <mxGeometry x="-1680" y="170" width="80" height="30" as="geometry" />
        </mxCell>
        <mxCell id="FnWfrTRd6geeHGJAiOIr-180" style="edgeStyle=orthogonalEdgeStyle;rounded=0;orthogonalLoop=1;jettySize=auto;html=1;exitX=0.5;exitY=1;exitDx=0;exitDy=0;entryX=0.25;entryY=0;entryDx=0;entryDy=0;" edge="1" parent="1" source="FnWfrTRd6geeHGJAiOIr-143" target="FnWfrTRd6geeHGJAiOIr-177">
          <mxGeometry relative="1" as="geometry" />
        </mxCell>
        <mxCell id="FnWfrTRd6geeHGJAiOIr-143" value="action" style="rounded=0;whiteSpace=wrap;html=1;" vertex="1" parent="1">
          <mxGeometry x="-1675" y="230" width="70" height="30" as="geometry" />
        </mxCell>
        <mxCell id="FnWfrTRd6geeHGJAiOIr-181" style="edgeStyle=orthogonalEdgeStyle;rounded=0;orthogonalLoop=1;jettySize=auto;html=1;exitX=0.5;exitY=1;exitDx=0;exitDy=0;entryX=0.817;entryY=0.017;entryDx=0;entryDy=0;entryPerimeter=0;" edge="1" parent="1" source="FnWfrTRd6geeHGJAiOIr-148" target="FnWfrTRd6geeHGJAiOIr-177">
          <mxGeometry relative="1" as="geometry" />
        </mxCell>
        <mxCell id="FnWfrTRd6geeHGJAiOIr-185" style="edgeStyle=orthogonalEdgeStyle;rounded=0;orthogonalLoop=1;jettySize=auto;html=1;exitX=1;exitY=0.5;exitDx=0;exitDy=0;entryX=0;entryY=0;entryDx=0;entryDy=30;entryPerimeter=0;" edge="1" parent="1" source="FnWfrTRd6geeHGJAiOIr-148" target="FnWfrTRd6geeHGJAiOIr-184">
          <mxGeometry relative="1" as="geometry" />
        </mxCell>
        <mxCell id="FnWfrTRd6geeHGJAiOIr-148" value="watcher" style="rounded=0;whiteSpace=wrap;html=1;" vertex="1" parent="1">
          <mxGeometry x="-1570" y="230" width="70" height="30" as="geometry" />
        </mxCell>
        <mxCell id="FnWfrTRd6geeHGJAiOIr-174" value="mapper" style="text;html=1;strokeColor=none;fillColor=none;align=center;verticalAlign=middle;whiteSpace=wrap;rounded=0;" vertex="1" parent="1">
          <mxGeometry x="-1615" y="130" width="40" height="20" as="geometry" />
        </mxCell>
        <mxCell id="FnWfrTRd6geeHGJAiOIr-182" style="edgeStyle=orthogonalEdgeStyle;rounded=0;orthogonalLoop=1;jettySize=auto;html=1;exitX=0.75;exitY=0;exitDx=0;exitDy=0;entryX=0.5;entryY=1;entryDx=0;entryDy=0;" edge="1" parent="1" source="FnWfrTRd6geeHGJAiOIr-177" target="FnWfrTRd6geeHGJAiOIr-148">
          <mxGeometry relative="1" as="geometry" />
        </mxCell>
        <mxCell id="FnWfrTRd6geeHGJAiOIr-177" value="" style="rounded=1;whiteSpace=wrap;html=1;" vertex="1" parent="1">
          <mxGeometry x="-1680" y="280" width="180" height="60" as="geometry" />
        </mxCell>
        <mxCell id="FnWfrTRd6geeHGJAiOIr-179" value="utils" style="rounded=0;whiteSpace=wrap;html=1;" vertex="1" parent="1">
          <mxGeometry x="-1670" y="300" width="30" height="20" as="geometry" />
        </mxCell>
        <mxCell id="FnWfrTRd6geeHGJAiOIr-187" style="edgeStyle=orthogonalEdgeStyle;rounded=0;orthogonalLoop=1;jettySize=auto;html=1;exitX=0.5;exitY=1;exitDx=0;exitDy=0;" edge="1" parent="1" source="FnWfrTRd6geeHGJAiOIr-154" target="FnWfrTRd6geeHGJAiOIr-186">
          <mxGeometry relative="1" as="geometry" />
        </mxCell>
        <mxCell id="FnWfrTRd6geeHGJAiOIr-154" value="client" style="rounded=0;whiteSpace=wrap;html=1;" vertex="1" parent="1">
          <mxGeometry x="-1625" y="297.5" width="120" height="25" as="geometry" />
        </mxCell>
        <mxCell id="FnWfrTRd6geeHGJAiOIr-183" style="edgeStyle=orthogonalEdgeStyle;rounded=0;orthogonalLoop=1;jettySize=auto;html=1;exitX=0.5;exitY=1;exitDx=0;exitDy=0;" edge="1" parent="1" source="FnWfrTRd6geeHGJAiOIr-138" target="FnWfrTRd6geeHGJAiOIr-138">
          <mxGeometry relative="1" as="geometry" />
        </mxCell>
        <mxCell id="FnWfrTRd6geeHGJAiOIr-184" value="mqtt" style="shape=cylinder3;whiteSpace=wrap;html=1;boundedLbl=1;backgroundOutline=1;size=15;" vertex="1" parent="1">
          <mxGeometry x="-1450" y="210" width="40" height="50" as="geometry" />
        </mxCell>
        <mxCell id="FnWfrTRd6geeHGJAiOIr-188" style="edgeStyle=orthogonalEdgeStyle;rounded=0;orthogonalLoop=1;jettySize=auto;html=1;exitX=0.5;exitY=0;exitDx=0;exitDy=0;exitPerimeter=0;" edge="1" parent="1" source="FnWfrTRd6geeHGJAiOIr-186">
          <mxGeometry relative="1" as="geometry">
            <mxPoint x="-1565" y="320" as="targetPoint" />
          </mxGeometry>
        </mxCell>
        <mxCell id="FnWfrTRd6geeHGJAiOIr-186" value="device" style="shape=cylinder3;whiteSpace=wrap;html=1;boundedLbl=1;backgroundOutline=1;size=15;" vertex="1" parent="1">
          <mxGeometry x="-1587.5" y="370" width="45" height="50" as="geometry" />
        </mxCell>
        <mxCell id="FnWfrTRd6geeHGJAiOIr-189" value="mqtt" style="ellipse;whiteSpace=wrap;html=1;aspect=fixed;strokeColor=#2196F3;fillColor=#FFFFFF;" vertex="1" parent="1">
          <mxGeometry x="-2047.5" y="503.5" width="40" height="40" as="geometry" />
        </mxCell>
        <mxCell id="FnWfrTRd6geeHGJAiOIr-190" value="" style="rounded=0;whiteSpace=wrap;html=1;strokeColor=#2196F3;fillColor=#FFFFFF;" vertex="1" parent="1">
          <mxGeometry x="-1952.5" y="480" width="180" height="160" as="geometry" />
        </mxCell>
        <mxCell id="FnWfrTRd6geeHGJAiOIr-191" value="controller" style="text;html=1;strokeColor=none;fillColor=none;align=center;verticalAlign=middle;whiteSpace=wrap;rounded=0;" vertex="1" parent="1">
          <mxGeometry x="-1942.5" y="490" width="40" height="20" as="geometry" />
        </mxCell>
        <mxCell id="FnWfrTRd6geeHGJAiOIr-194" style="edgeStyle=orthogonalEdgeStyle;rounded=0;orthogonalLoop=1;jettySize=auto;html=1;exitX=0.5;exitY=1;exitDx=0;exitDy=0;entryX=0.5;entryY=0;entryDx=0;entryDy=0;entryPerimeter=0;" edge="1" parent="1" source="FnWfrTRd6geeHGJAiOIr-192" target="FnWfrTRd6geeHGJAiOIr-193">
          <mxGeometry relative="1" as="geometry" />
        </mxCell>
        <mxCell id="FnWfrTRd6geeHGJAiOIr-192" value="属性更新回调" style="rounded=0;whiteSpace=wrap;html=1;strokeColor=#2196F3;fillColor=#FFFFFF;" vertex="1" parent="1">
          <mxGeometry x="-1897.5" y="510" width="90" height="27" as="geometry" />
        </mxCell>
        <mxCell id="FnWfrTRd6geeHGJAiOIr-201" style="edgeStyle=orthogonalEdgeStyle;rounded=0;orthogonalLoop=1;jettySize=auto;html=1;exitX=0.5;exitY=1;exitDx=0;exitDy=0;exitPerimeter=0;entryX=0.5;entryY=0;entryDx=0;entryDy=0;" edge="1" parent="1" source="FnWfrTRd6geeHGJAiOIr-193" target="FnWfrTRd6geeHGJAiOIr-197">
          <mxGeometry relative="1" as="geometry">
            <Array as="points">
              <mxPoint x="-1857.5" y="590" />
              <mxPoint x="-1922.5" y="590" />
            </Array>
          </mxGeometry>
        </mxCell>
        <mxCell id="FnWfrTRd6geeHGJAiOIr-202" style="edgeStyle=orthogonalEdgeStyle;rounded=0;orthogonalLoop=1;jettySize=auto;html=1;exitX=0.5;exitY=1;exitDx=0;exitDy=0;exitPerimeter=0;entryX=0.5;entryY=0;entryDx=0;entryDy=0;" edge="1" parent="1" source="FnWfrTRd6geeHGJAiOIr-193" target="FnWfrTRd6geeHGJAiOIr-198">
          <mxGeometry relative="1" as="geometry">
            <Array as="points">
              <mxPoint x="-1857.5" y="590" />
              <mxPoint x="-1867.5" y="590" />
            </Array>
          </mxGeometry>
        </mxCell>
        <mxCell id="FnWfrTRd6geeHGJAiOIr-205" style="edgeStyle=orthogonalEdgeStyle;rounded=0;orthogonalLoop=1;jettySize=auto;html=1;exitX=0.5;exitY=1;exitDx=0;exitDy=0;exitPerimeter=0;entryX=0.5;entryY=0;entryDx=0;entryDy=0;" edge="1" parent="1" source="FnWfrTRd6geeHGJAiOIr-193" target="FnWfrTRd6geeHGJAiOIr-199">
          <mxGeometry relative="1" as="geometry">
            <Array as="points">
              <mxPoint x="-1857.5" y="590" />
              <mxPoint x="-1807.5" y="590" />
            </Array>
          </mxGeometry>
        </mxCell>
        <mxCell id="FnWfrTRd6geeHGJAiOIr-193" value="" style="strokeWidth=2;html=1;shape=mxgraph.flowchart.direct_data;whiteSpace=wrap;fillColor=#FFFFFF;" vertex="1" parent="1">
          <mxGeometry x="-1887.5" y="560" width="60" height="20" as="geometry" />
        </mxCell>
        <mxCell id="FnWfrTRd6geeHGJAiOIr-197" value="worker" style="rounded=1;whiteSpace=wrap;html=1;strokeColor=#2196F3;fillColor=#FFFFFF;" vertex="1" parent="1">
          <mxGeometry x="-1947.5" y="610" width="50" height="15" as="geometry" />
        </mxCell>
        <mxCell id="FnWfrTRd6geeHGJAiOIr-211" style="edgeStyle=orthogonalEdgeStyle;rounded=0;orthogonalLoop=1;jettySize=auto;html=1;exitX=0.5;exitY=1;exitDx=0;exitDy=0;entryX=0.5;entryY=0;entryDx=0;entryDy=0;" edge="1" parent="1" source="FnWfrTRd6geeHGJAiOIr-198" target="FnWfrTRd6geeHGJAiOIr-208">
          <mxGeometry relative="1" as="geometry" />
        </mxCell>
        <mxCell id="FnWfrTRd6geeHGJAiOIr-198" value="worker" style="rounded=1;whiteSpace=wrap;html=1;strokeColor=#2196F3;fillColor=#FFFFFF;" vertex="1" parent="1">
          <mxGeometry x="-1892.5" y="610" width="50" height="15" as="geometry" />
        </mxCell>
        <mxCell id="FnWfrTRd6geeHGJAiOIr-212" style="edgeStyle=orthogonalEdgeStyle;rounded=0;orthogonalLoop=1;jettySize=auto;html=1;exitX=0.5;exitY=1;exitDx=0;exitDy=0;entryX=0.5;entryY=0;entryDx=0;entryDy=0;" edge="1" parent="1" source="FnWfrTRd6geeHGJAiOIr-199" target="FnWfrTRd6geeHGJAiOIr-208">
          <mxGeometry relative="1" as="geometry" />
        </mxCell>
        <mxCell id="FnWfrTRd6geeHGJAiOIr-199" value="worker" style="rounded=1;whiteSpace=wrap;html=1;strokeColor=#2196F3;fillColor=#FFFFFF;" vertex="1" parent="1">
          <mxGeometry x="-1832.5" y="610" width="50" height="15" as="geometry" />
        </mxCell>
        <mxCell id="FnWfrTRd6geeHGJAiOIr-200" style="edgeStyle=orthogonalEdgeStyle;rounded=0;orthogonalLoop=1;jettySize=auto;html=1;exitX=1;exitY=0.5;exitDx=0;exitDy=0;entryX=0;entryY=0.5;entryDx=0;entryDy=0;" edge="1" parent="1" source="FnWfrTRd6geeHGJAiOIr-189" target="FnWfrTRd6geeHGJAiOIr-192">
          <mxGeometry relative="1" as="geometry" />
        </mxCell>
        <mxCell id="FnWfrTRd6geeHGJAiOIr-206" value="" style="rounded=0;whiteSpace=wrap;html=1;strokeColor=#2196F3;fillColor=#FFFFFF;" vertex="1" parent="1">
          <mxGeometry x="-1952.5" y="690" width="180" height="90" as="geometry" />
        </mxCell>
        <mxCell id="FnWfrTRd6geeHGJAiOIr-207" value="action" style="text;html=1;strokeColor=none;fillColor=none;align=center;verticalAlign=middle;whiteSpace=wrap;rounded=0;" vertex="1" parent="1">
          <mxGeometry x="-1942.5" y="695" width="40" height="20" as="geometry" />
        </mxCell>
        <mxCell id="FnWfrTRd6geeHGJAiOIr-208" value="触发行为" style="rounded=1;whiteSpace=wrap;html=1;strokeColor=#2196F3;fillColor=#FFFFFF;" vertex="1" parent="1">
          <mxGeometry x="-1887.5" y="737.5" width="50" height="25" as="geometry" />
        </mxCell>
        <mxCell id="FnWfrTRd6geeHGJAiOIr-209" style="edgeStyle=orthogonalEdgeStyle;rounded=0;orthogonalLoop=1;jettySize=auto;html=1;exitX=0.5;exitY=1;exitDx=0;exitDy=0;entryX=0.5;entryY=0;entryDx=0;entryDy=0;" edge="1" parent="1" source="FnWfrTRd6geeHGJAiOIr-197" target="FnWfrTRd6geeHGJAiOIr-208">
          <mxGeometry relative="1" as="geometry" />
        </mxCell>
        <mxCell id="FnWfrTRd6geeHGJAiOIr-213" value="" style="rounded=0;whiteSpace=wrap;html=1;strokeColor=#2196F3;fillColor=#FFFFFF;" vertex="1" parent="1">
          <mxGeometry x="-1952.5" y="815" width="512.5" height="115" as="geometry" />
        </mxCell>
        <mxCell id="FnWfrTRd6geeHGJAiOIr-214" value="client" style="text;html=1;strokeColor=none;fillColor=none;align=center;verticalAlign=middle;whiteSpace=wrap;rounded=0;" vertex="1" parent="1">
          <mxGeometry x="-1942.5" y="820" width="40" height="20" as="geometry" />
        </mxCell>
        <mxCell id="FnWfrTRd6geeHGJAiOIr-218" style="edgeStyle=orthogonalEdgeStyle;rounded=0;orthogonalLoop=1;jettySize=auto;html=1;exitX=0.25;exitY=1;exitDx=0;exitDy=0;entryX=0;entryY=0;entryDx=0;entryDy=0;" edge="1" parent="1" source="FnWfrTRd6geeHGJAiOIr-215" target="FnWfrTRd6geeHGJAiOIr-217">
          <mxGeometry relative="1" as="geometry" />
        </mxCell>
        <mxCell id="FnWfrTRd6geeHGJAiOIr-215" value="发送请求" style="rounded=1;whiteSpace=wrap;html=1;strokeColor=#2196F3;fillColor=#FFFFFF;" vertex="1" parent="1">
          <mxGeometry x="-1932.5" y="845" width="210" height="25" as="geometry" />
        </mxCell>
        <mxCell id="FnWfrTRd6geeHGJAiOIr-220" style="edgeStyle=orthogonalEdgeStyle;rounded=0;orthogonalLoop=1;jettySize=auto;html=1;exitX=1;exitY=0;exitDx=0;exitDy=0;entryX=0.25;entryY=1;entryDx=0;entryDy=0;" edge="1" parent="1" source="FnWfrTRd6geeHGJAiOIr-217" target="FnWfrTRd6geeHGJAiOIr-219">
          <mxGeometry relative="1" as="geometry" />
        </mxCell>
        <mxCell id="FnWfrTRd6geeHGJAiOIr-217" value="device" style="ellipse;whiteSpace=wrap;html=1;aspect=fixed;strokeColor=#2196F3;fillColor=#FFFFFF;" vertex="1" parent="1">
          <mxGeometry x="-1902.5" y="970" width="50" height="50" as="geometry" />
        </mxCell>
        <mxCell id="FnWfrTRd6geeHGJAiOIr-222" style="edgeStyle=orthogonalEdgeStyle;rounded=0;orthogonalLoop=1;jettySize=auto;html=1;exitX=1;exitY=0.5;exitDx=0;exitDy=0;entryX=0;entryY=0.5;entryDx=0;entryDy=0;entryPerimeter=0;" edge="1" parent="1" source="FnWfrTRd6geeHGJAiOIr-219" target="FnWfrTRd6geeHGJAiOIr-221">
          <mxGeometry relative="1" as="geometry" />
        </mxCell>
        <mxCell id="FnWfrTRd6geeHGJAiOIr-219" value="请求回调" style="rounded=1;whiteSpace=wrap;html=1;strokeColor=#2196F3;fillColor=#FFFFFF;" vertex="1" parent="1">
          <mxGeometry x="-1887.5" y="885" width="95" height="20" as="geometry" />
        </mxCell>
        <mxCell id="FnWfrTRd6geeHGJAiOIr-221" value="" style="strokeWidth=2;html=1;shape=mxgraph.flowchart.direct_data;whiteSpace=wrap;fillColor=#FFFFFF;" vertex="1" parent="1">
          <mxGeometry x="-1672.5" y="885" width="60" height="20" as="geometry" />
        </mxCell>
        <mxCell id="FnWfrTRd6geeHGJAiOIr-223" value="" style="rounded=0;whiteSpace=wrap;html=1;strokeColor=#2196F3;fillColor=#FFFFFF;" vertex="1" parent="1">
          <mxGeometry x="-1752.5" y="690" width="282.5" height="90" as="geometry" />
        </mxCell>
        <mxCell id="FnWfrTRd6geeHGJAiOIr-224" value="watcher" style="text;html=1;strokeColor=none;fillColor=none;align=center;verticalAlign=middle;whiteSpace=wrap;rounded=0;" vertex="1" parent="1">
          <mxGeometry x="-1742.5" y="695" width="40" height="20" as="geometry" />
        </mxCell>
        <mxCell id="FnWfrTRd6geeHGJAiOIr-216" style="edgeStyle=orthogonalEdgeStyle;rounded=0;orthogonalLoop=1;jettySize=auto;html=1;exitX=0.5;exitY=1;exitDx=0;exitDy=0;entryX=0.5;entryY=0;entryDx=0;entryDy=0;" edge="1" parent="1" source="FnWfrTRd6geeHGJAiOIr-208" target="FnWfrTRd6geeHGJAiOIr-215">
          <mxGeometry relative="1" as="geometry" />
        </mxCell>
        <mxCell id="FnWfrTRd6geeHGJAiOIr-227" style="edgeStyle=orthogonalEdgeStyle;rounded=0;orthogonalLoop=1;jettySize=auto;html=1;exitX=0.5;exitY=1;exitDx=0;exitDy=0;entryX=0.75;entryY=0;entryDx=0;entryDy=0;" edge="1" parent="1" source="FnWfrTRd6geeHGJAiOIr-226" target="FnWfrTRd6geeHGJAiOIr-215">
          <mxGeometry relative="1" as="geometry" />
        </mxCell>
        <mxCell id="FnWfrTRd6geeHGJAiOIr-226" value="属性监控" style="rounded=1;whiteSpace=wrap;html=1;strokeColor=#2196F3;fillColor=#FFFFFF;" vertex="1" parent="1">
          <mxGeometry x="-1749.5" y="737.5" width="57" height="20" as="geometry" />
        </mxCell>
        <mxCell id="FnWfrTRd6geeHGJAiOIr-228" value="" style="rounded=1;whiteSpace=wrap;html=1;strokeColor=#2196F3;fillColor=#FFFFFF;" vertex="1" parent="1">
          <mxGeometry x="-1679.5" y="715" width="189.5" height="55" as="geometry" />
        </mxCell>
        <mxCell id="FnWfrTRd6geeHGJAiOIr-229" style="edgeStyle=orthogonalEdgeStyle;rounded=0;orthogonalLoop=1;jettySize=auto;html=1;exitX=0.5;exitY=0;exitDx=0;exitDy=0;exitPerimeter=0;entryX=0.5;entryY=1;entryDx=0;entryDy=0;" edge="1" parent="1" source="FnWfrTRd6geeHGJAiOIr-221" target="FnWfrTRd6geeHGJAiOIr-228">
          <mxGeometry relative="1" as="geometry" />
        </mxCell>
        <mxCell id="FnWfrTRd6geeHGJAiOIr-230" value="属性状态汇报" style="text;html=1;strokeColor=none;fillColor=none;align=center;verticalAlign=middle;whiteSpace=wrap;rounded=0;" vertex="1" parent="1">
          <mxGeometry x="-1679.5" y="750" width="80" height="25" as="geometry" />
        </mxCell>
        <mxCell id="FnWfrTRd6geeHGJAiOIr-237" style="edgeStyle=orthogonalEdgeStyle;rounded=0;orthogonalLoop=1;jettySize=auto;html=1;exitX=0.5;exitY=0;exitDx=0;exitDy=0;entryX=0.5;entryY=1;entryDx=0;entryDy=0;" edge="1" parent="1" source="FnWfrTRd6geeHGJAiOIr-232" target="FnWfrTRd6geeHGJAiOIr-235">
          <mxGeometry relative="1" as="geometry" />
        </mxCell>
        <mxCell id="FnWfrTRd6geeHGJAiOIr-232" value="worker" style="rounded=1;whiteSpace=wrap;html=1;strokeColor=#2196F3;fillColor=#FFFFFF;" vertex="1" parent="1">
          <mxGeometry x="-1672.5" y="735" width="50" height="15" as="geometry" />
        </mxCell>
        <mxCell id="FnWfrTRd6geeHGJAiOIr-238" style="edgeStyle=orthogonalEdgeStyle;rounded=0;orthogonalLoop=1;jettySize=auto;html=1;exitX=0.5;exitY=0;exitDx=0;exitDy=0;" edge="1" parent="1" source="FnWfrTRd6geeHGJAiOIr-233">
          <mxGeometry relative="1" as="geometry">
            <mxPoint x="-1585" y="650" as="targetPoint" />
          </mxGeometry>
        </mxCell>
        <mxCell id="FnWfrTRd6geeHGJAiOIr-233" value="worker" style="rounded=1;whiteSpace=wrap;html=1;strokeColor=#2196F3;fillColor=#FFFFFF;" vertex="1" parent="1">
          <mxGeometry x="-1610" y="735" width="50" height="15" as="geometry" />
        </mxCell>
        <mxCell id="FnWfrTRd6geeHGJAiOIr-239" style="edgeStyle=orthogonalEdgeStyle;rounded=0;orthogonalLoop=1;jettySize=auto;html=1;exitX=0.5;exitY=0;exitDx=0;exitDy=0;" edge="1" parent="1" source="FnWfrTRd6geeHGJAiOIr-234">
          <mxGeometry relative="1" as="geometry">
            <mxPoint x="-1580" y="650" as="targetPoint" />
          </mxGeometry>
        </mxCell>
        <mxCell id="FnWfrTRd6geeHGJAiOIr-234" value="worker" style="rounded=1;whiteSpace=wrap;html=1;strokeColor=#2196F3;fillColor=#FFFFFF;" vertex="1" parent="1">
          <mxGeometry x="-1550" y="735" width="50" height="15" as="geometry" />
        </mxCell>
        <mxCell id="FnWfrTRd6geeHGJAiOIr-235" value="mqtt" style="ellipse;whiteSpace=wrap;html=1;aspect=fixed;strokeColor=#2196F3;fillColor=#FFFFFF;" vertex="1" parent="1">
          <mxGeometry x="-1605" y="610" width="40" height="40" as="geometry" />
        </mxCell>
        <mxCell id="FnWfrTRd6geeHGJAiOIr-241" value="" style="rounded=1;whiteSpace=wrap;html=1;strokeColor=#2196F3;fillColor=#FFFFFF;" vertex="1" parent="1">
          <mxGeometry x="-1365" y="130" width="255" height="180" as="geometry" />
        </mxCell>
        <mxCell id="FnWfrTRd6geeHGJAiOIr-242" value="&lt;font style=&quot;font-size: 18px&quot; color=&quot;#2196f3&quot;&gt;mapper&lt;/font&gt;" style="text;html=1;align=center;verticalAlign=middle;resizable=0;points=[];autosize=1;" vertex="1" parent="1">
          <mxGeometry x="-1280" y="105" width="80" height="20" as="geometry" />
        </mxCell>
        <mxCell id="FnWfrTRd6geeHGJAiOIr-246" style="edgeStyle=orthogonalEdgeStyle;rounded=0;orthogonalLoop=1;jettySize=auto;html=1;exitX=0.5;exitY=1;exitDx=0;exitDy=0;entryX=0.5;entryY=0;entryDx=0;entryDy=0;" edge="1" parent="1" source="FnWfrTRd6geeHGJAiOIr-243" target="FnWfrTRd6geeHGJAiOIr-244">
          <mxGeometry relative="1" as="geometry" />
        </mxCell>
        <mxCell id="FnWfrTRd6geeHGJAiOIr-243" value="&lt;font color=&quot;#ffffff&quot;&gt;controller&lt;/font&gt;" style="rounded=1;whiteSpace=wrap;html=1;strokeColor=#2196F3;fillColor=#2196F3;" vertex="1" parent="1">
          <mxGeometry x="-1340" y="150" width="80" height="30" as="geometry" />
        </mxCell>
        <mxCell id="FnWfrTRd6geeHGJAiOIr-249" style="edgeStyle=orthogonalEdgeStyle;rounded=0;orthogonalLoop=1;jettySize=auto;html=1;exitX=0.5;exitY=1;exitDx=0;exitDy=0;entryX=0.2;entryY=0;entryDx=0;entryDy=0;entryPerimeter=0;" edge="1" parent="1" source="FnWfrTRd6geeHGJAiOIr-244" target="FnWfrTRd6geeHGJAiOIr-248">
          <mxGeometry relative="1" as="geometry" />
        </mxCell>
        <mxCell id="FnWfrTRd6geeHGJAiOIr-244" value="&lt;font color=&quot;#ffffff&quot;&gt;action&lt;/font&gt;" style="rounded=1;whiteSpace=wrap;html=1;strokeColor=#2196F3;fillColor=#2196F3;" vertex="1" parent="1">
          <mxGeometry x="-1340" y="200" width="80" height="30" as="geometry" />
        </mxCell>
        <mxCell id="FnWfrTRd6geeHGJAiOIr-252" style="edgeStyle=orthogonalEdgeStyle;rounded=0;orthogonalLoop=1;jettySize=auto;html=1;exitX=1;exitY=0.5;exitDx=0;exitDy=0;entryX=0;entryY=0.5;entryDx=0;entryDy=0;" edge="1" parent="1" source="FnWfrTRd6geeHGJAiOIr-247" target="FnWfrTRd6geeHGJAiOIr-251">
          <mxGeometry relative="1" as="geometry" />
        </mxCell>
        <mxCell id="FnWfrTRd6geeHGJAiOIr-247" value="&lt;font color=&quot;#ffffff&quot;&gt;watcher&lt;/font&gt;" style="rounded=1;whiteSpace=wrap;html=1;strokeColor=#2196F3;fillColor=#2196F3;" vertex="1" parent="1">
          <mxGeometry x="-1220" y="200" width="80" height="30" as="geometry" />
        </mxCell>
        <mxCell id="FnWfrTRd6geeHGJAiOIr-248" value="&lt;font color=&quot;#ffffff&quot;&gt;client&lt;/font&gt;" style="rounded=1;whiteSpace=wrap;html=1;strokeColor=#2196F3;fillColor=#2196F3;" vertex="1" parent="1">
          <mxGeometry x="-1340" y="260" width="200" height="30" as="geometry" />
        </mxCell>
        <mxCell id="FnWfrTRd6geeHGJAiOIr-250" value="" style="endArrow=classic;startArrow=classic;html=1;entryX=0.5;entryY=1;entryDx=0;entryDy=0;exitX=0.8;exitY=0;exitDx=0;exitDy=0;exitPerimeter=0;" edge="1" parent="1" source="FnWfrTRd6geeHGJAiOIr-248" target="FnWfrTRd6geeHGJAiOIr-247">
          <mxGeometry width="50" height="50" relative="1" as="geometry">
            <mxPoint x="-1220" y="370" as="sourcePoint" />
            <mxPoint x="-1170" y="320" as="targetPoint" />
          </mxGeometry>
        </mxCell>
        <mxCell id="FnWfrTRd6geeHGJAiOIr-251" value="" style="shape=image;verticalLabelPosition=bottom;labelBackgroundColor=#ffffff;verticalAlign=top;aspect=fixed;imageAspect=0;image=data:image/png,iVBORw0KGgoAAAANSUhEUgAAAMgAAADICAYAAACtWK6eAAAgAElEQVR4Xu19a5hcRbX2++7unnAH5aAokERImL07mSAS7uABERCVmwLi5Sh44SKCBz5IQnpPHDI9CQkK54jCAZWLd1ABBS+Ih08P4ieKckIys/eEAJkQEbwdDgiY6e69vmf3TJK59XR3Ve3pnkzt54H8mFqr1nprv121q1atRdjHImARqIgALTYWAYtAZQQsQezbYREYBwFLEPt6WAQsQew7YBFQQ8DOIGq4WakpgoAlyBQZaOumGgKWIGq4WakpgoAlyBQZaOumGgKWIGq4WakpgoAlyBQZaOumGgKWIGq4WakpgoAlyBQZaOumGgKWIGq4WakpgoAlyBQZaOumGgKWIGq4WakpgoAlyBQZaOumGgKWIGq4WakpgoAlyBQZaOumGgKWIGq4WakpgoAlyBQZaOumGgKWIGq4WakpgoAlyBQZaOumGgKWIGq4WakpgoAlyBQZaOumGgKWIGq4WakpgoAlyBQZaOumGgKWIGq4WakpgoAlyBQZaOumGgINJ4gsnXMAUDoQDmYDPADAc4D0AHiCfnivmltWajIhIHn3ZKA8/lkAewKyChGeAJxVXNLzWCN9aShBJJ+9AJA8gN0rgPAAioUz2LHuxUaCZPtOBgHpmLUL0pnvAji+Qg+vQOQatocdyVhQXWvDCCKd3u0gPlzdRADkgcz1/HdNbW2jSYGAdGXfDJEaZwfeT7/nHY1wrCEEkXz2VkDOqcPhF+gHr6mjvW3a5AhI3vsfALvVYeaX6Afn1dHeSNMJJ4h0up8HeXHd1otcz/bwkrrlrEDTIaD8DgCX0g/+bSIdmlCCSJeXhyCn7mBqOv01z6jLW8lGIyD5ufsApQ3KdpDvZK7nx8rydQpOGEEk7y4CuLxO+4Y3J05gLnhAS4cVbigC0uUdD8FPtYxweBgX9zyipaNG4QkhiOTdTwG8vkabxmkmF9MPv6Cvx2poFALG3gXB/mwPnkjaj8QJIl3uORDeasYRXki/5z/M6LJaGoHA4Nb+jQb6fgKOHM7F4V8N6KqoIlGCyDLvNES425gDIseyPfy5MX1W0YQjIJ3uMSD/r5GOKT/A4vA0EmJE3xhKEiOIdLS+EWnnZwA8c8aX9qa/9g/m9FlNE42A5PffC0htNNcvb6Pfc645fcM1JUeQ+s86qvn4FfrBx6s1sn9vfgQk730ZwMfMWcpr6ff8H3P6tmpKhCDS6V0I4gaDBnejyLezo+c5gzqtqgYhIB3ZPZGWeHUxx5gJgsvYHlxnTN+gIuMEkS7vLRDEzps7+XZwOhcH95h23uprHALGv0+BlwG+jX7Pb0x6ZZ4g+exPADnRmJHkx5jrucWYPquoaRCQruxHIfIVgwb9lH5g7t2LwwANGgfJZ68CZIkxnQlNm8bss4q0EZBO71IQ12or2qJAPkM/XGpKnzGCSKf3ThA/NGUYRK5qZJizMT+soqoISKfbAfIzVRvW2kBwPNuDeJmv/RghiHRkd0Ja/gvAgdoWxQqI65gLLjOiyyqZFAhIl3ctBJcaMvbX2OGlt/Gyja/q6jNDkE53GcgrdY0ZlL+FfmBwC9CQVVZN4ghI3ou/Rz5qpCORz7E9vFxXlzZBZGn2aDjl2cPEczf94D0mFFkdkxMByXt3ATjdkPXvoR9oRXLoEyTv/QjASQYc6oMjJ3BxuNaALqtikiIgy9z9ETGO9p1hwIVuMHUcc2ueV9WlRRDpyl4Mkc+rdj5Mjng/c8G3jeiySiY1AtLlnQ3Bt8w4wZvp95yvqkuZILJ8ziwUo4fAOAuF5kNcw1ywQFOLFd+GEJAubyUEV5hxSc6hH96uokudIHn3FoAGgsTkQRTD49mBSMUBK7NtIiAdcJB2H4hPx7U9JB5hLjhMRY8SQSSfPROQO1U6HCHzAhAdT7/3UQO6rIptDAHJt84HnPgGaT3JHcZGgfJB5sJv1guRIkG83wKYX29no9pTzmcuvFlbTx0KRJAuhumj0m7xlySKdYhO2aaNxEy63PMgvMkA+D+jH1TKv1VRfd0Eka45H4BE3zBg8B30g7MN6KmqQh7FDtGO6QWO48wXkRikFgD9JB+IoujRlFdsWGKyqsY3sEEpSHdUwsx5ubiS8/HKRJgneS/evHmffl9ySr3ZOusnSN67H8AJmsZuQiRHckn4O009VcWlt+VsiWQBWPmUn5Bn4TgXc//+eA9+yj+ytuU9iKLrBXxjRTAEj9HhSrb2J77zKEvdg+DwYQDTNAen7nO2uggiXdmTIBKfe+g+efpBu66SavKlMH0FwZXV2m3+Ox0cxv0LE5Ito1abJrqdrM0cKhF+XWu/AlmQcovX1NpetZ3kvU4Avqr8Frk6r23XRxAzU90apDcdxUVP/a+2s+MokN7MR0RwWz19kHge+xf2nqrfJvG3BtZmNorg9XXidg5bC0rbqLX2I1fvuyuK034JYG6tMhXa3U4/qDmrZ80EkaXZQ+FIzb8slZ1Q35OuFRhZm3q3RI5SZngSn2NrQTuGp1Zbm6md9GY+KwKlq6t0opO5f+m+JP2RvPsRgHX96I1pTyTza13e106QLu8GCC7UAoC4h7nAVJzNmKZIkD5CyB+MkzF+fBeIJ53WwiwtPyepcNSbWQfBform/5Uip9Ar/kpRviYx6fLuhuC0mhpXbMQv0O+pKf1tTQSRTm82iDi7+g56hsmR9MPEAJR102ZJMYp/xVp17GSq8DrOxp91dEw2WXkCe0gp8ydNu3uZdt7NWZvWaeqpKC559wig/MGu87wMwYG1JJ6rlSB5UCenbuyLXkxMLWhIb8t9IvKuWtqO16YkcmzGK06p/FuFIH1MykC+KpI/ZGv/u3XHYDx5yWdvAkQv07twOdt7FlezsypBpCPbggwCiOxbTdm4f69j3afSTynIXEuauXDDQmFPtkE5AlTF/kbLyGq8XjIZI1ljRHBdyiskduFtcNtXL/pC8BxKpTZ2rP3LeNhXJ0hX9iyI3KE3gMnOHrI2c75EMJWS9BnHLUzX83dySkdhJs66vo8J6+ngAu5fMHECPqY5RmYR4hPMBXGOropPdYLkvTh+5f1aoCU4e0iYPlbAOB2+7iHSoIvyfcctan4EaqHVMOEoTN8D8FRDBmwi5CS6RTNpRkcYZWQWAe6jH8T1EdUIInkvvrQSANheHbTkZg95AtNQyvxKgLeo2zdEkniVwD+ztRDHmk25R3ozBwvwC4jOeG+FjcDvkSocwdnYlASYhmaRNuaCNZXsG3cGkU7v0yD0KvokOXv0pheJaNYcGcYP8ekWu5IYzMmiU8J0TsC4sKqRh5Qr2Vq82oiyZGaRdvpBRX/HJ0hX9kGIHKvuXJKzx7T9pBT9PwB7qNs3RFJ4n+P1jzvdGulnEiiJgpZ7QTG1E/VnppzDOXvTk0m4bmAWeZR+cHDdM4gsyx6KSPPkPMFyWaUw80UCnzQBenkpgMzJdF951oS+ya5Dwh3eCBTuNbV0FeCGlFu4KAlcjMQHjpNHq+IMIvnsckAWaTi1jn4wW0O+oqipPftyB4Ln6eDkqfrdUQnk8vdIhHvB+uKyKulL8mxJ8l5caUo9+oH4d+aCfx3L9vEIEgDiKr/gCValjcL09wGeomzbsO8Onka3//smdG1rOiRsOVUghpKGyw8ct2hqh2wY1BpVczfr6aYfjBkEOSZBZKl7OBzqhYQktLySIH2ikD8x8TKSuIitBZNlGkyY1VQ6pDfzSRF80YRRFHkHvWJ8n8joY2SZFfEwLhldGHRsgnR5l0K0EgontrySMHOHAGfpIkywi26//v0CXUMmgbyELXmBaJTvHnCSwJ10CwZuBo4GTX+ZJR3MhVeN1Dw2QfJenJDhTOWxS2h5Jb3po0WoncVRiNtSrQUDGVmUEZp0gqXezK0U1HyPopKDpLyVrcWHTANgYJn1S/rB0bURpNN9BuTeyk4ktbzqzdwq2oMkG1+NiofsmMUflf0zIDhz9fJjRHgc6ewsIrvAQflfh84mQP4YlaI/gqlnQTwblfof2/hmv6G1GV/uwRu2d9K/ATTei3gWIW5jAj9ORpZZRWd3dnT/bejwjppBZOmcA+BEcWi72iOyke2hkXieoQbIusxBUoRegFp500r8VAMOA6c/vvw1dFJvg0THQXgGWOf5DfEYhD+G4OFUf/TwU/MXJXojc6zBL4XpHA0cIjKN+ZxVMJ6PQHR/2MEP0e8ZlpBkNEG6vIsg+IIaO8pS36EfaH8jjOy/FLYsJUT3HvtTLBUO5hwM+5XQ8LWq6L6PXr1raRouApxPArJXVYFaGhDPSin6EjPb3dSXvXTCZkLpxmsllYnDcLQiuwXsTLn95gotDWImup8GxI3MBcPO1kYTRPfeOXEZc+aLKUqY+Z3uwRVFrqBX/Gwt76B2mzvvTE33nr5o8DBT6wJXRVsaQBQJ0pcLqZWkIT6YpVs4SBvjEQpEd3NJ5GG2h0eNv8TSnaYSiL0ydDAYcLfCwdwzLvaY7DPwfeF8DjQURFnNXOJZgJ/pm7tg3NDtampq+bs8hx3lhfIs4tXSvlKbJA4ODUT4vkg/2LUiQaRj9r5Ip9VjZpL6/ghbrhGIViIFAT6dcgtmMtGP82ZMX33NhyjRzaCZiNh6XkKKrFw/b9HCemRU2pbCzCUE/l1FdrMMwc/S7TeUnHqrJdrfIUV5EzvC9VvtHOKldLaeATrf0XA8ke+PKMzEIffqp/rAKv69cDDno6DhW1XR6atXaL84VTup1oD4bt/chepb9NX0xxsdjyIjO5VnkQNqaF6pSei4Ba1ZaCzF2t8hGJ59cdg3iOS9+OAsTtCl9iSQa9fEyTkFF9BL7nZbDNb0Vcs76DjmClGqjcCAlPDBvnkLjtNRUU1Wgsz5Qr1bnEmcrGvn8iV85oItVx5GEMT9OsAPVgOn4t9Txf145RNPKcuPIVgKWrpIqXq5fpw+XyQL+7EV49491rF5+pqVR1IkTmrWPE8Ev++AhYndbZFe/JNIJl6O76LqtAiXpbx+7RP6of3L8tn7oqTxmQAMyxk9cgaJ96ZVb+f9hX5g5m7GEI+jMBOfnI864ax5UES+53jFM2puX2fDvX+3fFaqxYmjSZvuoeD09fMWGgo2HO1eFKS/C/K9Go4/5LiFt2rIjykqeS9O2fRPinofpx9sWTqOJEi8w6Oa+2rMo3pFIwdWCo9hN9k+8z86Okicz9ZCIiUW9uju2GmHaPs4SZ3GpTId76rLMoXD12cXGsiIObov6c2cJwKtxAx8tfAaHogXqntSewvJe3Eoy7Dt2tql8Sr9YAsHthBErs5OR1H66lA0sumX6Qef0JAfJVrsaTnNcUS9SikR0SnsmVQSuBlrVtwMgVGfTeI38CuD3/eFbzoEZ51VMq27nGwuyjwHgaOqO4p4ejrbb3SWk7z3JQAfV7UJKO1Nf205tGcrQTrdE0BqhCLzCvo9Rg/hJMxcJ8CYF1lqc573O27/O2prW1+rpvzuqOBCvMW9oW1hIlvcUdjyE0BOrA+9ra0J/BvdwqWq8mPJST57OSDqh5lDMsAPIYhmggaRk9keGk1eHAWZX4M4VBW8JO97zHh8xTdBzXRIqo7VL9eb2iSHJhG/pX1fRPCI4xWU6gdWgkE63XeDVEpeXtY5JF/WVoLkvRsBXFA/9oMSKWc2r+w2mpM1CjNxdsPXqdqUVI7dmWuuPlHEzKUtVd/ql5NcX9uiZfXLjS9hIKfvnxy3UFe5hWo+lCswlyKdjZOV9IPygetQgsQJvo6p1nmFvxfpBxlF2THFZBV2lGmZv2vo/LnjFhL5eJ65euUPBGI+A4rIWtCJtK46VwSMfyg56Xkb51xmPFAzCjM67w64qbATDzAbAiR5Lz4UTiu9P8RdzAXl3bmhBNHZ4l1DP2hTMqbSunldy1wpympVnRTJ0Ssa/8Wc+djymZJ2nla1a6ScRNFVdPjbdJT67ZMHXFHOrj7z6et2kxf/8RY4zoFAuVa4mV9YwYf65i00UV9ymBsSpBcLqXzmwjTbOKu/YvI2Fawl78XvjlqxnSFlo4cSZC0A1SwkShVEx3O8GE47xUGknEyB8TqytWA8eG9G94pPIcL1KoM2QuZJCC/pm7dg3JJ2e/93fq90quUWgejWhYy7/0Zf28IPGbB9OEF6Mx8XQbxzpPREcE5Nu5vi7XJjj+S9uHz02xUVbrkyPpQgcWZv1V+qqjlO6zW0FGY+He9w1Cu3uT3hnErDoMe6Z6xZ8SMITlK1K5aLZ40NB1xZV2XdGauXnw44ukVG/9bXtnB3HdvHkpVw2imi8WMW71Sm3IJW8OOomTnvxR/pqsnv/kY/KOM0lCDqh4Tkd5nrMRogJ2HLSoEoR3vGB2ScXTB6QJbt7mh5OdpeL88s+Ujf3AVKuzbTV6/4DIG6iDXyxXHAE59uW/BTkySRJzKHSQlxlkulh+A1dPsXKAlXEJKu7HcgohxBQT8oc6P8P7nzzBTWrikqG0h8nbngX5TlxxAUzfvn/QVn1nZtZtNdvmn1yhMiiMZZEVASmbdx3iLlb6sZa1b+GiLKW98CLN/QtlAntm3UaP1j9bT9WjKR8g5mEvfUpcv7GgTqy8nB++kDBFne9hqUijq7G8ZP0aOw5YeAvFOVdERhF7p4SVV+LLmZ3SvOlQi3qOpUWVqN7Guf7hWnOBHUv83Ar65vW/ARVR/GXmJhZ0HmRXWd/JHj9mtXBhvav/Zp+uCxxQBBtMNMai+KWCuIUZj5DYCKSYWr6HnVcQuqMWUVVc9Ys9KHiPJ1AEp07vp5V2pVaZ3++PJ9SUfjUhv+s2/eQtWP14rYRGHmFY0yGb913MIhtb4btbSTfPZ6QD5VS9sx2wwmkhsgSJc3FwLlaR+Qz9IPlb8XxjIwCjPxVupMRQf7HLegKluxy+mrV9xIjcNUIY/aMHeBbgFKzFi9Ip4Zd1LDRsK+tkXGLypFYSa+hRfXk1F51jtu4U0qgpVkJO9eA1D9FqrjHMXF3Q8PEGSZezgirVSjefqBbsaRYb5GYfmQcEdF0Iz/IsV26B4QFjal9nh2/uXa91JmPL5iNai4xw+81Ne2UPkOR6Xx0JzxX3bcgiLhx7ZI8l4806tnzhzMrWAJUgcDdQlScjK7mzjJnrF6RZy3TPW6qyVILWPuOHO4uLvHLrFqAWuwje4Si1HpsPUHLH6kji7HbDpj9Yr4g3hnNT12iVUTbhLty/bep+1Hek1oDTTS/UiPtx11Qz20Q13EfqTXNOQtfAMX9Dxnt3lrQmugUTNs885Yfc3pQKR8ok67zVvbiKc37cZFT/2vPSisDa5yKxMHhRC+q1r81XgmzVi9Ij6Q268Os4c1tQeFNSL3fGE7Xr9ukw01qRGvuJmRUBPgyb62hUrlwmasvvougKfXYfKopkR07Pq2K3+uo2Ok7DYYarKJfrBd7KcNVqzzTZmxZsWdEI3aKeVr4ujY0LZwVLGWcWeOx68+CeS4kb9VXRH8uW/eQuULaJX0b3vBinyKfk95lrbh7lXfquENpq9Z+WGK3F6n2Ojm5COlKPpEtbis8t2Qv29aCvBi7T4hN/a1LTJSGXioLbKthbsLHmJ7UE5HZC9M1fnW7bVqxd5pB8/UKVax+cCFqfQqbOr/dd/8XLmUwd7d1742Veo/FMK5cOQ8gEpLstHrK57RN3fB90zZvlnPNndhCvgW/eADIwmic22yGa/c/qfjFozHHMWg6R4YjvOCPgmIGCPEsI74B5FS24Z5V2rlGRvL9ijM/AyAcqrTprtyOyR0attO2lAq7J5EsRybtGErTQaL6vxVY1ZqxqQNl9IPypf1tvW0Px9ma+FrGoNXUdSm/RmARnoz/yKCrypj3IxpfxznTC7u/u4IgjRj4jjNuiCUu5zWok7u2IrjbhPHDUAT9aa/B+F7VAmSRJ0Q7cRxQ2qmN3XqUQOlDyKWCnskscyKX4gpn3p0oGZhnChaOfVoIiUQdFOPDql229zJq5/ALlLKaFVzZVy51O03nupmy25TVPwFIGrpZVR/duuQYxSdtP6AK39Sh0jNTSVs+aBAvl6zwBgNmSrsytnQuI04Wqlm8uotCRuGLbHK68m8p5MbK5HyBxK23K+T8kaAb6Tcgvrd5CqjP3PVskPFSRlNDqHzwg2VJbB4fdvC5ab0jdRTCjNfJ6BcT4bgT+n2K+f1reSXVvmDITmxxiCIZgGdEfXdTAxMKUh3kNSp3PQCS4X9klpmlZdaj6/4IAitX1ITWA3VIeRtG+YuONe03s36Bnev4qu/u6n2ISJXpbyiVpaWkX1LhzsTaWok9pNv0A+3/KCaLcEWyblcEmrduR7lcJA+UaiXB3eqlWAT4P4NbQsTyWq/hSDNWoJtqXsOHN6qSlqIXMX2cAtphxNEu4gnb6PfY/xXa7IU8ZzZvfIdEsmPlQfHgKCJzCnVzGjuIp7ZWwE5p5oPlf/OD9Hv2fLNOpwg2tMT1tMPjF6+L38bTaIy0PusWnm040T3ATR+77vaoAvlvA1zFymnAK2mf/Pfm7oMdN7TSfYBRM6buaR71WZfhxFk8ENdswOZxyWhRoaU0cNUCNLHpMg4FEbnCbhb4WDuaTaL+FgGzehefiBKzpdB5XqP9flJPItIruibt+ib9QnW31qew47yQrkEtFZmlJLIsRmvaDbsfqnbBoeP1+/VFom/0g+G1TYcgyCaU5Tgk2wP4lojRh8JM78T9QKjZVsocgW9otEqWBWdvPPO1HTv6YsIxNGzrUbB2Prz9qyUoi8xs91NfdlLy4GOST8SpC8XUr1600D4xu/pFg4ybat0eheCuEFD73foB2cNlR9NkC73HIjORw6/yfYe5a2/Ss6VwpalhOimFnqKpcLBSe5ojbR/30ev3rU0DRcBzicB2Utj8LaKEhNOjLjzwZ2rePbYV8cPATtTbv8SHR1jyUpn9huglKNwFZ+L6AfDCDaaIMvmZBFF3YodxLeBNrA9UE0gVrFbWZc5SIp4VNmuQUGB+Cm3qFzLQrX/gRD2wklgOTN8/N9r69TVD8i9FLmvkJF7/+At1gkQrLPrgealMJ0jmFcSHiLENOZzViE+czP6SKfXB2K6stLBXFjjziDlXwrdDx3yncz1GN/N0U1oPeC4bHw1Kh6yYxYTsiSpNFjl++0SHU06O4vILnAw8O/AEuQlofMSI/m7EC854Kr0dtvds272JXqZ5ZXfHODlHrxheyf9G4B7a6hBEomqy6PalT0JIuo3LkU2sj3cZ6Rvo2aQQYLE0Znq2dpFrmd7eIkOkGPJSm/6aBH+l65eIW5LtRaMb0fr2tXM8qXezK0UaGyfDnhHylvZWozrmBt9pNP9PKhx61JwJ9uD99VIEPdTAHWqKG2p0GMUhfKWb+YOAYZ9SKn0QbCLbr96akqVTiepjIQteYHkdM0ncCfdwqiXUFfv4I96XLRT/eal4F/ZHowq4lNhBskeAoheBsCkllkGTtY3D0iSZaJNDHoz6NAu8zzEiSQid40sr2Il0djHE2MSZICR2UCr2mpCy6yyL2H6+wBPMfECETyNbr9yvQ0TNjSrDglbThXIPWbskx84bvFUM7qGa9FfXslv2R6OWX5hPIIsB2SRhkOJLbMMHRwOuCZ4ng5OZmsh3r60zyAC0ps5WCLcCyrXrRyGZRIHg5s7kLynu7xawfZgzHe9MkGWZQ9FJHph3Akts2JgSmHmi4OHcNovdXxwBWROpvvKs9rKtgEFEu7wRqBwr+7B7JYXGLgh5RYuSgIa7d2r8o+knMj2cMy6jRUJMri2exAix6o7xpvp95yvLl9ZUp6Ytp+Uorhw5B5G9Avvc7z+k43omuRKoqDlXlBUK8SO9P7PTDmHc7bZepFbZ4/sTUCcGkn5eQbF1+/Ljp+PWaNzfIJ0ep8G1Usxl00e4/BF2ZURgtKbXiRCYxeCCPHZgENEU3iY0CNhOicGDgM320LKlWwtXm3CtpE6ZKl7EBzqHh7fTj+ouH09PkHyXnwiHmjUnot3vhOcRTANpcyvTC0FQLxK4J+n6vdI+bsD+AUE25t4octL11ThCM5GIgeckteePeL11Rn0w4rJ9MYlSHmZlffiCNH3awGW5CwSpo8VMD61n6Zl4xZh+b7jFk8zo2tyaYnC9D0ATe00bSLkJLpF3SjsMUE0MnsQv2MumD/eKFUnSFf2LIjcoTfUyc0iZRKvzZwvEf5Dz8ZBacHzjlfY04iuSaYkCjLPmdq1ooMLuH/hpqQgMDJ7kJcz1/M5PYJ0ZFuQQQARrQjOJL9FYgdLQeZaEpeaGBBK6k30/hFXbZ0yjwTbzRSWNO5yb4VKBNelvMJlSYFnZPYA/oZM1MaFvePuXFadQcq/0J1eHoRmqEGys0jZzt6W+0REuyA9gYPpFnQ//pJ6PxLRK2FmvgDaZ0Ekf8jWflM7YGMvr0x8ewi+yPagah31WgkyG0RcWXUHvdGRI+mHv9LTUVla1k2bJcX4uqveBaUkcjUl5bMpvWIgBxmAXqadd3PWprgKViKP5N0jAGrXmkcUHcUlvVX11ESQ8q9zl3cDBBdqeU3cw1ygVSGpWv/Smz5KhHHoSL33LcqqSQRsLWSr9bMt/l16Mz0iyldp/0bKqWwt/jJJbKTLuxsCzU0U3ku/p6ZQpdoJsjR7KBzNk/UycnIO/VC/AM04o6ATQ0TgRroF40VmknxpTOmWMHODQO1HcCJi2iTvfgSgflqpOiI8aiZI+dXOe98GoBuuvAbpTUfFFURNDexYeoph5mMO8OU6+3iRqcLrktq3r9OWCW8uT2CalDJ/AlBXRpYI+HjaLXwlSYPl6n13RXFaPDvppnkdde98PLvrI4jura2tluTpB7r3y6uORylMLyC4omrDwQYkz2Zrv+aWdq29NWc76W15n4jEP4Q1PQJZmHKLK2tqrNFI8l4nAP37O4zexlxvzWczdRFkcBa5H8AJGr7GopsQyZFcEhq/lzzSLultOVsiWQDiwEo2k+iG4JyptnNVCY94RwvEbRgfgSQAAAX7SURBVCKYU3GcBY/R4Uq29tdMJtV3ZnBbN/6g1j0M/hr94MP12FE/QbrmfAASmciWfgf94Ox6jFVtK49iB+ycvkKEcWHGowFkABQAPCQiD5nOD6tqZ7PJSW/6M5Uwc14uruR8vDIRNhta2sdxgUdwSRgHuNb81E2QwVkk3i8f94i+Jgso5zMX3lxTW0ON4rSZxR3TR6ZfLj7M+WWS2KcKAo3ETLrc8yA0cSL/JfpB3VG/igTJngnInQberBeA6Hj6vVPqUM4AblNCheRb5wPOAzoZ5AeB+juIw5kL1tQLnBJBBmYR9xaABjKDyIMohsezA1G9xtv22y4C0gEHafcBgG8z4KXyppA6QZbPmYVi9BAI/cA+4hrmggUGgLAqthEEpMtbCcEVBtxZh2LpcHas/YuKLmWClGeRruzFEPm8SsejZIj3MxckviNixFarJFEEpMs7G4JvmelELqYffkFVlxZBBj/Y42x2cSpN3acPjpzAxeFaXUVWfvIiIMvc/RExvh9uIn3tL+kH8a6l8qNPkKXZo+GIdrbDQQ/uph8olxRWRsEKNg0CkvfuAmAmXk+iM9neW653rvpoE6Q8i3S6y0BeqWrECLlb6AcfM6TLqplECEjei8NVPmrI5K/QDz6uq8sMQTqyOyFdnkUqnlbXZShxHXNBYhdu6rLFNp4QBKTLuxZi5sJbOY8CcRxzgXaCciMEGZhFvHeC+KExNEcUUzSm1ypqOgSk0+2AXiXj4T458l4uDuOlmvZjjCBlkuSzVwFirjCK4DK2B9dpe2kVNC0C0uldCuJaYwaKfI7t4eWm9BklyCBJfgKIueLw5MeY67nFlMNWT/MgIF3Zj0LEZJj8r1B89Th2rP+HKS/NE6TLewsEPwPwGlNGwsHpXBwYSqJszCqrSAMBWeadhgh3a6gYLSrOcWzvftCkTuMEGfwe0S2mONLHbhT5dnb0PGfSeaurMQhIR3ZPpCX+Ea0cTl+vaYJPsT34Yr1i1donQpDBpZZmQfdRphvZtqsGiP178ghI3otveprbyjf83TEUgeQI0tH6RqSd+FdCq5728OFKTae/5pnkh9D2kBQCkp+7D1DaYEy/4C62B+81pm+EosQIUp5FTK8ziROYC+LwZ/tMUgSkyzsegjFLDdTtkuAxOHiXifOOSn0nSpCB75HsuaAY2oXSCzyrewCsgHEEJK9d/3LAJsELoLwryTxrcTeJE2Twe+QSQEYVSKwffV5Iv8dMDt76O7cSBhCQfPYCQG7UVjVB0d8TQpCBmcTLgdArQi9yLNvDn2uDaxU0DAHpdI8BWXNWkQqGXkQ/uGEinJgwggzOJJp1D0t701/7h4kAxvaRDAKS338vILVRWTvhMxd0KcvXKTihBBkkyfWAVE0aPMoPwbfZHujVKakTHNs8GQSk0/sWiPoz2iS4nVvJ0wknyABJvDh95EfqgP8V+sGOdbS3TZscAcl7L9eZDL0h52ANIcjgN8ntIGpL4qWQz6jJ348pb54sdQ+Hw9oy/Qu+yvagnh9UY/g2jCCDy614RyP+cN+9gkdfxg4vXcLLNr5qzGOrqGkQkGv33h6v7BznNKh0semvAP1G7lw2lCBlkiydcwBYOgQOPUi5rkcMSgiRHrbbAMWmeZsTNEQ6vdNAZgFxyz+WRC8iCSCp33BJ96oEu66quuEEqWqhbWARaCACliANBN923fwIWII0/xhZCxuIgCVIA8G3XTc/ApYgzT9G1sIGImAJ0kDwbdfNj4AlSPOPkbWwgQhYgjQQfNt18yNgCdL8Y2QtbCACliANBN923fwIWII0/xhZCxuIgCVIA8G3XTc/ApYgzT9G1sIGImAJ0kDwbdfNj4AlSPOPkbWwgQhYgjQQfNt18yNgCdL8Y2QtbCACliANBN923fwIWII0/xhZCxuIgCVIA8G3XTc/ApYgzT9G1sIGImAJ0kDwbdfNj4AlSPOPkbWwgQhYgjQQfNt18yNgCdL8Y2QtbCACliANBN923fwIWII0/xhZCxuIgCVIA8G3XTc/ApYgzT9G1sIGIvD/ARX9n5sHylKgAAAAAElFTkSuQmCC;" vertex="1" parent="1">
          <mxGeometry x="-1070" y="200" width="30" height="30" as="geometry" />
        </mxCell>
        <mxCell id="FnWfrTRd6geeHGJAiOIr-255" value="" style="shape=image;verticalLabelPosition=bottom;labelBackgroundColor=#ffffff;verticalAlign=top;aspect=fixed;imageAspect=0;image=data:image/png,iVBORw0KGgoAAAANSUhEUgAAAMgAAADICAYAAACtWK6eAAASlUlEQVR4Xu2de5Ac1XWHz+npmV2trCdCjwW9HYlY7CyPOLKlnbUpk7KTkAQSOQGHpIwDSUgiJypKdoDYJBjLMdjYJRxcZQhUIidKRGLsCAdTCYHMjEBOCNb07iYWWC8LPUGP1aJ9TD9uqnctJIF25t7b3TPd27/+iyrOObfvd+6n2ZntPcOECwRAYFwCDDYgAALjE4AgOB0gUIMABMHxAAEIgjMAAnoE8Aqixw1ZKSEAQVLSaGxTjwAE0eOGrJQQgCApaTS2qUcAguhxQ1ZKCECQlDQa29QjAEH0uCErJQQgSEoajW3qEYAgetyQlRICECQljcY29QhAED1uyEoJAQiSkkZjm3oEIIgeN2SlhAAESUmjsU09AhBEjxuyUkIAgqSk0dimHgEIoscNWSkhAEFS0mhsU48ABNHjhqyUEIAgKWk0tqlHAILocbtgVrnHXi8E3RdiyTSWygnTbO9+Dx+Kw+YhSIhdKFn2k0R0fYglU1nKELxmdaf5z3HYPAQJsQslyz5CRLNDLJnWUg8W8tk74rB5CBJSF8o7RlYIw+gNqVzay2wv5LPvjwMECBJSF4pW9TYm/kZI5VJfJvPm4bZVq+YPNRsEBAmpA0Wr+jgTfzykcqkvIwRd292ZfbbZICBISB0oVao7iXlZSOVSX0YQfbY7n/1cs0FAkBA6UP6haBdV50AIpVDiJwSY+OmuvPkLzQYCQULoQLHirGEWT4RQCiXeIsD9hbw5vdlAIEgIHShb9oOCaF0IpVDiHAJCiKu7O3MvNxMKBAmBfsmytxPRyhBKocQ5BJjE2q587mvNhAJBAtLf+tLBtum5i08HLIP0CxIQmwv53MeaCQeCBKRfsoavJcr8W8AySL8QASH2FTpzi5oJB4IEpF+27M8IonsDlkH6OARyOXPJyst4T7MAQZCA5EuW8zSR+EjAMkgfhwAT39yVN/+uWYAgSEDy5R6nXwgxNWAZpI9HgPnhQof5h80CBEECkC9Z1auJ+KUAJZBahwAz7ejqyF7ZLFAQJAD5Yk91LQveGKAEUqUImDMLeT4hFRpyEAQJALRUqW4m5hsDlECqBAHBfF13h/ldidDQQyBIAKQlq7qPiBcEKIFUCQIsaENXZ/ZuidDQQyCIJtKSJZYQObs005GmRuD5Qj57jVpKONEQRJPjth7nZk+ITZrpSFMjUC3ksy1qKeFEQxBNjuUe52EhxO2a6UhTJJBhWr2qI/uCYlrgcAiiibBk2TuIqFMzHWmKBJiN9V0dmS8ppgUOhyAaCF/o65/pum3HNFKRokuA+clCh/mruum6eRBEg1xph3MdGWKrRipSNAkw8ZGuvDlXM107DYJooCtW7A3MdKdGKlICEBCOt6L7qpb/DVBCORWCKCMjKlr280z0AY1UpAQgIIS4rbsz92iAEsqpEEQRmRCCy5YzQkxZxVSEByYgHi/kc58IXEahAARRgOWHFnvt1exRWTEN4aEQEDsL+dxloZSSLAJBJEGdCStX7PWC6X7FNISHRKDRk98hiGLjMMFdEVjI4YbBa1Zf3rjJ7xBEsYGY4K4ILPzwhk5+hyAKDcQEdwVY0YU2dPI7BFFoZLnXuVV44hGFFIRGQCDzptm2ahU3ZPI7BFFoYMlyHiMStyikIDQCAo2c/A5BFBpYsuwfEtFyhRSERkCgkZPfIYhkA8svi3ZhYoK7JK5owwR9r9CZ/floFxmrDkEkKWOCuySoxoSdKuSz0xqxFASRpFy07AcZE9wlaUUf1qjJ7xBEspeY4C4JqkFhjZr8DkEkGvrCfjHJPeEMSoQipGEEeHMhb0Y++R2CSDS0WLE/xEz/LhGKkEYRYN5X6DAjn/wOQSQaignuEpCaEuIuLeRbd0e5NASRoFuy7KeJCBPcJVg1MkR43m91X9HyzSjXhCASdEs9dj8JwgR3CVaNDBFCfL27M/cHUa4JQerQxQT3KI9f0NqiUsjnrghapVY+BKlDt7ijupYNTHCP8hAGqx3t5PdYCVKsjMRuUjqzsZaIVgVrIrKjIhD15PfYCFLqFZ3kOf60QlwgIE2AmTZ0dUQ3+T02gmzrcW/3hPewNBkEgsAYgUgnv8dGkLLlbBIkbkbXQUCRQLWrw2xlZqGYJxUeG0FKlv9dG/53buACATUCwqWu7iuz29Sy5KJjIci2l4cWeqa5V+6WEQUC5xMQgj7V3Zl9IAousRCkVBm5idj4+yg2iJopIBDh5PdYCFK0qg8x8R+loJXYYgQEopz8Hg9BKtX/YearImCHkikhIDLmiu4VHPrk96YLsv1VMdUecvpT0kdsMyICUU1+b7ogpYr9EWLyn5bFBQIBCEQz+b3pghQt+14m+kwAMkgFAZ/AzkI+G/rk96YLUrJs/y/1PoQeg0BQAuxUL+m6avLBoHXOzY+DIP7fek8Kc1OolU4CQngf7e5s+acwd99UQZ6rVN9nMr8Y5oZQK9UEQp/83lRBypa7TpD3YKpbis2HSSD0ye9NFaRkOU8QiTVhEkKtdBMIe/J7swU5QCTa091S7D5MAmFPfm+aIOXK8HLBGX9aOi4QCI0AE322K5/9XFgFmyZIyareQsSPhbUR1AGBnxD4XiEf3uT3pglS7Kk+woJvjVNbTw9H8jc3zd6iEIJONPsmGrh+9s+/OXDp9x+66FQYazZNkJJV7SPi94SxibBqbOtz6dtlO6xyqNMkAsKoTku0INsqYrbHzpEm8Rt3WQgSt47o3U/iBSlazvVM4km97UeXBUGiY9vIyokXpNxj3y8ErW8kNJm1IIgMpfjHJF6QUo9dJkGr44YagsStI3r3k2hBtvSJ3DzXGY7j9yNCEL0DGbesRAtS+oH9QcrQc3GD6t8PBIljV9TvKdGCFCv2Xcz0efVtR58BQaJn3IgVki2IZT/FRL/YCFCqa0CQCxPj0zuJh35MxuBu8v9btC0l0baEROsl5E3Jq2J+RzwPv0Y8uId4aA8Zp18hkZ0xtsZo/Q4io1VpjUQLUrLs40Q0Q2nHDQqGIO8EnTnwt2ScGn+muJi8jJxLP658iM+slDnyHTJOlImEe8Eui9xscufeQGLyculTkFhBSr3VTvI4thPcIcjZM8jDB8jc82XpQ+ksvmP0X3yVK/vqPUTOgFSKN+vD5F78YanYxApS7KnezoJjO8Edgpw9f9lX7iZyh6QO5GhQZhLZy+TfWmYObiaj/7/l6xORs2Q9iZZ5dXMSK0jZqm4SxLGd4A5Bxs5e5siTZBwv1T2Ibw/wZhbInXND3Tzj5HbKHNpSN+7tAf77EmfB7xJxtmZuYgUpWdVdRBzbCe4QhIidfjJf/Qvlw3smwVnyaRItc2rm+z+6+T/C6VzuvN8gb/rKiSfIsy8PLczFfII7BCHiwR+RuU//p2C3/Sbypr235gHO7vw0kaf31LQvhy9JrSuRryDbep0bPU9s1vlXo1E5EIRI98efMz3yZqwid+74Ywa4+gaZuzZot1S0zCVnyacmniDlHmejEML/QszYXhCEyDj2HGWObtXukf97C/fSW8bN5+H9ZO75inZ9yrSRvey+iSdIybJfIqKr9clEnwlBiPjN/yNz/yPasN25v0bejBrPoXrDlN15l3Z9b+oV5F7y2xNLkKRMcIcgREF/BHIWryPROr/2m/TdXyQe0ft7Of9TMv/Tsgn1HiQpE9whyNixM/c+NPrYh+olJi0mZ1H9n6Izh7819ttz1cvIkrPwk3V/IZm4N+lJmeAOQcZOLA/tJXPvRtXjS86iT5KYtEgqz/zRvcT2SanYM0Gyv01PnCBJmeAOQc6eV+P4f5L/nJTs5c75FfJmfkA2nHjkMJm775eO95/Fchb8nlR88gSp2IPE8Z/gDkHOP3/+Ic4cfmL0SdvxLpGdOfqmWUxaIHV4zwsS9qiExokXaua67b9J3jT5z3cSJUipr7qSXN6uTq/xGRDkwswzrz9DPLSbeHD3W0/d+j9KiUkLyZ31c+R/9BrkMvpfIh7oGX2cntzTo6X833f49b3p71eWL1GClK3qOkGciAnuEKTOMRfu6Jt3/+DWex5KVxj/ERRhTiUyp+iWoEQJkqQJ7hBE+0zGKjFpgiRmgjsEidU5176ZxAiStAnuEET7TMYqMTGCJG2COwSJ1TnXvpnECFKsVB9hjtcE91rUIYj2mYxVYmIEieMEdwgSq7Mcyc0kQpC4TnCHIJGcyVgVTYQgcZ3gXquTO3ZdePRMrLof8s0MnBbf/86LzldDLtvcckb1X2P//SBxneDe3M7FcvWDhXxWbV5PLLcRzU1F9g1TpYpdJo7fBPdoMCa7Kgv3sq7O1p3J3kU0dx+JIFv6+nLz3GWxnOAeDcakVxWfKORzjyd9F1HcfySCxHmCexQQk15TCPFod2futqTvI4r7j0SQco97pxCe/uiKKHaKmrUI9BXy2cuB6J0EIhGk1ONsJSGuA/DkEDCEOWd1Jx9Nzh035k6jEcRyjhGJmY3ZAlYJg4AgvqE7b347jFoTqUbogsR9gvtEal6Ye2GmB7o6srUnsoW5YEJqhS5IsVK9nTm+E9wT0pfG36agbYXObFfjF473iuELYlU3cYwnuMe7HU29O3EoY7b++gquNvUuYrZ46ILEfYJ7zPjH63ZcuqZwZfb5eN1Uc+8mVEFKfWIBuc6+5m4Jq+sSYDbu6urIfEE3fyLmhSpIsde5kWM+wX0iNjG0PTE/Vegwfym0ehOgUKiClC1no6B4T3CfAD2LbAtMfLwrb14U2QIJLByqIEmY4J7AHjX2lg1xReHyXKWxi8Z3tdAEeWDLycUXTWnFA2/x7bXUnfWf5sPr1rTcKBWcgqDQBFm59thU9nL9KWA2obfIgta++PCUr03oTSpsDoIowEpDKAQ5v8sQJA2nXmGPEASCKByX9IVCEAiSvlOvsGMIAkEUjkv6QiEIBEnfqVfYMQSBIArHJcRQYY9+gyyRQSI3i4gzIRYfK8X2MSJ3kETuYiKjVas+BIEgWgdHNylz9CnigV7i6jl/zcoZEi3zyJuSJ2/WtbqlR/OMY/9BxqkdY/W9s0+qi5Y5JNqWkjvneiI2pdeAIBBE+rAECWSnnzL7HyX/G5NqXf5BduffSiKr/giU1Nc1G63kzvsoeVOvlNoOBIEgUgclUJA3QtmddyqVsC/7otLXmpm7vkBcfV16DWfRH499dVqdC4JAkHpnJPD/N/f9FfHgLqU63oxV5M5dI5VjnPwvyhz6B6nYt4LMKWS/+x4iNmrmQRAIonawFKONk9spc2iLYtZYuNv+MfKm/UztAzx8kMy9XyUSjvIa3swPkjvnlyGIAjk8aqIASyY0c2ATGad+IBP6jhhv2nvJbb+pZq5x7DnKHN2qVd//dMtZWvtHP7yC4BVE63DJJmVfvYfIGZANPy9OTFpAzqI/qZlr7v9r4jf7tOr7SfbyDTU/AoYgEET7cNVL5JGDZO7+Ur2w8f+/kSN7+V/WzM/uvJvIG9JewxfQF3G8C4JAEO3DVTfRHaTsK39WN2y8AJGdSc67a+ebe75CPLxfew2/vr8OBJFDiPcgcpyko8y9G4mH9krHnxso3vXT5MyvPWTd/8Wj/8tBrSvTRvay+2qm4hUEryBaZ0s2KXPkX8g4rjdayrvoGnJn1x4qYgxUKPPa38jeznlxom0xOQvXQhAFengFUYAlE+o/8mHu/jKRsGXCz8YYreQs/VMS5tS6eea+h4gH99SNe3uA/wmZ/0lZrQuvIHgFUT5YqgnGsWcpc/S7Smnu/N8h710rpHLY/13IHrUPA8TkZeQs+P269SEIBKl7SMIIyLz2GBkDvVKlZN57vL1Q5vVnyHjjGbn6Er//OFMIgkAQqUMVRpAxYFHm0D8SuRf+WNb/NMl/mteb/j6t5XjkEGUOf2v8x1rYHH18xZv+s9L1IQgEkT4sYQT6h5iHfjz2YKH/9yBskGhpJ8rNIm/yTxFlJgdbRtijr1Q8cpTIfoN49O9BZtPo4+6tC0i0tivVhyAQROnApC0YgkCQtJ15pf1CEAiidGDSFgxBIEjazrzSfiEIBFE6MGkLhiAQJG1nXmm/EASCKB2YtAVDkGgFkZ8ikLaTl5D9sqA78PUHZ5sV2sOKCek/bhMElAhAECVcCE4bAQiSto5jv0oEIIgSLgSnjQAESVvHsV8lAhBECReC00YAgqSt49ivEgEIooQLwWkjAEHS1nHsV4kABFHCheC0EYAgaes49qtEAIIo4UJw2ghAkLR1HPtVIgBBlHAhOG0EIEjaOo79KhGAIEq4EJw2AhAkbR3HfpUIQBAlXAhOGwEIkraOY79KBCCIEi4Ep40ABElbx7FfJQIQRAkXgtNGAIKkrePYrxIBCKKEC8FpIwBB0tZx7FeJwP8DoiLDI9mwZNsAAAAASUVORK5CYII=;" vertex="1" parent="1">
          <mxGeometry x="-1260" y="330" width="40" height="40" as="geometry" />
        </mxCell>
        <mxCell id="FnWfrTRd6geeHGJAiOIr-256" value="" style="endArrow=classic;startArrow=classic;html=1;entryX=0.5;entryY=1;entryDx=0;entryDy=0;exitX=0.5;exitY=0;exitDx=0;exitDy=0;" edge="1" parent="1" source="FnWfrTRd6geeHGJAiOIr-255" target="FnWfrTRd6geeHGJAiOIr-248">
          <mxGeometry width="50" height="50" relative="1" as="geometry">
            <mxPoint x="-1310" y="450" as="sourcePoint" />
            <mxPoint x="-1260" y="400" as="targetPoint" />
          </mxGeometry>
        </mxCell>
        <mxCell id="FnWfrTRd6geeHGJAiOIr-261" style="edgeStyle=orthogonalEdgeStyle;rounded=0;orthogonalLoop=1;jettySize=auto;html=1;exitX=1;exitY=0.5;exitDx=0;exitDy=0;entryX=0;entryY=0.5;entryDx=0;entryDy=0;" edge="1" parent="1" source="FnWfrTRd6geeHGJAiOIr-257" target="FnWfrTRd6geeHGJAiOIr-260">
          <mxGeometry relative="1" as="geometry" />
        </mxCell>
        <mxCell id="FnWfrTRd6geeHGJAiOIr-257" value="" style="shape=image;verticalLabelPosition=bottom;labelBackgroundColor=#ffffff;verticalAlign=top;aspect=fixed;imageAspect=0;image=data:image/png,iVBORw0KGgoAAAANSUhEUgAAAMgAAADICAYAAACtWK6eAAAgAElEQVR4Xu19a5hcRbX2++7unnAH5aAokERImL07mSAS7uABERCVmwLi5Sh44SKCBz5IQnpPHDI9CQkK54jCAZWLd1ABBS+Ih08P4ieKckIys/eEAJkQEbwdDgiY6e69vmf3TJK59XR3Ve3pnkzt54H8mFqr1nprv121q1atRdjHImARqIgALTYWAYtAZQQsQezbYREYBwFLEPt6WAQsQew7YBFQQ8DOIGq4WakpgoAlyBQZaOumGgKWIGq4WakpgoAlyBQZaOumGgKWIGq4WakpgoAlyBQZaOumGgKWIGq4WakpgoAlyBQZaOumGgKWIGq4WakpgoAlyBQZaOumGgKWIGq4WakpgoAlyBQZaOumGgKWIGq4WakpgoAlyBQZaOumGgKWIGq4WakpgoAlyBQZaOumGgKWIGq4WakpgoAlyBQZaOumGgKWIGq4WakpgoAlyBQZaOumGgKWIGq4WakpgoAlyBQZaOumGgKWIGq4WakpgoAlyBQZaOumGgINJ4gsnXMAUDoQDmYDPADAc4D0AHiCfnivmltWajIhIHn3ZKA8/lkAewKyChGeAJxVXNLzWCN9aShBJJ+9AJA8gN0rgPAAioUz2LHuxUaCZPtOBgHpmLUL0pnvAji+Qg+vQOQatocdyVhQXWvDCCKd3u0gPlzdRADkgcz1/HdNbW2jSYGAdGXfDJEaZwfeT7/nHY1wrCEEkXz2VkDOqcPhF+gHr6mjvW3a5AhI3vsfALvVYeaX6Afn1dHeSNMJJ4h0up8HeXHd1otcz/bwkrrlrEDTIaD8DgCX0g/+bSIdmlCCSJeXhyCn7mBqOv01z6jLW8lGIyD5ufsApQ3KdpDvZK7nx8rydQpOGEEk7y4CuLxO+4Y3J05gLnhAS4cVbigC0uUdD8FPtYxweBgX9zyipaNG4QkhiOTdTwG8vkabxmkmF9MPv6Cvx2poFALG3gXB/mwPnkjaj8QJIl3uORDeasYRXki/5z/M6LJaGoHA4Nb+jQb6fgKOHM7F4V8N6KqoIlGCyDLvNES425gDIseyPfy5MX1W0YQjIJ3uMSD/r5GOKT/A4vA0EmJE3xhKEiOIdLS+EWnnZwA8c8aX9qa/9g/m9FlNE42A5PffC0htNNcvb6Pfc645fcM1JUeQ+s86qvn4FfrBx6s1sn9vfgQk730ZwMfMWcpr6ff8H3P6tmpKhCDS6V0I4gaDBnejyLezo+c5gzqtqgYhIB3ZPZGWeHUxx5gJgsvYHlxnTN+gIuMEkS7vLRDEzps7+XZwOhcH95h23uprHALGv0+BlwG+jX7Pb0x6ZZ4g+exPADnRmJHkx5jrucWYPquoaRCQruxHIfIVgwb9lH5g7t2LwwANGgfJZ68CZIkxnQlNm8bss4q0EZBO71IQ12or2qJAPkM/XGpKnzGCSKf3ThA/NGUYRK5qZJizMT+soqoISKfbAfIzVRvW2kBwPNuDeJmv/RghiHRkd0Ja/gvAgdoWxQqI65gLLjOiyyqZFAhIl3ctBJcaMvbX2OGlt/Gyja/q6jNDkE53GcgrdY0ZlL+FfmBwC9CQVVZN4ghI3ou/Rz5qpCORz7E9vFxXlzZBZGn2aDjl2cPEczf94D0mFFkdkxMByXt3ATjdkPXvoR9oRXLoEyTv/QjASQYc6oMjJ3BxuNaALqtikiIgy9z9ETGO9p1hwIVuMHUcc2ueV9WlRRDpyl4Mkc+rdj5Mjng/c8G3jeiySiY1AtLlnQ3Bt8w4wZvp95yvqkuZILJ8ziwUo4fAOAuF5kNcw1ywQFOLFd+GEJAubyUEV5hxSc6hH96uokudIHn3FoAGgsTkQRTD49mBSMUBK7NtIiAdcJB2H4hPx7U9JB5hLjhMRY8SQSSfPROQO1U6HCHzAhAdT7/3UQO6rIptDAHJt84HnPgGaT3JHcZGgfJB5sJv1guRIkG83wKYX29no9pTzmcuvFlbTx0KRJAuhumj0m7xlySKdYhO2aaNxEy63PMgvMkA+D+jH1TKv1VRfd0Eka45H4BE3zBg8B30g7MN6KmqQh7FDtGO6QWO48wXkRikFgD9JB+IoujRlFdsWGKyqsY3sEEpSHdUwsx5ubiS8/HKRJgneS/evHmffl9ySr3ZOusnSN67H8AJmsZuQiRHckn4O009VcWlt+VsiWQBWPmUn5Bn4TgXc//+eA9+yj+ytuU9iKLrBXxjRTAEj9HhSrb2J77zKEvdg+DwYQDTNAen7nO2uggiXdmTIBKfe+g+efpBu66SavKlMH0FwZXV2m3+Ox0cxv0LE5Ito1abJrqdrM0cKhF+XWu/AlmQcovX1NpetZ3kvU4Avqr8Frk6r23XRxAzU90apDcdxUVP/a+2s+MokN7MR0RwWz19kHge+xf2nqrfJvG3BtZmNorg9XXidg5bC0rbqLX2I1fvuyuK034JYG6tMhXa3U4/qDmrZ80EkaXZQ+FIzb8slZ1Q35OuFRhZm3q3RI5SZngSn2NrQTuGp1Zbm6md9GY+KwKlq6t0opO5f+m+JP2RvPsRgHX96I1pTyTza13e106QLu8GCC7UAoC4h7nAVJzNmKZIkD5CyB+MkzF+fBeIJ53WwiwtPyepcNSbWQfBform/5Uip9Ar/kpRviYx6fLuhuC0mhpXbMQv0O+pKf1tTQSRTm82iDi7+g56hsmR9MPEAJR102ZJMYp/xVp17GSq8DrOxp91dEw2WXkCe0gp8ydNu3uZdt7NWZvWaeqpKC559wig/MGu87wMwYG1JJ6rlSB5UCenbuyLXkxMLWhIb8t9IvKuWtqO16YkcmzGK06p/FuFIH1MykC+KpI/ZGv/u3XHYDx5yWdvAkQv07twOdt7FlezsypBpCPbggwCiOxbTdm4f69j3afSTynIXEuauXDDQmFPtkE5AlTF/kbLyGq8XjIZI1ljRHBdyiskduFtcNtXL/pC8BxKpTZ2rP3LeNhXJ0hX9iyI3KE3gMnOHrI2c75EMJWS9BnHLUzX83dySkdhJs66vo8J6+ngAu5fMHECPqY5RmYR4hPMBXGOropPdYLkvTh+5f1aoCU4e0iYPlbAOB2+7iHSoIvyfcctan4EaqHVMOEoTN8D8FRDBmwi5CS6RTNpRkcYZWQWAe6jH8T1EdUIInkvvrQSANheHbTkZg95AtNQyvxKgLeo2zdEkniVwD+ztRDHmk25R3ozBwvwC4jOeG+FjcDvkSocwdnYlASYhmaRNuaCNZXsG3cGkU7v0yD0KvokOXv0pheJaNYcGcYP8ekWu5IYzMmiU8J0TsC4sKqRh5Qr2Vq82oiyZGaRdvpBRX/HJ0hX9kGIHKvuXJKzx7T9pBT9PwB7qNs3RFJ4n+P1jzvdGulnEiiJgpZ7QTG1E/VnppzDOXvTk0m4bmAWeZR+cHDdM4gsyx6KSPPkPMFyWaUw80UCnzQBenkpgMzJdF951oS+ya5Dwh3eCBTuNbV0FeCGlFu4KAlcjMQHjpNHq+IMIvnsckAWaTi1jn4wW0O+oqipPftyB4Ln6eDkqfrdUQnk8vdIhHvB+uKyKulL8mxJ8l5caUo9+oH4d+aCfx3L9vEIEgDiKr/gCValjcL09wGeomzbsO8Onka3//smdG1rOiRsOVUghpKGyw8ct2hqh2wY1BpVczfr6aYfjBkEOSZBZKl7OBzqhYQktLySIH2ikD8x8TKSuIitBZNlGkyY1VQ6pDfzSRF80YRRFHkHvWJ8n8joY2SZFfEwLhldGHRsgnR5l0K0EgontrySMHOHAGfpIkywi26//v0CXUMmgbyELXmBaJTvHnCSwJ10CwZuBo4GTX+ZJR3MhVeN1Dw2QfJenJDhTOWxS2h5Jb3po0WoncVRiNtSrQUDGVmUEZp0gqXezK0U1HyPopKDpLyVrcWHTANgYJn1S/rB0bURpNN9BuTeyk4ktbzqzdwq2oMkG1+NiofsmMUflf0zIDhz9fJjRHgc6ewsIrvAQflfh84mQP4YlaI/gqlnQTwblfof2/hmv6G1GV/uwRu2d9K/ATTei3gWIW5jAj9ORpZZRWd3dnT/bejwjppBZOmcA+BEcWi72iOyke2hkXieoQbIusxBUoRegFp500r8VAMOA6c/vvw1dFJvg0THQXgGWOf5DfEYhD+G4OFUf/TwU/MXJXojc6zBL4XpHA0cIjKN+ZxVMJ6PQHR/2MEP0e8ZlpBkNEG6vIsg+IIaO8pS36EfaH8jjOy/FLYsJUT3HvtTLBUO5hwM+5XQ8LWq6L6PXr1raRouApxPArJXVYFaGhDPSin6EjPb3dSXvXTCZkLpxmsllYnDcLQiuwXsTLn95gotDWImup8GxI3MBcPO1kYTRPfeOXEZc+aLKUqY+Z3uwRVFrqBX/Gwt76B2mzvvTE33nr5o8DBT6wJXRVsaQBQJ0pcLqZWkIT6YpVs4SBvjEQpEd3NJ5GG2h0eNv8TSnaYSiL0ydDAYcLfCwdwzLvaY7DPwfeF8DjQURFnNXOJZgJ/pm7tg3NDtampq+bs8hx3lhfIs4tXSvlKbJA4ODUT4vkg/2LUiQaRj9r5Ip9VjZpL6/ghbrhGIViIFAT6dcgtmMtGP82ZMX33NhyjRzaCZiNh6XkKKrFw/b9HCemRU2pbCzCUE/l1FdrMMwc/S7TeUnHqrJdrfIUV5EzvC9VvtHOKldLaeATrf0XA8ke+PKMzEIffqp/rAKv69cDDno6DhW1XR6atXaL84VTup1oD4bt/chepb9NX0xxsdjyIjO5VnkQNqaF6pSei4Ba1ZaCzF2t8hGJ59cdg3iOS9+OAsTtCl9iSQa9fEyTkFF9BL7nZbDNb0Vcs76DjmClGqjcCAlPDBvnkLjtNRUU1Wgsz5Qr1bnEmcrGvn8iV85oItVx5GEMT9OsAPVgOn4t9Txf145RNPKcuPIVgKWrpIqXq5fpw+XyQL+7EV49491rF5+pqVR1IkTmrWPE8Ev++AhYndbZFe/JNIJl6O76LqtAiXpbx+7RP6of3L8tn7oqTxmQAMyxk9cgaJ96ZVb+f9hX5g5m7GEI+jMBOfnI864ax5UES+53jFM2puX2fDvX+3fFaqxYmjSZvuoeD09fMWGgo2HO1eFKS/C/K9Go4/5LiFt2rIjykqeS9O2fRPinofpx9sWTqOJEi8w6Oa+2rMo3pFIwdWCo9hN9k+8z86Okicz9ZCIiUW9uju2GmHaPs4SZ3GpTId76rLMoXD12cXGsiIObov6c2cJwKtxAx8tfAaHogXqntSewvJe3Eoy7Dt2tql8Sr9YAsHthBErs5OR1H66lA0sumX6Qef0JAfJVrsaTnNcUS9SikR0SnsmVQSuBlrVtwMgVGfTeI38CuD3/eFbzoEZ51VMq27nGwuyjwHgaOqO4p4ejrbb3SWk7z3JQAfV7UJKO1Nf205tGcrQTrdE0BqhCLzCvo9Rg/hJMxcJ8CYF1lqc573O27/O2prW1+rpvzuqOBCvMW9oW1hIlvcUdjyE0BOrA+9ra0J/BvdwqWq8mPJST57OSDqh5lDMsAPIYhmggaRk9keGk1eHAWZX4M4VBW8JO97zHh8xTdBzXRIqo7VL9eb2iSHJhG/pX1fRPCI4xWU6gdWgkE63XeDVEpeXtY5JF/WVoLkvRsBXFA/9oMSKWc2r+w2mpM1CjNxdsPXqdqUVI7dmWuuPlHEzKUtVd/ql5NcX9uiZfXLjS9hIKfvnxy3UFe5hWo+lCswlyKdjZOV9IPygetQgsQJvo6p1nmFvxfpBxlF2THFZBV2lGmZv2vo/LnjFhL5eJ65euUPBGI+A4rIWtCJtK46VwSMfyg56Xkb51xmPFAzCjM67w64qbATDzAbAiR5Lz4UTiu9P8RdzAXl3bmhBNHZ4l1DP2hTMqbSunldy1wpympVnRTJ0Ssa/8Wc+djymZJ2nla1a6ScRNFVdPjbdJT67ZMHXFHOrj7z6et2kxf/8RY4zoFAuVa4mV9YwYf65i00UV9ymBsSpBcLqXzmwjTbOKu/YvI2Fawl78XvjlqxnSFlo4cSZC0A1SwkShVEx3O8GE47xUGknEyB8TqytWA8eG9G94pPIcL1KoM2QuZJCC/pm7dg3JJ2e/93fq90quUWgejWhYy7/0Zf28IPGbB9OEF6Mx8XQbxzpPREcE5Nu5vi7XJjj+S9uHz02xUVbrkyPpQgcWZv1V+qqjlO6zW0FGY+He9w1Cu3uT3hnErDoMe6Z6xZ8SMITlK1K5aLZ40NB1xZV2XdGauXnw44ukVG/9bXtnB3HdvHkpVw2imi8WMW71Sm3IJW8OOomTnvxR/pqsnv/kY/KOM0lCDqh4Tkd5nrMRogJ2HLSoEoR3vGB2ScXTB6QJbt7mh5OdpeL88s+Ujf3AVKuzbTV6/4DIG6iDXyxXHAE59uW/BTkySRJzKHSQlxlkulh+A1dPsXKAlXEJKu7HcgohxBQT8oc6P8P7nzzBTWrikqG0h8nbngX5TlxxAUzfvn/QVn1nZtZtNdvmn1yhMiiMZZEVASmbdx3iLlb6sZa1b+GiLKW98CLN/QtlAntm3UaP1j9bT9WjKR8g5mEvfUpcv7GgTqy8nB++kDBFne9hqUijq7G8ZP0aOw5YeAvFOVdERhF7p4SVV+LLmZ3SvOlQi3qOpUWVqN7Guf7hWnOBHUv83Ar65vW/ARVR/GXmJhZ0HmRXWd/JHj9mtXBhvav/Zp+uCxxQBBtMNMai+KWCuIUZj5DYCKSYWr6HnVcQuqMWUVVc9Ys9KHiPJ1AEp07vp5V2pVaZ3++PJ9SUfjUhv+s2/eQtWP14rYRGHmFY0yGb913MIhtb4btbSTfPZ6QD5VS9sx2wwmkhsgSJc3FwLlaR+Qz9IPlb8XxjIwCjPxVupMRQf7HLegKluxy+mrV9xIjcNUIY/aMHeBbgFKzFi9Ip4Zd1LDRsK+tkXGLypFYSa+hRfXk1F51jtu4U0qgpVkJO9eA1D9FqrjHMXF3Q8PEGSZezgirVSjefqBbsaRYb5GYfmQcEdF0Iz/IsV26B4QFjal9nh2/uXa91JmPL5iNai4xw+81Ne2UPkOR6Xx0JzxX3bcgiLhx7ZI8l4806tnzhzMrWAJUgcDdQlScjK7mzjJnrF6RZy3TPW6qyVILWPuOHO4uLvHLrFqAWuwje4Si1HpsPUHLH6kji7HbDpj9Yr4g3hnNT12iVUTbhLty/bep+1Hek1oDTTS/UiPtx11Qz20Q13EfqTXNOQtfAMX9Dxnt3lrQmugUTNs885Yfc3pQKR8ok67zVvbiKc37cZFT/2vPSisDa5yKxMHhRC+q1r81XgmzVi9Ij6Q268Os4c1tQeFNSL3fGE7Xr9ukw01qRGvuJmRUBPgyb62hUrlwmasvvougKfXYfKopkR07Pq2K3+uo2Ok7DYYarKJfrBd7KcNVqzzTZmxZsWdEI3aKeVr4ujY0LZwVLGWcWeOx68+CeS4kb9VXRH8uW/eQuULaJX0b3vBinyKfk95lrbh7lXfquENpq9Z+WGK3F6n2Ojm5COlKPpEtbis8t2Qv29aCvBi7T4hN/a1LTJSGXioLbKthbsLHmJ7UE5HZC9M1fnW7bVqxd5pB8/UKVax+cCFqfQqbOr/dd/8XLmUwd7d1742Veo/FMK5cOQ8gEpLstHrK57RN3fB90zZvlnPNndhCvgW/eADIwmic22yGa/c/qfjFozHHMWg6R4YjvOCPgmIGCPEsI74B5FS24Z5V2rlGRvL9ijM/AyAcqrTprtyOyR0attO2lAq7J5EsRybtGErTQaL6vxVY1ZqxqQNl9IPypf1tvW0Px9ma+FrGoNXUdSm/RmARnoz/yKCrypj3IxpfxznTC7u/u4IgjRj4jjNuiCUu5zWok7u2IrjbhPHDUAT9aa/B+F7VAmSRJ0Q7cRxQ2qmN3XqUQOlDyKWCnskscyKX4gpn3p0oGZhnChaOfVoIiUQdFOPDql229zJq5/ALlLKaFVzZVy51O03nupmy25TVPwFIGrpZVR/duuQYxSdtP6AK39Sh0jNTSVs+aBAvl6zwBgNmSrsytnQuI04Wqlm8uotCRuGLbHK68m8p5MbK5HyBxK23K+T8kaAb6Tcgvrd5CqjP3PVskPFSRlNDqHzwg2VJbB4fdvC5ab0jdRTCjNfJ6BcT4bgT+n2K+f1reSXVvmDITmxxiCIZgGdEfXdTAxMKUh3kNSp3PQCS4X9klpmlZdaj6/4IAitX1ITWA3VIeRtG+YuONe03s36Bnev4qu/u6n2ISJXpbyiVpaWkX1LhzsTaWok9pNv0A+3/KCaLcEWyblcEmrduR7lcJA+UaiXB3eqlWAT4P4NbQsTyWq/hSDNWoJtqXsOHN6qSlqIXMX2cAtphxNEu4gnb6PfY/xXa7IU8ZzZvfIdEsmPlQfHgKCJzCnVzGjuIp7ZWwE5p5oPlf/OD9Hv2fLNOpwg2tMT1tMPjF6+L38bTaIy0PusWnm040T3ATR+77vaoAvlvA1zFymnAK2mf/Pfm7oMdN7TSfYBRM6buaR71WZfhxFk8ENdswOZxyWhRoaU0cNUCNLHpMg4FEbnCbhb4WDuaTaL+FgGzehefiBKzpdB5XqP9flJPItIruibt+ib9QnW31qew47yQrkEtFZmlJLIsRmvaDbsfqnbBoeP1+/VFom/0g+G1TYcgyCaU5Tgk2wP4lojRh8JM78T9QKjZVsocgW9otEqWBWdvPPO1HTv6YsIxNGzrUbB2Prz9qyUoi8xs91NfdlLy4GOST8SpC8XUr1600D4xu/pFg4ybat0eheCuEFD73foB2cNlR9NkC73HIjORw6/yfYe5a2/Ss6VwpalhOimFnqKpcLBSe5ojbR/30ev3rU0DRcBzicB2Utj8LaKEhNOjLjzwZ2rePbYV8cPATtTbv8SHR1jyUpn9huglKNwFZ+L6AfDCDaaIMvmZBFF3YodxLeBNrA9UE0gVrFbWZc5SIp4VNmuQUGB+Cm3qFzLQrX/gRD2wklgOTN8/N9r69TVD8i9FLmvkJF7/+At1gkQrLPrgealMJ0jmFcSHiLENOZzViE+czP6SKfXB2K6stLBXFjjziDlXwrdDx3yncz1GN/N0U1oPeC4bHw1Kh6yYxYTsiSpNFjl++0SHU06O4vILnAw8O/AEuQlofMSI/m7EC854Kr0dtvds272JXqZ5ZXfHODlHrxheyf9G4B7a6hBEomqy6PalT0JIuo3LkU2sj3cZ6Rvo2aQQYLE0Znq2dpFrmd7eIkOkGPJSm/6aBH+l65eIW5LtRaMb0fr2tXM8qXezK0UaGyfDnhHylvZWozrmBt9pNP9PKhx61JwJ9uD99VIEPdTAHWqKG2p0GMUhfKWb+YOAYZ9SKn0QbCLbr96akqVTiepjIQteYHkdM0ncCfdwqiXUFfv4I96XLRT/eal4F/ZHowq4lNhBskeAoheBsCkllkGTtY3D0iSZaJNDHoz6NAu8zzEiSQid40sr2Il0djHE2MSZICR2UCr2mpCy6yyL2H6+wBPMfECETyNbr9yvQ0TNjSrDglbThXIPWbskx84bvFUM7qGa9FfXslv2R6OWX5hPIIsB2SRhkOJLbMMHRwOuCZ4ng5OZmsh3r60zyAC0ps5WCLcCyrXrRyGZRIHg5s7kLynu7xawfZgzHe9MkGWZQ9FJHph3Akts2JgSmHmi4OHcNovdXxwBWROpvvKs9rKtgEFEu7wRqBwr+7B7JYXGLgh5RYuSgIa7d2r8o+knMj2cMy6jRUJMri2exAix6o7xpvp95yvLl9ZUp6Ytp+Uorhw5B5G9Avvc7z+k43omuRKoqDlXlBUK8SO9P7PTDmHc7bZepFbZ4/sTUCcGkn5eQbF1+/Ljp+PWaNzfIJ0ep8G1Usxl00e4/BF2ZURgtKbXiRCYxeCCPHZgENEU3iY0CNhOicGDgM320LKlWwtXm3CtpE6ZKl7EBzqHh7fTj+ouH09PkHyXnwiHmjUnot3vhOcRTANpcyvTC0FQLxK4J+n6vdI+bsD+AUE25t4octL11ThCM5GIgeckteePeL11Rn0w4rJ9MYlSHmZlffiCNH3awGW5CwSpo8VMD61n6Zl4xZh+b7jFk8zo2tyaYnC9D0ATe00bSLkJLpF3SjsMUE0MnsQv2MumD/eKFUnSFf2LIjcoTfUyc0iZRKvzZwvEf5Dz8ZBacHzjlfY04iuSaYkCjLPmdq1ooMLuH/hpqQgMDJ7kJcz1/M5PYJ0ZFuQQQARrQjOJL9FYgdLQeZaEpeaGBBK6k30/hFXbZ0yjwTbzRSWNO5yb4VKBNelvMJlSYFnZPYA/oZM1MaFvePuXFadQcq/0J1eHoRmqEGys0jZzt6W+0REuyA9gYPpFnQ//pJ6PxLRK2FmvgDaZ0Ekf8jWflM7YGMvr0x8ewi+yPagah31WgkyG0RcWXUHvdGRI+mHv9LTUVla1k2bJcX4uqveBaUkcjUl5bMpvWIgBxmAXqadd3PWprgKViKP5N0jAGrXmkcUHcUlvVX11ESQ8q9zl3cDBBdqeU3cw1ygVSGpWv/Smz5KhHHoSL33LcqqSQRsLWSr9bMt/l16Mz0iyldp/0bKqWwt/jJJbKTLuxsCzU0U3ku/p6ZQpdoJsjR7KBzNk/UycnIO/VC/AM04o6ATQ0TgRroF40VmknxpTOmWMHODQO1HcCJi2iTvfgSgflqpOiI8aiZI+dXOe98GoBuuvAbpTUfFFURNDexYeoph5mMO8OU6+3iRqcLrktq3r9OWCW8uT2CalDJ/AlBXRpYI+HjaLXwlSYPl6n13RXFaPDvppnkdde98PLvrI4jura2tluTpB7r3y6uORylMLyC4omrDwQYkz2Zrv+aWdq29NWc76W15n4jEP4Q1PQJZmHKLK2tqrNFI8l4nAP37O4zexlxvzWczdRFkcBa5H8AJGr7GopsQyZFcEhq/lzzSLultOVsiWQDiwEo2k+iG4JyptnNVCY94RwvEbRgfgSQAAAX7SURBVCKYU3GcBY/R4Uq29tdMJtV3ZnBbN/6g1j0M/hr94MP12FE/QbrmfAASmciWfgf94Ox6jFVtK49iB+ycvkKEcWHGowFkABQAPCQiD5nOD6tqZ7PJSW/6M5Uwc14uruR8vDIRNhta2sdxgUdwSRgHuNb81E2QwVkk3i8f94i+Jgso5zMX3lxTW0ON4rSZxR3TR6ZfLj7M+WWS2KcKAo3ETLrc8yA0cSL/JfpB3VG/igTJngnInQberBeA6Hj6vVPqUM4AblNCheRb5wPOAzoZ5AeB+juIw5kL1tQLnBJBBmYR9xaABjKDyIMohsezA1G9xtv22y4C0gEHafcBgG8z4KXyppA6QZbPmYVi9BAI/cA+4hrmggUGgLAqthEEpMtbCcEVBtxZh2LpcHas/YuKLmWClGeRruzFEPm8SsejZIj3MxckviNixFarJFEEpMs7G4JvmelELqYffkFVlxZBBj/Y42x2cSpN3acPjpzAxeFaXUVWfvIiIMvc/RExvh9uIn3tL+kH8a6l8qNPkKXZo+GIdrbDQQ/uph8olxRWRsEKNg0CkvfuAmAmXk+iM9neW653rvpoE6Q8i3S6y0BeqWrECLlb6AcfM6TLqplECEjei8NVPmrI5K/QDz6uq8sMQTqyOyFdnkUqnlbXZShxHXNBYhdu6rLFNp4QBKTLuxZi5sJbOY8CcRxzgXaCciMEGZhFvHeC+KExNEcUUzSm1ypqOgSk0+2AXiXj4T458l4uDuOlmvZjjCBlkuSzVwFirjCK4DK2B9dpe2kVNC0C0uldCuJaYwaKfI7t4eWm9BklyCBJfgKIueLw5MeY67nFlMNWT/MgIF3Zj0LEZJj8r1B89Th2rP+HKS/NE6TLewsEPwPwGlNGwsHpXBwYSqJszCqrSAMBWeadhgh3a6gYLSrOcWzvftCkTuMEGfwe0S2mONLHbhT5dnb0PGfSeaurMQhIR3ZPpCX+Ea0cTl+vaYJPsT34Yr1i1donQpDBpZZmQfdRphvZtqsGiP178ghI3otveprbyjf83TEUgeQI0tH6RqSd+FdCq5728OFKTae/5pnkh9D2kBQCkp+7D1DaYEy/4C62B+81pm+EosQIUp5FTK8ziROYC+LwZ/tMUgSkyzsegjFLDdTtkuAxOHiXifOOSn0nSpCB75HsuaAY2oXSCzyrewCsgHEEJK9d/3LAJsELoLwryTxrcTeJE2Twe+QSQEYVSKwffV5Iv8dMDt76O7cSBhCQfPYCQG7UVjVB0d8TQpCBmcTLgdArQi9yLNvDn2uDaxU0DAHpdI8BWXNWkQqGXkQ/uGEinJgwggzOJJp1D0t701/7h4kAxvaRDAKS338vILVRWTvhMxd0KcvXKTihBBkkyfWAVE0aPMoPwbfZHujVKakTHNs8GQSk0/sWiPoz2iS4nVvJ0wknyABJvDh95EfqgP8V+sGOdbS3TZscAcl7L9eZDL0h52ANIcjgN8ntIGpL4qWQz6jJ348pb54sdQ+Hw9oy/Qu+yvagnh9UY/g2jCCDy614RyP+cN+9gkdfxg4vXcLLNr5qzGOrqGkQkGv33h6v7BznNKh0semvAP1G7lw2lCBlkiydcwBYOgQOPUi5rkcMSgiRHrbbAMWmeZsTNEQ6vdNAZgFxyz+WRC8iCSCp33BJ96oEu66quuEEqWqhbWARaCACliANBN923fwIWII0/xhZCxuIgCVIA8G3XTc/ApYgzT9G1sIGImAJ0kDwbdfNj4AlSPOPkbWwgQhYgjQQfNt18yNgCdL8Y2QtbCACliANBN923fwIWII0/xhZCxuIgCVIA8G3XTc/ApYgzT9G1sIGImAJ0kDwbdfNj4AlSPOPkbWwgQhYgjQQfNt18yNgCdL8Y2QtbCACliANBN923fwIWII0/xhZCxuIgCVIA8G3XTc/ApYgzT9G1sIGImAJ0kDwbdfNj4AlSPOPkbWwgQhYgjQQfNt18yNgCdL8Y2QtbCACliANBN923fwIWII0/xhZCxuIgCVIA8G3XTc/ApYgzT9G1sIGIvD/ARX9n5sHylKgAAAAAElFTkSuQmCC;" vertex="1" parent="1">
          <mxGeometry x="-1427.5" y="450" width="30" height="30" as="geometry" />
        </mxCell>
        <mxCell id="FnWfrTRd6geeHGJAiOIr-279" style="edgeStyle=orthogonalEdgeStyle;rounded=0;orthogonalLoop=1;jettySize=auto;html=1;exitX=0.5;exitY=1;exitDx=0;exitDy=0;" edge="1" parent="1" source="FnWfrTRd6geeHGJAiOIr-258">
          <mxGeometry relative="1" as="geometry">
            <mxPoint x="-1250" y="670" as="targetPoint" />
          </mxGeometry>
        </mxCell>
        <mxCell id="FnWfrTRd6geeHGJAiOIr-258" value="" style="rounded=1;whiteSpace=wrap;html=1;strokeColor=#2196F3;fillColor=#FFFFFF;" vertex="1" parent="1">
          <mxGeometry x="-1359.5" y="410" width="219.5" height="180" as="geometry" />
        </mxCell>
        <mxCell id="FnWfrTRd6geeHGJAiOIr-259" value="&lt;font color=&quot;#2196f3&quot; style=&quot;font-size: 14px&quot;&gt;controller&lt;/font&gt;" style="text;html=1;strokeColor=none;fillColor=none;align=center;verticalAlign=middle;whiteSpace=wrap;rounded=0;" vertex="1" parent="1">
          <mxGeometry x="-1350" y="420" width="70" height="20" as="geometry" />
        </mxCell>
        <mxCell id="FnWfrTRd6geeHGJAiOIr-264" style="edgeStyle=orthogonalEdgeStyle;rounded=0;orthogonalLoop=1;jettySize=auto;html=1;exitX=0.5;exitY=1;exitDx=0;exitDy=0;entryX=0.5;entryY=0;entryDx=0;entryDy=0;entryPerimeter=0;" edge="1" parent="1" source="FnWfrTRd6geeHGJAiOIr-260" target="FnWfrTRd6geeHGJAiOIr-262">
          <mxGeometry relative="1" as="geometry" />
        </mxCell>
        <mxCell id="FnWfrTRd6geeHGJAiOIr-260" value="&lt;font color=&quot;#ffffff&quot; style=&quot;font-size: 14px&quot;&gt;属性更新回调&lt;/font&gt;" style="rounded=1;whiteSpace=wrap;html=1;strokeColor=#2196F3;fillColor=#2196F3;" vertex="1" parent="1">
          <mxGeometry x="-1300" y="452.5" width="100" height="25" as="geometry" />
        </mxCell>
        <mxCell id="FnWfrTRd6geeHGJAiOIr-270" style="edgeStyle=orthogonalEdgeStyle;rounded=0;orthogonalLoop=1;jettySize=auto;html=1;exitX=0.5;exitY=1;exitDx=0;exitDy=0;exitPerimeter=0;entryX=0.5;entryY=0;entryDx=0;entryDy=0;" edge="1" parent="1" source="FnWfrTRd6geeHGJAiOIr-262" target="FnWfrTRd6geeHGJAiOIr-265">
          <mxGeometry relative="1" as="geometry">
            <Array as="points">
              <mxPoint x="-1250" y="540" />
              <mxPoint x="-1315" y="540" />
            </Array>
          </mxGeometry>
        </mxCell>
        <mxCell id="FnWfrTRd6geeHGJAiOIr-272" style="edgeStyle=orthogonalEdgeStyle;rounded=0;orthogonalLoop=1;jettySize=auto;html=1;exitX=0.5;exitY=1;exitDx=0;exitDy=0;exitPerimeter=0;entryX=0.5;entryY=0;entryDx=0;entryDy=0;" edge="1" parent="1" source="FnWfrTRd6geeHGJAiOIr-262" target="FnWfrTRd6geeHGJAiOIr-266">
          <mxGeometry relative="1" as="geometry" />
        </mxCell>
        <mxCell id="FnWfrTRd6geeHGJAiOIr-273" style="edgeStyle=orthogonalEdgeStyle;rounded=0;orthogonalLoop=1;jettySize=auto;html=1;exitX=0.5;exitY=1;exitDx=0;exitDy=0;exitPerimeter=0;entryX=0.5;entryY=0;entryDx=0;entryDy=0;" edge="1" parent="1" source="FnWfrTRd6geeHGJAiOIr-262" target="FnWfrTRd6geeHGJAiOIr-267">
          <mxGeometry relative="1" as="geometry">
            <Array as="points">
              <mxPoint x="-1250" y="540" />
              <mxPoint x="-1185" y="540" />
            </Array>
          </mxGeometry>
        </mxCell>
        <mxCell id="FnWfrTRd6geeHGJAiOIr-262" value="" style="strokeWidth=2;html=1;shape=mxgraph.flowchart.direct_data;whiteSpace=wrap;fillColor=#FFFFFF;strokeColor=#009688;" vertex="1" parent="1">
          <mxGeometry x="-1280" y="503.5" width="60" height="20" as="geometry" />
        </mxCell>
        <mxCell id="FnWfrTRd6geeHGJAiOIr-278" style="edgeStyle=orthogonalEdgeStyle;rounded=0;orthogonalLoop=1;jettySize=auto;html=1;exitX=0.5;exitY=1;exitDx=0;exitDy=0;entryX=0.5;entryY=0;entryDx=0;entryDy=0;" edge="1" parent="1" source="FnWfrTRd6geeHGJAiOIr-265" target="FnWfrTRd6geeHGJAiOIr-276">
          <mxGeometry relative="1" as="geometry" />
        </mxCell>
        <mxCell id="FnWfrTRd6geeHGJAiOIr-265" value="&lt;font color=&quot;#ffffff&quot; style=&quot;font-size: 14px&quot;&gt;worker&lt;/font&gt;" style="rounded=1;whiteSpace=wrap;html=1;strokeColor=#2196F3;fillColor=#2196F3;" vertex="1" parent="1">
          <mxGeometry x="-1340" y="560" width="50" height="20" as="geometry" />
        </mxCell>
        <mxCell id="FnWfrTRd6geeHGJAiOIr-266" value="&lt;font color=&quot;#ffffff&quot; style=&quot;font-size: 14px&quot;&gt;worker&lt;/font&gt;" style="rounded=1;whiteSpace=wrap;html=1;strokeColor=#2196F3;fillColor=#2196F3;" vertex="1" parent="1">
          <mxGeometry x="-1275" y="560" width="50" height="20" as="geometry" />
        </mxCell>
        <mxCell id="FnWfrTRd6geeHGJAiOIr-280" style="edgeStyle=orthogonalEdgeStyle;rounded=0;orthogonalLoop=1;jettySize=auto;html=1;exitX=0.5;exitY=1;exitDx=0;exitDy=0;" edge="1" parent="1" source="FnWfrTRd6geeHGJAiOIr-267">
          <mxGeometry relative="1" as="geometry">
            <mxPoint x="-1250" y="670" as="targetPoint" />
          </mxGeometry>
        </mxCell>
        <mxCell id="FnWfrTRd6geeHGJAiOIr-267" value="&lt;font color=&quot;#ffffff&quot; style=&quot;font-size: 14px&quot;&gt;worker&lt;/font&gt;" style="rounded=1;whiteSpace=wrap;html=1;strokeColor=#2196F3;fillColor=#2196F3;" vertex="1" parent="1">
          <mxGeometry x="-1210" y="560" width="50" height="20" as="geometry" />
        </mxCell>
        <mxCell id="FnWfrTRd6geeHGJAiOIr-274" value="" style="rounded=1;whiteSpace=wrap;html=1;strokeColor=#2196F3;fillColor=#FFFFFF;" vertex="1" parent="1">
          <mxGeometry x="-1357.5" y="622.5" width="217.5" height="107.5" as="geometry" />
        </mxCell>
        <mxCell id="FnWfrTRd6geeHGJAiOIr-275" value="&lt;font color=&quot;#2196f3&quot; style=&quot;font-size: 14px&quot;&gt;action&lt;/font&gt;" style="text;html=1;strokeColor=none;fillColor=none;align=center;verticalAlign=middle;whiteSpace=wrap;rounded=0;" vertex="1" parent="1">
          <mxGeometry x="-1359.5" y="645" width="70" height="20" as="geometry" />
        </mxCell>
        <mxCell id="FnWfrTRd6geeHGJAiOIr-291" style="edgeStyle=orthogonalEdgeStyle;rounded=0;orthogonalLoop=1;jettySize=auto;html=1;exitX=0.5;exitY=1;exitDx=0;exitDy=0;entryX=0.31;entryY=0.074;entryDx=0;entryDy=0;entryPerimeter=0;" edge="1" parent="1" source="FnWfrTRd6geeHGJAiOIr-276" target="FnWfrTRd6geeHGJAiOIr-284">
          <mxGeometry relative="1" as="geometry" />
        </mxCell>
        <mxCell id="FnWfrTRd6geeHGJAiOIr-276" value="&lt;font color=&quot;#ffffff&quot; style=&quot;font-size: 14px&quot;&gt;行为&lt;/font&gt;" style="rounded=1;whiteSpace=wrap;html=1;strokeColor=#2196F3;fillColor=#2196F3;" vertex="1" parent="1">
          <mxGeometry x="-1275" y="670" width="50" height="20" as="geometry" />
        </mxCell>
        <mxCell id="FnWfrTRd6geeHGJAiOIr-282" value="" style="rounded=1;whiteSpace=wrap;html=1;strokeColor=#2196F3;fillColor=#FFFFFF;" vertex="1" parent="1">
          <mxGeometry x="-1357.5" y="752.5" width="497.5" height="107.5" as="geometry" />
        </mxCell>
        <mxCell id="FnWfrTRd6geeHGJAiOIr-283" value="&lt;font color=&quot;#2196f3&quot; style=&quot;font-size: 14px&quot;&gt;client&lt;/font&gt;" style="text;html=1;strokeColor=none;fillColor=none;align=center;verticalAlign=middle;whiteSpace=wrap;rounded=0;" vertex="1" parent="1">
          <mxGeometry x="-1357.5" y="770" width="70" height="20" as="geometry" />
        </mxCell>
        <mxCell id="FnWfrTRd6geeHGJAiOIr-306" style="edgeStyle=orthogonalEdgeStyle;rounded=0;orthogonalLoop=1;jettySize=auto;html=1;exitX=0.25;exitY=1;exitDx=0;exitDy=0;entryX=0.5;entryY=0;entryDx=0;entryDy=0;" edge="1" parent="1" source="FnWfrTRd6geeHGJAiOIr-284" target="FnWfrTRd6geeHGJAiOIr-285">
          <mxGeometry relative="1" as="geometry">
            <Array as="points">
              <mxPoint x="-1280" y="820" />
            </Array>
          </mxGeometry>
        </mxCell>
        <mxCell id="FnWfrTRd6geeHGJAiOIr-284" value="&lt;font color=&quot;#ffffff&quot; style=&quot;font-size: 14px&quot;&gt;发送请求&lt;/font&gt;" style="rounded=1;whiteSpace=wrap;html=1;strokeColor=#2196F3;fillColor=#2196F3;" vertex="1" parent="1">
          <mxGeometry x="-1340" y="796.25" width="290" height="23.75" as="geometry" />
        </mxCell>
        <mxCell id="FnWfrTRd6geeHGJAiOIr-288" style="edgeStyle=orthogonalEdgeStyle;rounded=0;orthogonalLoop=1;jettySize=auto;html=1;exitX=1;exitY=0.5;exitDx=0;exitDy=0;entryX=0.474;entryY=0.954;entryDx=0;entryDy=0;entryPerimeter=0;" edge="1" parent="1" source="FnWfrTRd6geeHGJAiOIr-285" target="FnWfrTRd6geeHGJAiOIr-287">
          <mxGeometry relative="1" as="geometry" />
        </mxCell>
        <mxCell id="FnWfrTRd6geeHGJAiOIr-285" value="" style="shape=image;verticalLabelPosition=bottom;labelBackgroundColor=#ffffff;verticalAlign=top;aspect=fixed;imageAspect=0;image=data:image/png,iVBORw0KGgoAAAANSUhEUgAAAMgAAADICAYAAACtWK6eAAASlUlEQVR4Xu2de5Ac1XWHz+npmV2trCdCjwW9HYlY7CyPOLKlnbUpk7KTkAQSOQGHpIwDSUgiJypKdoDYJBjLMdjYJRxcZQhUIidKRGLsCAdTCYHMjEBOCNb07iYWWC8LPUGP1aJ9TD9uqnctJIF25t7b3TPd27/+iyrOObfvd+6n2ZntPcOECwRAYFwCDDYgAALjE4AgOB0gUIMABMHxAAEIgjMAAnoE8Aqixw1ZKSEAQVLSaGxTjwAE0eOGrJQQgCApaTS2qUcAguhxQ1ZKCECQlDQa29QjAEH0uCErJQQgSEoajW3qEYAgetyQlRICECQljcY29QhAED1uyEoJAQiSkkZjm3oEIIgeN2SlhAAESUmjsU09AhBEjxuyUkIAgqSk0dimHgEIoscNWSkhAEFS0mhsU48ABNHjhqyUEIAgKWk0tqlHAILocbtgVrnHXi8E3RdiyTSWygnTbO9+Dx+Kw+YhSIhdKFn2k0R0fYglU1nKELxmdaf5z3HYPAQJsQslyz5CRLNDLJnWUg8W8tk74rB5CBJSF8o7RlYIw+gNqVzay2wv5LPvjwMECBJSF4pW9TYm/kZI5VJfJvPm4bZVq+YPNRsEBAmpA0Wr+jgTfzykcqkvIwRd292ZfbbZICBISB0oVao7iXlZSOVSX0YQfbY7n/1cs0FAkBA6UP6haBdV50AIpVDiJwSY+OmuvPkLzQYCQULoQLHirGEWT4RQCiXeIsD9hbw5vdlAIEgIHShb9oOCaF0IpVDiHAJCiKu7O3MvNxMKBAmBfsmytxPRyhBKocQ5BJjE2q587mvNhAJBAtLf+tLBtum5i08HLIP0CxIQmwv53MeaCQeCBKRfsoavJcr8W8AySL8QASH2FTpzi5oJB4IEpF+27M8IonsDlkH6OARyOXPJyst4T7MAQZCA5EuW8zSR+EjAMkgfhwAT39yVN/+uWYAgSEDy5R6nXwgxNWAZpI9HgPnhQof5h80CBEECkC9Z1auJ+KUAJZBahwAz7ejqyF7ZLFAQJAD5Yk91LQveGKAEUqUImDMLeT4hFRpyEAQJALRUqW4m5hsDlECqBAHBfF13h/ldidDQQyBIAKQlq7qPiBcEKIFUCQIsaENXZ/ZuidDQQyCIJtKSJZYQObs005GmRuD5Qj57jVpKONEQRJPjth7nZk+ITZrpSFMjUC3ksy1qKeFEQxBNjuUe52EhxO2a6UhTJJBhWr2qI/uCYlrgcAiiibBk2TuIqFMzHWmKBJiN9V0dmS8ppgUOhyAaCF/o65/pum3HNFKRokuA+clCh/mruum6eRBEg1xph3MdGWKrRipSNAkw8ZGuvDlXM107DYJooCtW7A3MdKdGKlICEBCOt6L7qpb/DVBCORWCKCMjKlr280z0AY1UpAQgIIS4rbsz92iAEsqpEEQRmRCCy5YzQkxZxVSEByYgHi/kc58IXEahAARRgOWHFnvt1exRWTEN4aEQEDsL+dxloZSSLAJBJEGdCStX7PWC6X7FNISHRKDRk98hiGLjMMFdEVjI4YbBa1Zf3rjJ7xBEsYGY4K4ILPzwhk5+hyAKDcQEdwVY0YU2dPI7BFFoZLnXuVV44hGFFIRGQCDzptm2ahU3ZPI7BFFoYMlyHiMStyikIDQCAo2c/A5BFBpYsuwfEtFyhRSERkCgkZPfIYhkA8svi3ZhYoK7JK5owwR9r9CZ/floFxmrDkEkKWOCuySoxoSdKuSz0xqxFASRpFy07AcZE9wlaUUf1qjJ7xBEspeY4C4JqkFhjZr8DkEkGvrCfjHJPeEMSoQipGEEeHMhb0Y++R2CSDS0WLE/xEz/LhGKkEYRYN5X6DAjn/wOQSQaignuEpCaEuIuLeRbd0e5NASRoFuy7KeJCBPcJVg1MkR43m91X9HyzSjXhCASdEs9dj8JwgR3CVaNDBFCfL27M/cHUa4JQerQxQT3KI9f0NqiUsjnrghapVY+BKlDt7ijupYNTHCP8hAGqx3t5PdYCVKsjMRuUjqzsZaIVgVrIrKjIhD15PfYCFLqFZ3kOf60QlwgIE2AmTZ0dUQ3+T02gmzrcW/3hPewNBkEgsAYgUgnv8dGkLLlbBIkbkbXQUCRQLWrw2xlZqGYJxUeG0FKlv9dG/53buACATUCwqWu7iuz29Sy5KJjIci2l4cWeqa5V+6WEQUC5xMQgj7V3Zl9IAousRCkVBm5idj4+yg2iJopIBDh5PdYCFK0qg8x8R+loJXYYgQEopz8Hg9BKtX/YearImCHkikhIDLmiu4VHPrk96YLsv1VMdUecvpT0kdsMyICUU1+b7ogpYr9EWLyn5bFBQIBCEQz+b3pghQt+14m+kwAMkgFAZ/AzkI+G/rk96YLUrJs/y/1PoQeg0BQAuxUL+m6avLBoHXOzY+DIP7fek8Kc1OolU4CQngf7e5s+acwd99UQZ6rVN9nMr8Y5oZQK9UEQp/83lRBypa7TpD3YKpbis2HSSD0ye9NFaRkOU8QiTVhEkKtdBMIe/J7swU5QCTa091S7D5MAmFPfm+aIOXK8HLBGX9aOi4QCI0AE322K5/9XFgFmyZIyareQsSPhbUR1AGBnxD4XiEf3uT3pglS7Kk+woJvjVNbTw9H8jc3zd6iEIJONPsmGrh+9s+/OXDp9x+66FQYazZNkJJV7SPi94SxibBqbOtz6dtlO6xyqNMkAsKoTku0INsqYrbHzpEm8Rt3WQgSt47o3U/iBSlazvVM4km97UeXBUGiY9vIyokXpNxj3y8ErW8kNJm1IIgMpfjHJF6QUo9dJkGr44YagsStI3r3k2hBtvSJ3DzXGY7j9yNCEL0DGbesRAtS+oH9QcrQc3GD6t8PBIljV9TvKdGCFCv2Xcz0efVtR58BQaJn3IgVki2IZT/FRL/YCFCqa0CQCxPj0zuJh35MxuBu8v9btC0l0baEROsl5E3Jq2J+RzwPv0Y8uId4aA8Zp18hkZ0xtsZo/Q4io1VpjUQLUrLs40Q0Q2nHDQqGIO8EnTnwt2ScGn+muJi8jJxLP658iM+slDnyHTJOlImEe8Eui9xscufeQGLyculTkFhBSr3VTvI4thPcIcjZM8jDB8jc82XpQ+ksvmP0X3yVK/vqPUTOgFSKN+vD5F78YanYxApS7KnezoJjO8Edgpw9f9lX7iZyh6QO5GhQZhLZy+TfWmYObiaj/7/l6xORs2Q9iZZ5dXMSK0jZqm4SxLGd4A5Bxs5e5siTZBwv1T2Ibw/wZhbInXND3Tzj5HbKHNpSN+7tAf77EmfB7xJxtmZuYgUpWdVdRBzbCe4QhIidfjJf/Qvlw3smwVnyaRItc2rm+z+6+T/C6VzuvN8gb/rKiSfIsy8PLczFfII7BCHiwR+RuU//p2C3/Sbypr235gHO7vw0kaf31LQvhy9JrSuRryDbep0bPU9s1vlXo1E5EIRI98efMz3yZqwid+74Ywa4+gaZuzZot1S0zCVnyacmniDlHmejEML/QszYXhCEyDj2HGWObtXukf97C/fSW8bN5+H9ZO75inZ9yrSRvey+iSdIybJfIqKr9clEnwlBiPjN/yNz/yPasN25v0bejBrPoXrDlN15l3Z9b+oV5F7y2xNLkKRMcIcgREF/BHIWryPROr/2m/TdXyQe0ft7Of9TMv/Tsgn1HiQpE9whyNixM/c+NPrYh+olJi0mZ1H9n6Izh7819ttz1cvIkrPwk3V/IZm4N+lJmeAOQcZOLA/tJXPvRtXjS86iT5KYtEgqz/zRvcT2SanYM0Gyv01PnCBJmeAOQc6eV+P4f5L/nJTs5c75FfJmfkA2nHjkMJm775eO95/Fchb8nlR88gSp2IPE8Z/gDkHOP3/+Ic4cfmL0SdvxLpGdOfqmWUxaIHV4zwsS9qiExokXaua67b9J3jT5z3cSJUipr7qSXN6uTq/xGRDkwswzrz9DPLSbeHD3W0/d+j9KiUkLyZ31c+R/9BrkMvpfIh7oGX2cntzTo6X833f49b3p71eWL1GClK3qOkGciAnuEKTOMRfu6Jt3/+DWex5KVxj/ERRhTiUyp+iWoEQJkqQJ7hBE+0zGKjFpgiRmgjsEidU5176ZxAiStAnuEET7TMYqMTGCJG2COwSJ1TnXvpnECFKsVB9hjtcE91rUIYj2mYxVYmIEieMEdwgSq7Mcyc0kQpC4TnCHIJGcyVgVTYQgcZ3gXquTO3ZdePRMrLof8s0MnBbf/86LzldDLtvcckb1X2P//SBxneDe3M7FcvWDhXxWbV5PLLcRzU1F9g1TpYpdJo7fBPdoMCa7Kgv3sq7O1p3J3kU0dx+JIFv6+nLz3GWxnOAeDcakVxWfKORzjyd9F1HcfySCxHmCexQQk15TCPFod2futqTvI4r7j0SQco97pxCe/uiKKHaKmrUI9BXy2cuB6J0EIhGk1ONsJSGuA/DkEDCEOWd1Jx9Nzh035k6jEcRyjhGJmY3ZAlYJg4AgvqE7b347jFoTqUbogsR9gvtEal6Ye2GmB7o6srUnsoW5YEJqhS5IsVK9nTm+E9wT0pfG36agbYXObFfjF473iuELYlU3cYwnuMe7HU29O3EoY7b++gquNvUuYrZ46ILEfYJ7zPjH63ZcuqZwZfb5eN1Uc+8mVEFKfWIBuc6+5m4Jq+sSYDbu6urIfEE3fyLmhSpIsde5kWM+wX0iNjG0PTE/Vegwfym0ehOgUKiClC1no6B4T3CfAD2LbAtMfLwrb14U2QIJLByqIEmY4J7AHjX2lg1xReHyXKWxi8Z3tdAEeWDLycUXTWnFA2/x7bXUnfWf5sPr1rTcKBWcgqDQBFm59thU9nL9KWA2obfIgta++PCUr03oTSpsDoIowEpDKAQ5v8sQJA2nXmGPEASCKByX9IVCEAiSvlOvsGMIAkEUjkv6QiEIBEnfqVfYMQSBIArHJcRQYY9+gyyRQSI3i4gzIRYfK8X2MSJ3kETuYiKjVas+BIEgWgdHNylz9CnigV7i6jl/zcoZEi3zyJuSJ2/WtbqlR/OMY/9BxqkdY/W9s0+qi5Y5JNqWkjvneiI2pdeAIBBE+rAECWSnnzL7HyX/G5NqXf5BduffSiKr/giU1Nc1G63kzvsoeVOvlNoOBIEgUgclUJA3QtmddyqVsC/7otLXmpm7vkBcfV16DWfRH499dVqdC4JAkHpnJPD/N/f9FfHgLqU63oxV5M5dI5VjnPwvyhz6B6nYt4LMKWS/+x4iNmrmQRAIonawFKONk9spc2iLYtZYuNv+MfKm/UztAzx8kMy9XyUSjvIa3swPkjvnlyGIAjk8aqIASyY0c2ATGad+IBP6jhhv2nvJbb+pZq5x7DnKHN2qVd//dMtZWvtHP7yC4BVE63DJJmVfvYfIGZANPy9OTFpAzqI/qZlr7v9r4jf7tOr7SfbyDTU/AoYgEET7cNVL5JGDZO7+Ur2w8f+/kSN7+V/WzM/uvJvIG9JewxfQF3G8C4JAEO3DVTfRHaTsK39WN2y8AJGdSc67a+ebe75CPLxfew2/vr8OBJFDiPcgcpyko8y9G4mH9krHnxso3vXT5MyvPWTd/8Wj/8tBrSvTRvay+2qm4hUEryBaZ0s2KXPkX8g4rjdayrvoGnJn1x4qYgxUKPPa38jeznlxom0xOQvXQhAFengFUYAlE+o/8mHu/jKRsGXCz8YYreQs/VMS5tS6eea+h4gH99SNe3uA/wmZ/0lZrQuvIHgFUT5YqgnGsWcpc/S7Smnu/N8h710rpHLY/13IHrUPA8TkZeQs+P269SEIBKl7SMIIyLz2GBkDvVKlZN57vL1Q5vVnyHjjGbn6Er//OFMIgkAQqUMVRpAxYFHm0D8SuRf+WNb/NMl/mteb/j6t5XjkEGUOf2v8x1rYHH18xZv+s9L1IQgEkT4sYQT6h5iHfjz2YKH/9yBskGhpJ8rNIm/yTxFlJgdbRtijr1Q8cpTIfoN49O9BZtPo4+6tC0i0tivVhyAQROnApC0YgkCQtJ15pf1CEAiidGDSFgxBIEjazrzSfiEIBFE6MGkLhiAQJG1nXmm/EASCKB2YtAVDkGgFkZ8ikLaTl5D9sqA78PUHZ5sV2sOKCek/bhMElAhAECVcCE4bAQiSto5jv0oEIIgSLgSnjQAESVvHsV8lAhBECReC00YAgqSt49ivEgEIooQLwWkjAEHS1nHsV4kABFHCheC0EYAgaes49qtEAIIo4UJw2ghAkLR1HPtVIgBBlHAhOG0EIEjaOo79KhGAIEq4EJw2AhAkbR3HfpUIQBAlXAhOGwEIkraOY79KBCCIEi4Ep40ABElbx7FfJQIQRAkXgtNGAIKkrePYrxIBCKKEC8FpIwBB0tZx7FeJwP8DoiLDI9mwZNsAAAAASUVORK5CYII=;" vertex="1" parent="1">
          <mxGeometry x="-1300" y="885" width="40" height="40" as="geometry" />
        </mxCell>
        <mxCell id="FnWfrTRd6geeHGJAiOIr-290" style="edgeStyle=orthogonalEdgeStyle;rounded=0;orthogonalLoop=1;jettySize=auto;html=1;exitX=1;exitY=0.5;exitDx=0;exitDy=0;entryX=0;entryY=0.5;entryDx=0;entryDy=0;entryPerimeter=0;" edge="1" parent="1" source="FnWfrTRd6geeHGJAiOIr-287" target="FnWfrTRd6geeHGJAiOIr-289">
          <mxGeometry relative="1" as="geometry" />
        </mxCell>
        <mxCell id="FnWfrTRd6geeHGJAiOIr-287" value="&lt;font color=&quot;#ffffff&quot; style=&quot;font-size: 14px&quot;&gt;请求回调&lt;/font&gt;" style="rounded=1;whiteSpace=wrap;html=1;strokeColor=#2196F3;fillColor=#2196F3;" vertex="1" parent="1">
          <mxGeometry x="-1265" y="828.13" width="215" height="21.87" as="geometry" />
        </mxCell>
        <mxCell id="FnWfrTRd6geeHGJAiOIr-303" style="edgeStyle=orthogonalEdgeStyle;rounded=0;orthogonalLoop=1;jettySize=auto;html=1;exitX=0.5;exitY=0;exitDx=0;exitDy=0;exitPerimeter=0;entryX=0.5;entryY=1;entryDx=0;entryDy=0;" edge="1" parent="1" source="FnWfrTRd6geeHGJAiOIr-289" target="FnWfrTRd6geeHGJAiOIr-297">
          <mxGeometry relative="1" as="geometry" />
        </mxCell>
        <mxCell id="FnWfrTRd6geeHGJAiOIr-289" value="" style="strokeWidth=2;html=1;shape=mxgraph.flowchart.direct_data;whiteSpace=wrap;fillColor=#FFFFFF;strokeColor=#009688;" vertex="1" parent="1">
          <mxGeometry x="-985" y="830.0000000000001" width="60" height="20" as="geometry" />
        </mxCell>
        <mxCell id="FnWfrTRd6geeHGJAiOIr-292" value="" style="rounded=1;whiteSpace=wrap;html=1;strokeColor=#2196F3;fillColor=#FFFFFF;" vertex="1" parent="1">
          <mxGeometry x="-1120" y="621.25" width="260" height="108.75" as="geometry" />
        </mxCell>
        <mxCell id="FnWfrTRd6geeHGJAiOIr-295" style="edgeStyle=orthogonalEdgeStyle;rounded=0;orthogonalLoop=1;jettySize=auto;html=1;exitX=0.5;exitY=1;exitDx=0;exitDy=0;entryX=0.897;entryY=-0.011;entryDx=0;entryDy=0;entryPerimeter=0;" edge="1" parent="1" source="FnWfrTRd6geeHGJAiOIr-293" target="FnWfrTRd6geeHGJAiOIr-284">
          <mxGeometry relative="1" as="geometry" />
        </mxCell>
        <mxCell id="FnWfrTRd6geeHGJAiOIr-293" value="&lt;font color=&quot;#ffffff&quot; style=&quot;font-size: 14px&quot;&gt;属性监控&lt;/font&gt;" style="rounded=1;whiteSpace=wrap;html=1;strokeColor=#2196F3;fillColor=#2196F3;" vertex="1" parent="1">
          <mxGeometry x="-1110" y="695" width="60" height="15" as="geometry" />
        </mxCell>
        <mxCell id="FnWfrTRd6geeHGJAiOIr-296" value="&lt;font color=&quot;#2196f3&quot; style=&quot;font-size: 14px&quot;&gt;watcher&lt;/font&gt;" style="text;html=1;strokeColor=none;fillColor=none;align=center;verticalAlign=middle;whiteSpace=wrap;rounded=0;" vertex="1" parent="1">
          <mxGeometry x="-1120" y="640" width="70" height="20" as="geometry" />
        </mxCell>
        <mxCell id="FnWfrTRd6geeHGJAiOIr-305" style="edgeStyle=orthogonalEdgeStyle;rounded=0;orthogonalLoop=1;jettySize=auto;html=1;exitX=0.5;exitY=0;exitDx=0;exitDy=0;entryX=0.5;entryY=1;entryDx=0;entryDy=0;" edge="1" parent="1" source="FnWfrTRd6geeHGJAiOIr-297" target="FnWfrTRd6geeHGJAiOIr-304">
          <mxGeometry relative="1" as="geometry" />
        </mxCell>
        <mxCell id="FnWfrTRd6geeHGJAiOIr-297" value="" style="rounded=1;whiteSpace=wrap;html=1;strokeColor=#2196F3;fillColor=none;" vertex="1" parent="1">
          <mxGeometry x="-1040" y="655.63" width="170" height="64.37" as="geometry" />
        </mxCell>
        <mxCell id="FnWfrTRd6geeHGJAiOIr-298" value="&lt;font color=&quot;#2196f3&quot; style=&quot;font-size: 14px&quot;&gt;属性状态上报&lt;/font&gt;" style="text;html=1;strokeColor=none;fillColor=none;align=center;verticalAlign=middle;whiteSpace=wrap;rounded=0;" vertex="1" parent="1">
          <mxGeometry x="-1046.25" y="660" width="96.25" height="20" as="geometry" />
        </mxCell>
        <mxCell id="FnWfrTRd6geeHGJAiOIr-299" value="&lt;font color=&quot;#ffffff&quot; style=&quot;font-size: 14px&quot;&gt;worker&lt;/font&gt;" style="rounded=1;whiteSpace=wrap;html=1;strokeColor=#2196F3;fillColor=#2196F3;" vertex="1" parent="1">
          <mxGeometry x="-1036.25" y="695" width="50" height="20" as="geometry" />
        </mxCell>
        <mxCell id="FnWfrTRd6geeHGJAiOIr-300" value="&lt;font color=&quot;#ffffff&quot; style=&quot;font-size: 14px&quot;&gt;worker&lt;/font&gt;" style="rounded=1;whiteSpace=wrap;html=1;strokeColor=#2196F3;fillColor=#2196F3;" vertex="1" parent="1">
          <mxGeometry x="-980" y="695" width="50" height="20" as="geometry" />
        </mxCell>
        <mxCell id="FnWfrTRd6geeHGJAiOIr-301" value="&lt;font color=&quot;#ffffff&quot; style=&quot;font-size: 14px&quot;&gt;worker&lt;/font&gt;" style="rounded=1;whiteSpace=wrap;html=1;strokeColor=#2196F3;fillColor=#2196F3;" vertex="1" parent="1">
          <mxGeometry x="-925" y="695" width="50" height="20" as="geometry" />
        </mxCell>
        <mxCell id="FnWfrTRd6geeHGJAiOIr-304" value="" style="shape=image;verticalLabelPosition=bottom;labelBackgroundColor=#ffffff;verticalAlign=top;aspect=fixed;imageAspect=0;image=data:image/png,iVBORw0KGgoAAAANSUhEUgAAAMgAAADICAYAAACtWK6eAAAgAElEQVR4Xu19a5hcRbX2++7unnAH5aAokERImL07mSAS7uABERCVmwLi5Sh44SKCBz5IQnpPHDI9CQkK54jCAZWLd1ABBS+Ih08P4ieKckIys/eEAJkQEbwdDgiY6e69vmf3TJK59XR3Ve3pnkzt54H8mFqr1nprv121q1atRdjHImARqIgALTYWAYtAZQQsQezbYREYBwFLEPt6WAQsQew7YBFQQ8DOIGq4WakpgoAlyBQZaOumGgKWIGq4WakpgoAlyBQZaOumGgKWIGq4WakpgoAlyBQZaOumGgKWIGq4WakpgoAlyBQZaOumGgKWIGq4WakpgoAlyBQZaOumGgKWIGq4WakpgoAlyBQZaOumGgKWIGq4WakpgoAlyBQZaOumGgKWIGq4WakpgoAlyBQZaOumGgKWIGq4WakpgoAlyBQZaOumGgKWIGq4WakpgoAlyBQZaOumGgKWIGq4WakpgoAlyBQZaOumGgKWIGq4WakpgoAlyBQZaOumGgINJ4gsnXMAUDoQDmYDPADAc4D0AHiCfnivmltWajIhIHn3ZKA8/lkAewKyChGeAJxVXNLzWCN9aShBJJ+9AJA8gN0rgPAAioUz2LHuxUaCZPtOBgHpmLUL0pnvAji+Qg+vQOQatocdyVhQXWvDCCKd3u0gPlzdRADkgcz1/HdNbW2jSYGAdGXfDJEaZwfeT7/nHY1wrCEEkXz2VkDOqcPhF+gHr6mjvW3a5AhI3vsfALvVYeaX6Afn1dHeSNMJJ4h0up8HeXHd1otcz/bwkrrlrEDTIaD8DgCX0g/+bSIdmlCCSJeXhyCn7mBqOv01z6jLW8lGIyD5ufsApQ3KdpDvZK7nx8rydQpOGEEk7y4CuLxO+4Y3J05gLnhAS4cVbigC0uUdD8FPtYxweBgX9zyipaNG4QkhiOTdTwG8vkabxmkmF9MPv6Cvx2poFALG3gXB/mwPnkjaj8QJIl3uORDeasYRXki/5z/M6LJaGoHA4Nb+jQb6fgKOHM7F4V8N6KqoIlGCyDLvNES425gDIseyPfy5MX1W0YQjIJ3uMSD/r5GOKT/A4vA0EmJE3xhKEiOIdLS+EWnnZwA8c8aX9qa/9g/m9FlNE42A5PffC0htNNcvb6Pfc645fcM1JUeQ+s86qvn4FfrBx6s1sn9vfgQk730ZwMfMWcpr6ff8H3P6tmpKhCDS6V0I4gaDBnejyLezo+c5gzqtqgYhIB3ZPZGWeHUxx5gJgsvYHlxnTN+gIuMEkS7vLRDEzps7+XZwOhcH95h23uprHALGv0+BlwG+jX7Pb0x6ZZ4g+exPADnRmJHkx5jrucWYPquoaRCQruxHIfIVgwb9lH5g7t2LwwANGgfJZ68CZIkxnQlNm8bss4q0EZBO71IQ12or2qJAPkM/XGpKnzGCSKf3ThA/NGUYRK5qZJizMT+soqoISKfbAfIzVRvW2kBwPNuDeJmv/RghiHRkd0Ja/gvAgdoWxQqI65gLLjOiyyqZFAhIl3ctBJcaMvbX2OGlt/Gyja/q6jNDkE53GcgrdY0ZlL+FfmBwC9CQVVZN4ghI3ou/Rz5qpCORz7E9vFxXlzZBZGn2aDjl2cPEczf94D0mFFkdkxMByXt3ATjdkPXvoR9oRXLoEyTv/QjASQYc6oMjJ3BxuNaALqtikiIgy9z9ETGO9p1hwIVuMHUcc2ueV9WlRRDpyl4Mkc+rdj5Mjng/c8G3jeiySiY1AtLlnQ3Bt8w4wZvp95yvqkuZILJ8ziwUo4fAOAuF5kNcw1ywQFOLFd+GEJAubyUEV5hxSc6hH96uokudIHn3FoAGgsTkQRTD49mBSMUBK7NtIiAdcJB2H4hPx7U9JB5hLjhMRY8SQSSfPROQO1U6HCHzAhAdT7/3UQO6rIptDAHJt84HnPgGaT3JHcZGgfJB5sJv1guRIkG83wKYX29no9pTzmcuvFlbTx0KRJAuhumj0m7xlySKdYhO2aaNxEy63PMgvMkA+D+jH1TKv1VRfd0Eka45H4BE3zBg8B30g7MN6KmqQh7FDtGO6QWO48wXkRikFgD9JB+IoujRlFdsWGKyqsY3sEEpSHdUwsx5ubiS8/HKRJgneS/evHmffl9ySr3ZOusnSN67H8AJmsZuQiRHckn4O009VcWlt+VsiWQBWPmUn5Bn4TgXc//+eA9+yj+ytuU9iKLrBXxjRTAEj9HhSrb2J77zKEvdg+DwYQDTNAen7nO2uggiXdmTIBKfe+g+efpBu66SavKlMH0FwZXV2m3+Ox0cxv0LE5Ito1abJrqdrM0cKhF+XWu/AlmQcovX1NpetZ3kvU4Avqr8Frk6r23XRxAzU90apDcdxUVP/a+2s+MokN7MR0RwWz19kHge+xf2nqrfJvG3BtZmNorg9XXidg5bC0rbqLX2I1fvuyuK034JYG6tMhXa3U4/qDmrZ80EkaXZQ+FIzb8slZ1Q35OuFRhZm3q3RI5SZngSn2NrQTuGp1Zbm6md9GY+KwKlq6t0opO5f+m+JP2RvPsRgHX96I1pTyTza13e106QLu8GCC7UAoC4h7nAVJzNmKZIkD5CyB+MkzF+fBeIJ53WwiwtPyepcNSbWQfBform/5Uip9Ar/kpRviYx6fLuhuC0mhpXbMQv0O+pKf1tTQSRTm82iDi7+g56hsmR9MPEAJR102ZJMYp/xVp17GSq8DrOxp91dEw2WXkCe0gp8ydNu3uZdt7NWZvWaeqpKC559wig/MGu87wMwYG1JJ6rlSB5UCenbuyLXkxMLWhIb8t9IvKuWtqO16YkcmzGK06p/FuFIH1MykC+KpI/ZGv/u3XHYDx5yWdvAkQv07twOdt7FlezsypBpCPbggwCiOxbTdm4f69j3afSTynIXEuauXDDQmFPtkE5AlTF/kbLyGq8XjIZI1ljRHBdyiskduFtcNtXL/pC8BxKpTZ2rP3LeNhXJ0hX9iyI3KE3gMnOHrI2c75EMJWS9BnHLUzX83dySkdhJs66vo8J6+ngAu5fMHECPqY5RmYR4hPMBXGOropPdYLkvTh+5f1aoCU4e0iYPlbAOB2+7iHSoIvyfcctan4EaqHVMOEoTN8D8FRDBmwi5CS6RTNpRkcYZWQWAe6jH8T1EdUIInkvvrQSANheHbTkZg95AtNQyvxKgLeo2zdEkniVwD+ztRDHmk25R3ozBwvwC4jOeG+FjcDvkSocwdnYlASYhmaRNuaCNZXsG3cGkU7v0yD0KvokOXv0pheJaNYcGcYP8ekWu5IYzMmiU8J0TsC4sKqRh5Qr2Vq82oiyZGaRdvpBRX/HJ0hX9kGIHKvuXJKzx7T9pBT9PwB7qNs3RFJ4n+P1jzvdGulnEiiJgpZ7QTG1E/VnppzDOXvTk0m4bmAWeZR+cHDdM4gsyx6KSPPkPMFyWaUw80UCnzQBenkpgMzJdF951oS+ya5Dwh3eCBTuNbV0FeCGlFu4KAlcjMQHjpNHq+IMIvnsckAWaTi1jn4wW0O+oqipPftyB4Ln6eDkqfrdUQnk8vdIhHvB+uKyKulL8mxJ8l5caUo9+oH4d+aCfx3L9vEIEgDiKr/gCValjcL09wGeomzbsO8Onka3//smdG1rOiRsOVUghpKGyw8ct2hqh2wY1BpVczfr6aYfjBkEOSZBZKl7OBzqhYQktLySIH2ikD8x8TKSuIitBZNlGkyY1VQ6pDfzSRF80YRRFHkHvWJ8n8joY2SZFfEwLhldGHRsgnR5l0K0EgontrySMHOHAGfpIkywi26//v0CXUMmgbyELXmBaJTvHnCSwJ10CwZuBo4GTX+ZJR3MhVeN1Dw2QfJenJDhTOWxS2h5Jb3po0WoncVRiNtSrQUDGVmUEZp0gqXezK0U1HyPopKDpLyVrcWHTANgYJn1S/rB0bURpNN9BuTeyk4ktbzqzdwq2oMkG1+NiofsmMUflf0zIDhz9fJjRHgc6ewsIrvAQflfh84mQP4YlaI/gqlnQTwblfof2/hmv6G1GV/uwRu2d9K/ATTei3gWIW5jAj9ORpZZRWd3dnT/bejwjppBZOmcA+BEcWi72iOyke2hkXieoQbIusxBUoRegFp500r8VAMOA6c/vvw1dFJvg0THQXgGWOf5DfEYhD+G4OFUf/TwU/MXJXojc6zBL4XpHA0cIjKN+ZxVMJ6PQHR/2MEP0e8ZlpBkNEG6vIsg+IIaO8pS36EfaH8jjOy/FLYsJUT3HvtTLBUO5hwM+5XQ8LWq6L6PXr1raRouApxPArJXVYFaGhDPSin6EjPb3dSXvXTCZkLpxmsllYnDcLQiuwXsTLn95gotDWImup8GxI3MBcPO1kYTRPfeOXEZc+aLKUqY+Z3uwRVFrqBX/Gwt76B2mzvvTE33nr5o8DBT6wJXRVsaQBQJ0pcLqZWkIT6YpVs4SBvjEQpEd3NJ5GG2h0eNv8TSnaYSiL0ydDAYcLfCwdwzLvaY7DPwfeF8DjQURFnNXOJZgJ/pm7tg3NDtampq+bs8hx3lhfIs4tXSvlKbJA4ODUT4vkg/2LUiQaRj9r5Ip9VjZpL6/ghbrhGIViIFAT6dcgtmMtGP82ZMX33NhyjRzaCZiNh6XkKKrFw/b9HCemRU2pbCzCUE/l1FdrMMwc/S7TeUnHqrJdrfIUV5EzvC9VvtHOKldLaeATrf0XA8ke+PKMzEIffqp/rAKv69cDDno6DhW1XR6atXaL84VTup1oD4bt/chepb9NX0xxsdjyIjO5VnkQNqaF6pSei4Ba1ZaCzF2t8hGJ59cdg3iOS9+OAsTtCl9iSQa9fEyTkFF9BL7nZbDNb0Vcs76DjmClGqjcCAlPDBvnkLjtNRUU1Wgsz5Qr1bnEmcrGvn8iV85oItVx5GEMT9OsAPVgOn4t9Txf145RNPKcuPIVgKWrpIqXq5fpw+XyQL+7EV49491rF5+pqVR1IkTmrWPE8Ev++AhYndbZFe/JNIJl6O76LqtAiXpbx+7RP6of3L8tn7oqTxmQAMyxk9cgaJ96ZVb+f9hX5g5m7GEI+jMBOfnI864ax5UES+53jFM2puX2fDvX+3fFaqxYmjSZvuoeD09fMWGgo2HO1eFKS/C/K9Go4/5LiFt2rIjykqeS9O2fRPinofpx9sWTqOJEi8w6Oa+2rMo3pFIwdWCo9hN9k+8z86Okicz9ZCIiUW9uju2GmHaPs4SZ3GpTId76rLMoXD12cXGsiIObov6c2cJwKtxAx8tfAaHogXqntSewvJe3Eoy7Dt2tql8Sr9YAsHthBErs5OR1H66lA0sumX6Qef0JAfJVrsaTnNcUS9SikR0SnsmVQSuBlrVtwMgVGfTeI38CuD3/eFbzoEZ51VMq27nGwuyjwHgaOqO4p4ejrbb3SWk7z3JQAfV7UJKO1Nf205tGcrQTrdE0BqhCLzCvo9Rg/hJMxcJ8CYF1lqc573O27/O2prW1+rpvzuqOBCvMW9oW1hIlvcUdjyE0BOrA+9ra0J/BvdwqWq8mPJST57OSDqh5lDMsAPIYhmggaRk9keGk1eHAWZX4M4VBW8JO97zHh8xTdBzXRIqo7VL9eb2iSHJhG/pX1fRPCI4xWU6gdWgkE63XeDVEpeXtY5JF/WVoLkvRsBXFA/9oMSKWc2r+w2mpM1CjNxdsPXqdqUVI7dmWuuPlHEzKUtVd/ql5NcX9uiZfXLjS9hIKfvnxy3UFe5hWo+lCswlyKdjZOV9IPygetQgsQJvo6p1nmFvxfpBxlF2THFZBV2lGmZv2vo/LnjFhL5eJ65euUPBGI+A4rIWtCJtK46VwSMfyg56Xkb51xmPFAzCjM67w64qbATDzAbAiR5Lz4UTiu9P8RdzAXl3bmhBNHZ4l1DP2hTMqbSunldy1wpympVnRTJ0Ssa/8Wc+djymZJ2nla1a6ScRNFVdPjbdJT67ZMHXFHOrj7z6et2kxf/8RY4zoFAuVa4mV9YwYf65i00UV9ymBsSpBcLqXzmwjTbOKu/YvI2Fawl78XvjlqxnSFlo4cSZC0A1SwkShVEx3O8GE47xUGknEyB8TqytWA8eG9G94pPIcL1KoM2QuZJCC/pm7dg3JJ2e/93fq90quUWgejWhYy7/0Zf28IPGbB9OEF6Mx8XQbxzpPREcE5Nu5vi7XJjj+S9uHz02xUVbrkyPpQgcWZv1V+qqjlO6zW0FGY+He9w1Cu3uT3hnErDoMe6Z6xZ8SMITlK1K5aLZ40NB1xZV2XdGauXnw44ukVG/9bXtnB3HdvHkpVw2imi8WMW71Sm3IJW8OOomTnvxR/pqsnv/kY/KOM0lCDqh4Tkd5nrMRogJ2HLSoEoR3vGB2ScXTB6QJbt7mh5OdpeL88s+Ujf3AVKuzbTV6/4DIG6iDXyxXHAE59uW/BTkySRJzKHSQlxlkulh+A1dPsXKAlXEJKu7HcgohxBQT8oc6P8P7nzzBTWrikqG0h8nbngX5TlxxAUzfvn/QVn1nZtZtNdvmn1yhMiiMZZEVASmbdx3iLlb6sZa1b+GiLKW98CLN/QtlAntm3UaP1j9bT9WjKR8g5mEvfUpcv7GgTqy8nB++kDBFne9hqUijq7G8ZP0aOw5YeAvFOVdERhF7p4SVV+LLmZ3SvOlQi3qOpUWVqN7Guf7hWnOBHUv83Ar65vW/ARVR/GXmJhZ0HmRXWd/JHj9mtXBhvav/Zp+uCxxQBBtMNMai+KWCuIUZj5DYCKSYWr6HnVcQuqMWUVVc9Ys9KHiPJ1AEp07vp5V2pVaZ3++PJ9SUfjUhv+s2/eQtWP14rYRGHmFY0yGb913MIhtb4btbSTfPZ6QD5VS9sx2wwmkhsgSJc3FwLlaR+Qz9IPlb8XxjIwCjPxVupMRQf7HLegKluxy+mrV9xIjcNUIY/aMHeBbgFKzFi9Ip4Zd1LDRsK+tkXGLypFYSa+hRfXk1F51jtu4U0qgpVkJO9eA1D9FqrjHMXF3Q8PEGSZezgirVSjefqBbsaRYb5GYfmQcEdF0Iz/IsV26B4QFjal9nh2/uXa91JmPL5iNai4xw+81Ne2UPkOR6Xx0JzxX3bcgiLhx7ZI8l4806tnzhzMrWAJUgcDdQlScjK7mzjJnrF6RZy3TPW6qyVILWPuOHO4uLvHLrFqAWuwje4Si1HpsPUHLH6kji7HbDpj9Yr4g3hnNT12iVUTbhLty/bep+1Hek1oDTTS/UiPtx11Qz20Q13EfqTXNOQtfAMX9Dxnt3lrQmugUTNs885Yfc3pQKR8ok67zVvbiKc37cZFT/2vPSisDa5yKxMHhRC+q1r81XgmzVi9Ij6Q268Os4c1tQeFNSL3fGE7Xr9ukw01qRGvuJmRUBPgyb62hUrlwmasvvougKfXYfKopkR07Pq2K3+uo2Ok7DYYarKJfrBd7KcNVqzzTZmxZsWdEI3aKeVr4ujY0LZwVLGWcWeOx68+CeS4kb9VXRH8uW/eQuULaJX0b3vBinyKfk95lrbh7lXfquENpq9Z+WGK3F6n2Ojm5COlKPpEtbis8t2Qv29aCvBi7T4hN/a1LTJSGXioLbKthbsLHmJ7UE5HZC9M1fnW7bVqxd5pB8/UKVax+cCFqfQqbOr/dd/8XLmUwd7d1742Veo/FMK5cOQ8gEpLstHrK57RN3fB90zZvlnPNndhCvgW/eADIwmic22yGa/c/qfjFozHHMWg6R4YjvOCPgmIGCPEsI74B5FS24Z5V2rlGRvL9ijM/AyAcqrTprtyOyR0attO2lAq7J5EsRybtGErTQaL6vxVY1ZqxqQNl9IPypf1tvW0Px9ma+FrGoNXUdSm/RmARnoz/yKCrypj3IxpfxznTC7u/u4IgjRj4jjNuiCUu5zWok7u2IrjbhPHDUAT9aa/B+F7VAmSRJ0Q7cRxQ2qmN3XqUQOlDyKWCnskscyKX4gpn3p0oGZhnChaOfVoIiUQdFOPDql229zJq5/ALlLKaFVzZVy51O03nupmy25TVPwFIGrpZVR/duuQYxSdtP6AK39Sh0jNTSVs+aBAvl6zwBgNmSrsytnQuI04Wqlm8uotCRuGLbHK68m8p5MbK5HyBxK23K+T8kaAb6Tcgvrd5CqjP3PVskPFSRlNDqHzwg2VJbB4fdvC5ab0jdRTCjNfJ6BcT4bgT+n2K+f1reSXVvmDITmxxiCIZgGdEfXdTAxMKUh3kNSp3PQCS4X9klpmlZdaj6/4IAitX1ITWA3VIeRtG+YuONe03s36Bnev4qu/u6n2ISJXpbyiVpaWkX1LhzsTaWok9pNv0A+3/KCaLcEWyblcEmrduR7lcJA+UaiXB3eqlWAT4P4NbQsTyWq/hSDNWoJtqXsOHN6qSlqIXMX2cAtphxNEu4gnb6PfY/xXa7IU8ZzZvfIdEsmPlQfHgKCJzCnVzGjuIp7ZWwE5p5oPlf/OD9Hv2fLNOpwg2tMT1tMPjF6+L38bTaIy0PusWnm040T3ATR+77vaoAvlvA1zFymnAK2mf/Pfm7oMdN7TSfYBRM6buaR71WZfhxFk8ENdswOZxyWhRoaU0cNUCNLHpMg4FEbnCbhb4WDuaTaL+FgGzehefiBKzpdB5XqP9flJPItIruibt+ib9QnW31qew47yQrkEtFZmlJLIsRmvaDbsfqnbBoeP1+/VFom/0g+G1TYcgyCaU5Tgk2wP4lojRh8JM78T9QKjZVsocgW9otEqWBWdvPPO1HTv6YsIxNGzrUbB2Prz9qyUoi8xs91NfdlLy4GOST8SpC8XUr1600D4xu/pFg4ybat0eheCuEFD73foB2cNlR9NkC73HIjORw6/yfYe5a2/Ss6VwpalhOimFnqKpcLBSe5ojbR/30ev3rU0DRcBzicB2Utj8LaKEhNOjLjzwZ2rePbYV8cPATtTbv8SHR1jyUpn9huglKNwFZ+L6AfDCDaaIMvmZBFF3YodxLeBNrA9UE0gVrFbWZc5SIp4VNmuQUGB+Cm3qFzLQrX/gRD2wklgOTN8/N9r69TVD8i9FLmvkJF7/+At1gkQrLPrgealMJ0jmFcSHiLENOZzViE+czP6SKfXB2K6stLBXFjjziDlXwrdDx3yncz1GN/N0U1oPeC4bHw1Kh6yYxYTsiSpNFjl++0SHU06O4vILnAw8O/AEuQlofMSI/m7EC854Kr0dtvds272JXqZ5ZXfHODlHrxheyf9G4B7a6hBEomqy6PalT0JIuo3LkU2sj3cZ6Rvo2aQQYLE0Znq2dpFrmd7eIkOkGPJSm/6aBH+l65eIW5LtRaMb0fr2tXM8qXezK0UaGyfDnhHylvZWozrmBt9pNP9PKhx61JwJ9uD99VIEPdTAHWqKG2p0GMUhfKWb+YOAYZ9SKn0QbCLbr96akqVTiepjIQteYHkdM0ncCfdwqiXUFfv4I96XLRT/eal4F/ZHowq4lNhBskeAoheBsCkllkGTtY3D0iSZaJNDHoz6NAu8zzEiSQid40sr2Il0djHE2MSZICR2UCr2mpCy6yyL2H6+wBPMfECETyNbr9yvQ0TNjSrDglbThXIPWbskx84bvFUM7qGa9FfXslv2R6OWX5hPIIsB2SRhkOJLbMMHRwOuCZ4ng5OZmsh3r60zyAC0ps5WCLcCyrXrRyGZRIHg5s7kLynu7xawfZgzHe9MkGWZQ9FJHph3Akts2JgSmHmi4OHcNovdXxwBWROpvvKs9rKtgEFEu7wRqBwr+7B7JYXGLgh5RYuSgIa7d2r8o+knMj2cMy6jRUJMri2exAix6o7xpvp95yvLl9ZUp6Ytp+Uorhw5B5G9Avvc7z+k43omuRKoqDlXlBUK8SO9P7PTDmHc7bZepFbZ4/sTUCcGkn5eQbF1+/Ljp+PWaNzfIJ0ep8G1Usxl00e4/BF2ZURgtKbXiRCYxeCCPHZgENEU3iY0CNhOicGDgM320LKlWwtXm3CtpE6ZKl7EBzqHh7fTj+ouH09PkHyXnwiHmjUnot3vhOcRTANpcyvTC0FQLxK4J+n6vdI+bsD+AUE25t4octL11ThCM5GIgeckteePeL11Rn0w4rJ9MYlSHmZlffiCNH3awGW5CwSpo8VMD61n6Zl4xZh+b7jFk8zo2tyaYnC9D0ATe00bSLkJLpF3SjsMUE0MnsQv2MumD/eKFUnSFf2LIjcoTfUyc0iZRKvzZwvEf5Dz8ZBacHzjlfY04iuSaYkCjLPmdq1ooMLuH/hpqQgMDJ7kJcz1/M5PYJ0ZFuQQQARrQjOJL9FYgdLQeZaEpeaGBBK6k30/hFXbZ0yjwTbzRSWNO5yb4VKBNelvMJlSYFnZPYA/oZM1MaFvePuXFadQcq/0J1eHoRmqEGys0jZzt6W+0REuyA9gYPpFnQ//pJ6PxLRK2FmvgDaZ0Ekf8jWflM7YGMvr0x8ewi+yPagah31WgkyG0RcWXUHvdGRI+mHv9LTUVla1k2bJcX4uqveBaUkcjUl5bMpvWIgBxmAXqadd3PWprgKViKP5N0jAGrXmkcUHcUlvVX11ESQ8q9zl3cDBBdqeU3cw1ygVSGpWv/Smz5KhHHoSL33LcqqSQRsLWSr9bMt/l16Mz0iyldp/0bKqWwt/jJJbKTLuxsCzU0U3ku/p6ZQpdoJsjR7KBzNk/UycnIO/VC/AM04o6ATQ0TgRroF40VmknxpTOmWMHODQO1HcCJi2iTvfgSgflqpOiI8aiZI+dXOe98GoBuuvAbpTUfFFURNDexYeoph5mMO8OU6+3iRqcLrktq3r9OWCW8uT2CalDJ/AlBXRpYI+HjaLXwlSYPl6n13RXFaPDvppnkdde98PLvrI4jura2tluTpB7r3y6uORylMLyC4omrDwQYkz2Zrv+aWdq29NWc76W15n4jEP4Q1PQJZmHKLK2tqrNFI8l4nAP37O4zexlxvzWczdRFkcBa5H8AJGr7GopsQyZFcEhq/lzzSLultOVsiWQDiwEo2k+iG4JyptnNVCY94RwvEbRgfgSQAAAX7SURBVCKYU3GcBY/R4Uq29tdMJtV3ZnBbN/6g1j0M/hr94MP12FE/QbrmfAASmciWfgf94Ox6jFVtK49iB+ycvkKEcWHGowFkABQAPCQiD5nOD6tqZ7PJSW/6M5Uwc14uruR8vDIRNhta2sdxgUdwSRgHuNb81E2QwVkk3i8f94i+Jgso5zMX3lxTW0ON4rSZxR3TR6ZfLj7M+WWS2KcKAo3ETLrc8yA0cSL/JfpB3VG/igTJngnInQberBeA6Hj6vVPqUM4AblNCheRb5wPOAzoZ5AeB+juIw5kL1tQLnBJBBmYR9xaABjKDyIMohsezA1G9xtv22y4C0gEHafcBgG8z4KXyppA6QZbPmYVi9BAI/cA+4hrmggUGgLAqthEEpMtbCcEVBtxZh2LpcHas/YuKLmWClGeRruzFEPm8SsejZIj3MxckviNixFarJFEEpMs7G4JvmelELqYffkFVlxZBBj/Y42x2cSpN3acPjpzAxeFaXUVWfvIiIMvc/RExvh9uIn3tL+kH8a6l8qNPkKXZo+GIdrbDQQ/uph8olxRWRsEKNg0CkvfuAmAmXk+iM9neW653rvpoE6Q8i3S6y0BeqWrECLlb6AcfM6TLqplECEjei8NVPmrI5K/QDz6uq8sMQTqyOyFdnkUqnlbXZShxHXNBYhdu6rLFNp4QBKTLuxZi5sJbOY8CcRxzgXaCciMEGZhFvHeC+KExNEcUUzSm1ypqOgSk0+2AXiXj4T458l4uDuOlmvZjjCBlkuSzVwFirjCK4DK2B9dpe2kVNC0C0uldCuJaYwaKfI7t4eWm9BklyCBJfgKIueLw5MeY67nFlMNWT/MgIF3Zj0LEZJj8r1B89Th2rP+HKS/NE6TLewsEPwPwGlNGwsHpXBwYSqJszCqrSAMBWeadhgh3a6gYLSrOcWzvftCkTuMEGfwe0S2mONLHbhT5dnb0PGfSeaurMQhIR3ZPpCX+Ea0cTl+vaYJPsT34Yr1i1donQpDBpZZmQfdRphvZtqsGiP178ghI3otveprbyjf83TEUgeQI0tH6RqSd+FdCq5728OFKTae/5pnkh9D2kBQCkp+7D1DaYEy/4C62B+81pm+EosQIUp5FTK8ziROYC+LwZ/tMUgSkyzsegjFLDdTtkuAxOHiXifOOSn0nSpCB75HsuaAY2oXSCzyrewCsgHEEJK9d/3LAJsELoLwryTxrcTeJE2Twe+QSQEYVSKwffV5Iv8dMDt76O7cSBhCQfPYCQG7UVjVB0d8TQpCBmcTLgdArQi9yLNvDn2uDaxU0DAHpdI8BWXNWkQqGXkQ/uGEinJgwggzOJJp1D0t701/7h4kAxvaRDAKS338vILVRWTvhMxd0KcvXKTihBBkkyfWAVE0aPMoPwbfZHujVKakTHNs8GQSk0/sWiPoz2iS4nVvJ0wknyABJvDh95EfqgP8V+sGOdbS3TZscAcl7L9eZDL0h52ANIcjgN8ntIGpL4qWQz6jJ348pb54sdQ+Hw9oy/Qu+yvagnh9UY/g2jCCDy614RyP+cN+9gkdfxg4vXcLLNr5qzGOrqGkQkGv33h6v7BznNKh0semvAP1G7lw2lCBlkiydcwBYOgQOPUi5rkcMSgiRHrbbAMWmeZsTNEQ6vdNAZgFxyz+WRC8iCSCp33BJ96oEu66quuEEqWqhbWARaCACliANBN923fwIWII0/xhZCxuIgCVIA8G3XTc/ApYgzT9G1sIGImAJ0kDwbdfNj4AlSPOPkbWwgQhYgjQQfNt18yNgCdL8Y2QtbCACliANBN923fwIWII0/xhZCxuIgCVIA8G3XTc/ApYgzT9G1sIGImAJ0kDwbdfNj4AlSPOPkbWwgQhYgjQQfNt18yNgCdL8Y2QtbCACliANBN923fwIWII0/xhZCxuIgCVIA8G3XTc/ApYgzT9G1sIGImAJ0kDwbdfNj4AlSPOPkbWwgQhYgjQQfNt18yNgCdL8Y2QtbCACliANBN923fwIWII0/xhZCxuIgCVIA8G3XTc/ApYgzT9G1sIGIvD/ARX9n5sHylKgAAAAAElFTkSuQmCC;" vertex="1" parent="1">
          <mxGeometry x="-970" y="545" width="30" height="30" as="geometry" />
        </mxCell>
      </root>
    </mxGraphModel>
  </diagram>
</mxfile>
